<?xml version="1.0" encoding="UTF-8" standalone="no"?>
<!DOCTYPE svg PUBLIC "-//W3C//DTD SVG 1.1//EN"
 "http://www.w3.org/Graphics/SVG/1.1/DTD/svg11.dtd">
<!-- Generated by graphviz version 2.38.0 (20140413.2041)
 -->
<!-- Title: %3 Pages: 1 -->
<svg width="307pt" height="620pt"
 viewBox="0.00 0.00 307.00 620.00" xmlns="http://www.w3.org/2000/svg" xmlns:xlink="http://www.w3.org/1999/xlink">
<g id="graph0" class="graph" transform="scale(1 1) rotate(0) translate(4 616)">
<title>%3</title>
<polygon fill="white" stroke="none" points="-4,4 -4,-616 303,-616 303,4 -4,4"/>
<!-- proj -->
<g id="node1" class="node"><title>proj</title>
<polygon fill="none" stroke="green" points="59,-324 56,-328 35,-328 32,-324 5,-324 5,-288 59,-288 59,-324"/>
<text text-anchor="middle" x="32" y="-302.3" font-family="Times,serif" font-size="14.00">project</text>
</g>
<!-- main -->
<g id="node4" class="node"><title>main</title>
<polygon fill="none" stroke="red" points="174,-612 109,-612 109,-576 174,-576 174,-612"/>
<text text-anchor="middle" x="141.5" y="-590.3" font-family="Times,serif" font-size="14.00">main.tex</text>
</g>
<!-- proj&#45;&gt;main -->
<g id="edge1" class="edge"><title>proj&#45;&gt;main</title>
<path fill="none" stroke="black" d="M39.7246,-324.016C57.9367,-372.807 108.311,-507.762 130.163,-566.307"/>
<polygon fill="black" stroke="black" points="127.002,-567.846 133.778,-575.991 133.56,-565.399 127.002,-567.846"/>
</g>
<!-- bib -->
<g id="node5" class="node"><title>bib</title>
<polygon fill="none" stroke="red" points="170,-540 113,-540 113,-504 170,-504 170,-540"/>
<text text-anchor="middle" x="141.5" y="-518.3" font-family="Times,serif" font-size="14.00">cite.bib</text>
</g>
<!-- proj&#45;&gt;bib -->
<g id="edge2" class="edge"><title>proj&#45;&gt;bib</title>
<path fill="none" stroke="black" d="M41.9805,-324.045C60.8325,-361.924 104.626,-449.918 126.926,-494.726"/>
<polygon fill="black" stroke="black" points="123.88,-496.462 131.469,-503.855 130.147,-493.343 123.88,-496.462"/>
</g>
<!-- bst -->
<g id="node6" class="node"><title>bst</title>
<polygon fill="none" stroke="green" points="183,-468 100,-468 100,-432 183,-432 183,-468"/>
<text text-anchor="middle" x="141.5" y="-446.3" font-family="Times,serif" font-size="14.00">template.bst</text>
</g>
<!-- proj&#45;&gt;bst -->
<g id="edge3" class="edge"><title>proj&#45;&gt;bst</title>
<path fill="none" stroke="black" d="M46.6149,-324.238C65.3545,-349.34 99.2157,-394.698 120.742,-423.533"/>
<polygon fill="black" stroke="black" points="118.209,-425.991 126.996,-431.91 123.818,-421.803 118.209,-425.991"/>
</g>
<!-- cls -->
<g id="node7" class="node"><title>cls</title>
<polygon fill="none" stroke="green" points="183,-396 100,-396 100,-360 183,-360 183,-396"/>
<text text-anchor="middle" x="141.5" y="-374.3" font-family="Times,serif" font-size="14.00">template.cls</text>
</g>
<!-- proj&#45;&gt;cls -->
<g id="edge4" class="edge"><title>proj&#45;&gt;cls</title>
<path fill="none" stroke="black" d="M59.0228,-323.429C72.8398,-332.683 90.0232,-344.192 105.043,-354.252"/>
<polygon fill="black" stroke="black" points="103.338,-357.323 113.594,-359.979 107.233,-351.507 103.338,-357.323"/>
</g>
<!-- sty -->
<g id="node8" class="node"><title>sty</title>
<polygon fill="none" stroke="green" points="183,-324 100,-324 100,-288 183,-288 183,-324"/>
<text text-anchor="middle" x="141.5" y="-302.3" font-family="Times,serif" font-size="14.00">template.sty</text>
</g>
<!-- proj&#45;&gt;sty -->
<g id="edge5" class="edge"><title>proj&#45;&gt;sty</title>
<path fill="none" stroke="black" d="M59.0228,-306C68.2523,-306 78.9838,-306 89.5691,-306"/>
<polygon fill="black" stroke="black" points="89.6193,-309.5 99.6193,-306 89.6193,-302.5 89.6193,-309.5"/>
</g>
<!-- fig -->
<g id="node9" class="node"><title>fig</title>
<polygon fill="none" stroke="red" points="168.5,-252 165.5,-256 144.5,-256 141.5,-252 114.5,-252 114.5,-216 168.5,-216 168.5,-252"/>
<text text-anchor="middle" x="141.5" y="-230.3" font-family="Times,serif" font-size="14.00">figs</text>
</g>
<!-- proj&#45;&gt;fig -->
<g id="edge6" class="edge"><title>proj&#45;&gt;fig</title>
<path fill="none" stroke="black" d="M59.0228,-288.571C73.0476,-279.177 90.5407,-267.461 105.719,-257.295"/>
<polygon fill="black" stroke="black" points="107.983,-259.991 114.344,-251.518 104.088,-254.175 107.983,-259.991"/>
</g>
<!-- sec -->
<g id="node10" class="node"><title>sec</title>
<polygon fill="none" stroke="red" points="168.5,-180 165.5,-184 144.5,-184 141.5,-180 114.5,-180 114.5,-144 168.5,-144 168.5,-180"/>
<text text-anchor="middle" x="141.5" y="-158.3" font-family="Times,serif" font-size="14.00">secs</text>
</g>
<!-- proj&#45;&gt;sec -->
<g id="edge7" class="edge"><title>proj&#45;&gt;sec</title>
<path fill="none" stroke="black" d="M46.6149,-287.762C65.3545,-262.66 99.2157,-217.302 120.742,-188.467"/>
<polygon fill="black" stroke="black" points="123.818,-190.197 126.996,-180.09 118.209,-186.009 123.818,-190.197"/>
</g>
<!-- build -->
<g id="node11" class="node"><title>build</title>
<polygon fill="none" stroke="blue" points="168.5,-108 165.5,-112 144.5,-112 141.5,-108 114.5,-108 114.5,-72 168.5,-72 168.5,-108"/>
<text text-anchor="middle" x="141.5" y="-86.3" font-family="Times,serif" font-size="14.00">build</text>
</g>
<!-- proj&#45;&gt;build -->
<g id="edge8" class="edge"><title>proj&#45;&gt;build</title>
<path fill="none" stroke="black" d="M41.9805,-287.955C60.8325,-250.076 104.626,-162.082 126.926,-117.274"/>
<polygon fill="black" stroke="black" points="130.147,-118.657 131.469,-108.145 123.88,-115.538 130.147,-118.657"/>
</g>
<!-- gen -->
<g id="node12" class="node"><title>gen</title>
<polygon fill="none" stroke="blue" points="180,-36 103,-36 103,-0 180,-0 180,-36"/>
<text text-anchor="middle" x="141.5" y="-14.3" font-family="Times,serif" font-size="14.00">compile.sh</text>
</g>
<!-- proj&#45;&gt;gen -->
<g id="edge9" class="edge"><title>proj&#45;&gt;gen</title>
<path fill="none" stroke="black" d="M39.7246,-287.984C57.9367,-239.193 108.311,-104.238 130.163,-45.6927"/>
<polygon fill="black" stroke="black" points="133.56,-46.6015 133.778,-36.0089 127.002,-44.1536 133.56,-46.6015"/>
</g>
<!-- info -->
<g id="node2" class="node"><title>info</title>
<polygon fill="none" stroke="blue" points="288.5,-216 229.5,-216 229.5,-180 288.5,-180 288.5,-216"/>
<text text-anchor="middle" x="259" y="-194.3" font-family="Times,serif" font-size="14.00">info.tex</text>
</g>
<!-- secs -->
<g id="node3" class="node"><title>secs</title>
<polygon fill="none" stroke="blue" points="299,-144 219,-144 219,-108 299,-108 299,-144"/>
<text text-anchor="middle" x="259" y="-122.3" font-family="Times,serif" font-size="14.00">sections.tex</text>
</g>
<!-- sec&#45;&gt;info -->
<g id="edge10" class="edge"><title>sec&#45;&gt;info</title>
<path fill="none" stroke="black" d="M168.709,-170.169C183.701,-174.842 202.784,-180.79 219.456,-185.986"/>
<polygon fill="black" stroke="black" points="218.879,-189.473 229.468,-189.107 220.962,-182.79 218.879,-189.473"/>
</g>
<!-- sec&#45;&gt;secs -->
<g id="edge11" class="edge"><title>sec&#45;&gt;secs</title>
<path fill="none" stroke="black" d="M168.709,-153.831C180.599,-150.125 195.062,-145.617 208.855,-141.318"/>
<polygon fill="black" stroke="black" points="210.228,-144.556 218.733,-138.239 208.145,-137.873 210.228,-144.556"/>
</g>
<!-- temp -->
<g id="node13" class="node"><title>temp</title>
<polygon fill="none" stroke="black" points="64,-396 0,-396 0,-360 64,-360 64,-396"/>
<text text-anchor="middle" x="32" y="-374.3" font-family="Times,serif" font-size="14.00">template</text>
</g>
</g>
</svg>
