<?xml version="1.0" encoding="UTF-8" standalone="no"?>
<!DOCTYPE svg PUBLIC "-//W3C//DTD SVG 1.1//EN"
 "http://www.w3.org/Graphics/SVG/1.1/DTD/svg11.dtd">
<!-- Generated by graphviz version 2.38.0 (20140413.2041)
 -->
<!-- Title: %3 Pages: 1 -->
<svg width="289pt" height="550pt"
 viewBox="0.00 0.00 289.00 550.00" xmlns="http://www.w3.org/2000/svg" xmlns:xlink="http://www.w3.org/1999/xlink">
<g id="graph0" class="graph" transform="scale(1 1) rotate(0) translate(4 546)">
<title>%3</title>
<polygon fill="white" stroke="none" points="-4,4 -4,-546 285,-546 285,4 -4,4"/>
<!-- proj -->
<g id="node1" class="node"><title>proj</title>
<polygon fill="none" stroke="green" points="54,-360 51,-364 30,-364 27,-360 0,-360 0,-324 54,-324 54,-360"/>
<text text-anchor="middle" x="27" y="-338.3" font-family="Times,serif" font-size="14.00">project</text>
</g>
<!-- main -->
<g id="node4" class="node"><title>main</title>
<polygon fill="none" stroke="red" points="162,-542 90,-542 90,-504 162,-504 162,-542"/>
<text text-anchor="middle" x="126" y="-526.8" font-family="Times,serif" font-size="14.00">main.tex </text>
<text text-anchor="middle" x="126" y="-511.8" font-family="Times,serif" font-size="14.00"> Template</text>
</g>
<!-- proj&#45;&gt;main -->
<g id="edge1" class="edge"><title>proj&#45;&gt;main</title>
<path fill="none" stroke="black" d="M37.6554,-360.017C54.619,-391.671 89.8796,-457.466 110.027,-495.06"/>
<polygon fill="black" stroke="black" points="106.994,-496.811 114.803,-503.972 113.164,-493.505 106.994,-496.811"/>
</g>
<!-- bib -->
<g id="node5" class="node"><title>bib</title>
<polygon fill="none" stroke="red" points="154.5,-468 97.5,-468 97.5,-432 154.5,-432 154.5,-468"/>
<text text-anchor="middle" x="126" y="-446.3" font-family="Times,serif" font-size="14.00">cite.bib</text>
</g>
<!-- proj&#45;&gt;bib -->
<g id="edge2" class="edge"><title>proj&#45;&gt;bib</title>
<path fill="none" stroke="black" d="M44.4547,-360.321C60.2269,-377.881 84.1829,-404.554 101.872,-424.249"/>
<polygon fill="black" stroke="black" points="99.5023,-426.849 108.788,-431.95 104.71,-422.171 99.5023,-426.849"/>
</g>
<!-- fig -->
<g id="node9" class="node"><title>fig</title>
<polygon fill="none" stroke="red" points="153,-396 150,-400 129,-400 126,-396 99,-396 99,-360 153,-360 153,-396"/>
<text text-anchor="middle" x="126" y="-374.3" font-family="Times,serif" font-size="14.00">figs</text>
</g>
<!-- proj&#45;&gt;fig -->
<g id="edge3" class="edge"><title>proj&#45;&gt;fig</title>
<path fill="none" stroke="black" d="M54.2496,-351.742C65.0327,-355.744 77.6893,-360.441 89.2936,-364.748"/>
<polygon fill="black" stroke="black" points="88.1364,-368.052 98.7294,-368.25 90.5721,-361.489 88.1364,-368.052"/>
</g>
<!-- sec -->
<g id="node10" class="node"><title>sec</title>
<polygon fill="none" stroke="red" points="153,-324 150,-328 129,-328 126,-324 99,-324 99,-288 153,-288 153,-324"/>
<text text-anchor="middle" x="126" y="-302.3" font-family="Times,serif" font-size="14.00">secs</text>
</g>
<!-- proj&#45;&gt;sec -->
<g id="edge4" class="edge"><title>proj&#45;&gt;sec</title>
<path fill="none" stroke="black" d="M54.2496,-332.258C65.0327,-328.256 77.6893,-323.559 89.2936,-319.252"/>
<polygon fill="black" stroke="black" points="90.5721,-322.511 98.7294,-315.75 88.1364,-315.948 90.5721,-322.511"/>
</g>
<!-- build -->
<g id="node11" class="node"><title>build</title>
<polygon fill="none" stroke="blue" points="153,-252 150,-256 129,-256 126,-252 99,-252 99,-216 153,-216 153,-252"/>
<text text-anchor="middle" x="126" y="-230.3" font-family="Times,serif" font-size="14.00">build</text>
</g>
<!-- proj&#45;&gt;build -->
<g id="edge5" class="edge"><title>proj&#45;&gt;build</title>
<path fill="none" stroke="black" d="M44.4547,-323.679C60.2269,-306.119 84.1829,-279.446 101.872,-259.751"/>
<polygon fill="black" stroke="black" points="104.71,-261.829 108.788,-252.05 99.5023,-257.151 104.71,-261.829"/>
</g>
<!-- temp -->
<g id="node13" class="node"><title>temp</title>
<polygon fill="none" stroke="black" stroke-dasharray="1,5" points="158,-180 94,-180 94,-144 158,-144 158,-180"/>
<text text-anchor="middle" x="126" y="-158.3" font-family="Times,serif" font-size="14.00">template</text>
</g>
<!-- proj&#45;&gt;temp -->
<g id="edge6" class="edge"><title>proj&#45;&gt;temp</title>
<path fill="none" stroke="black" d="M37.8347,-323.75C54.9453,-291.998 90.2758,-226.437 110.305,-189.27"/>
<polygon fill="black" stroke="black" points="113.621,-190.494 115.284,-180.031 107.458,-187.173 113.621,-190.494"/>
</g>
<!-- info -->
<g id="node2" class="node"><title>info</title>
<polygon fill="none" stroke="blue" points="269,-396 210,-396 210,-360 269,-360 269,-396"/>
<text text-anchor="middle" x="239.5" y="-374.3" font-family="Times,serif" font-size="14.00">info.tex</text>
</g>
<!-- secs -->
<g id="node3" class="node"><title>secs</title>
<polygon fill="none" stroke="blue" points="279.5,-324 199.5,-324 199.5,-288 279.5,-288 279.5,-324"/>
<text text-anchor="middle" x="239.5" y="-302.3" font-family="Times,serif" font-size="14.00">sections.tex</text>
</g>
<!-- bst -->
<g id="node6" class="node"><title>bst</title>
<polygon fill="none" stroke="green" points="281,-252 198,-252 198,-216 281,-216 281,-252"/>
<text text-anchor="middle" x="239.5" y="-230.3" font-family="Times,serif" font-size="14.00">template.bst</text>
</g>
<!-- cls -->
<g id="node7" class="node"><title>cls</title>
<polygon fill="none" stroke="green" points="281,-180 198,-180 198,-144 281,-144 281,-180"/>
<text text-anchor="middle" x="239.5" y="-158.3" font-family="Times,serif" font-size="14.00">template.cls</text>
</g>
<!-- sty -->
<g id="node8" class="node"><title>sty</title>
<polygon fill="none" stroke="green" points="281,-108 198,-108 198,-72 281,-72 281,-108"/>
<text text-anchor="middle" x="239.5" y="-86.3" font-family="Times,serif" font-size="14.00">template.sty</text>
</g>
<!-- sec&#45;&gt;info -->
<g id="edge11" class="edge"><title>sec&#45;&gt;info</title>
<path fill="none" stroke="black" d="M153.142,-322.881C167.697,-332.28 186.045,-344.128 201.997,-354.428"/>
<polygon fill="black" stroke="black" points="200.273,-357.482 210.573,-359.966 204.071,-351.601 200.273,-357.482"/>
</g>
<!-- sec&#45;&gt;secs -->
<g id="edge12" class="edge"><title>sec&#45;&gt;secs</title>
<path fill="none" stroke="black" d="M153.142,-306C163.903,-306 176.738,-306 189.145,-306"/>
<polygon fill="black" stroke="black" points="189.411,-309.5 199.411,-306 189.411,-302.5 189.411,-309.5"/>
</g>
<!-- gen -->
<g id="node12" class="node"><title>gen</title>
<polygon fill="none" stroke="green" points="278,-36 201,-36 201,-0 278,-0 278,-36"/>
<text text-anchor="middle" x="239.5" y="-14.3" font-family="Times,serif" font-size="14.00">compile.sh</text>
</g>
<!-- temp&#45;&gt;bst -->
<g id="edge7" class="edge"><title>temp&#45;&gt;bst</title>
<path fill="none" stroke="black" d="M155.136,-180.169C169.266,-189.293 186.561,-200.461 201.728,-210.255"/>
<polygon fill="black" stroke="black" points="200.073,-213.353 210.373,-215.837 203.871,-207.472 200.073,-213.353"/>
</g>
<!-- temp&#45;&gt;cls -->
<g id="edge8" class="edge"><title>temp&#45;&gt;cls</title>
<path fill="none" stroke="black" d="M158.059,-162C167.146,-162 177.329,-162 187.316,-162"/>
<polygon fill="black" stroke="black" points="187.597,-165.5 197.597,-162 187.597,-158.5 187.597,-165.5"/>
</g>
<!-- temp&#45;&gt;sty -->
<g id="edge9" class="edge"><title>temp&#45;&gt;sty</title>
<path fill="none" stroke="black" d="M155.136,-143.831C169.266,-134.707 186.561,-123.539 201.728,-113.745"/>
<polygon fill="black" stroke="black" points="203.871,-116.528 210.373,-108.163 200.073,-110.647 203.871,-116.528"/>
</g>
<!-- temp&#45;&gt;gen -->
<g id="edge10" class="edge"><title>temp&#45;&gt;gen</title>
<path fill="none" stroke="black" d="M141.122,-143.762C160.642,-118.552 195.983,-72.9103 218.294,-44.0952"/>
<polygon fill="black" stroke="black" points="221.138,-46.1393 224.493,-36.0896 215.603,-41.8536 221.138,-46.1393"/>
</g>
</g>
</svg>
