<?xml version="1.0" encoding="UTF-8" standalone="no"?>
<!DOCTYPE svg PUBLIC "-//W3C//DTD SVG 1.1//EN"
 "http://www.w3.org/Graphics/SVG/1.1/DTD/svg11.dtd">
<!-- Generated by graphviz version 2.38.0 (20140413.2041)
 -->
<!-- Title: %3 Pages: 1 -->
<svg width="282pt" height="548pt"
 viewBox="0.00 0.00 282.00 548.00" xmlns="http://www.w3.org/2000/svg" xmlns:xlink="http://www.w3.org/1999/xlink">
<g id="graph0" class="graph" transform="scale(1 1) rotate(0) translate(4 544)">
<title>%3</title>
<polygon fill="white" stroke="none" points="-4,4 -4,-544 278,-544 278,4 -4,4"/>
<!-- proj -->
<g id="node1" class="node"><title>proj</title>
<polygon fill="none" stroke="green" points="54,-360 51,-364 30,-364 27,-360 0,-360 0,-324 54,-324 54,-360"/>
<text text-anchor="middle" x="27" y="-338.3" font-family="Times,serif" font-size="14.00">project</text>
</g>
<!-- main -->
<g id="node4" class="node"><title>main</title>
<polygon fill="none" stroke="red" points="155,-540 90,-540 90,-504 155,-504 155,-540"/>
<text text-anchor="middle" x="122.5" y="-518.3" font-family="Times,serif" font-size="14.00">main.tex</text>
</g>
<!-- proj&#45;&gt;main -->
<g id="edge1" class="edge"><title>proj&#45;&gt;main</title>
<path fill="none" stroke="black" d="M37.4798,-360.25C53.9731,-392.002 88.0287,-457.563 107.335,-494.73"/>
<polygon fill="black" stroke="black" points="104.418,-496.709 112.134,-503.969 110.63,-493.482 104.418,-496.709"/>
</g>
<!-- bib -->
<g id="node5" class="node"><title>bib</title>
<polygon fill="none" stroke="red" points="151,-468 94,-468 94,-432 151,-432 151,-468"/>
<text text-anchor="middle" x="122.5" y="-446.3" font-family="Times,serif" font-size="14.00">cite.bib</text>
</g>
<!-- proj&#45;&gt;bib -->
<g id="edge2" class="edge"><title>proj&#45;&gt;bib</title>
<path fill="none" stroke="black" d="M43.861,-360.321C59.0641,-377.881 82.1556,-404.554 99.2062,-424.249"/>
<polygon fill="black" stroke="black" points="96.6818,-426.68 105.873,-431.95 101.974,-422.099 96.6818,-426.68"/>
</g>
<!-- fig -->
<g id="node9" class="node"><title>fig</title>
<polygon fill="none" stroke="red" points="149.5,-396 146.5,-400 125.5,-400 122.5,-396 95.5,-396 95.5,-360 149.5,-360 149.5,-396"/>
<text text-anchor="middle" x="122.5" y="-374.3" font-family="Times,serif" font-size="14.00">figs</text>
</g>
<!-- proj&#45;&gt;fig -->
<g id="edge3" class="edge"><title>proj&#45;&gt;fig</title>
<path fill="none" stroke="black" d="M54.045,-352.028C63.8911,-355.819 75.2729,-360.201 85.85,-364.274"/>
<polygon fill="black" stroke="black" points="84.6806,-367.574 95.2704,-367.901 87.1959,-361.041 84.6806,-367.574"/>
</g>
<!-- sec -->
<g id="node10" class="node"><title>sec</title>
<polygon fill="none" stroke="red" points="149.5,-324 146.5,-328 125.5,-328 122.5,-324 95.5,-324 95.5,-288 149.5,-288 149.5,-324"/>
<text text-anchor="middle" x="122.5" y="-302.3" font-family="Times,serif" font-size="14.00">secs</text>
</g>
<!-- proj&#45;&gt;sec -->
<g id="edge4" class="edge"><title>proj&#45;&gt;sec</title>
<path fill="none" stroke="black" d="M54.045,-331.972C63.8911,-328.181 75.2729,-323.799 85.85,-319.726"/>
<polygon fill="black" stroke="black" points="87.1959,-322.959 95.2704,-316.099 84.6806,-316.426 87.1959,-322.959"/>
</g>
<!-- build -->
<g id="node11" class="node"><title>build</title>
<polygon fill="none" stroke="blue" points="149.5,-252 146.5,-256 125.5,-256 122.5,-252 95.5,-252 95.5,-216 149.5,-216 149.5,-252"/>
<text text-anchor="middle" x="122.5" y="-230.3" font-family="Times,serif" font-size="14.00">build</text>
</g>
<!-- proj&#45;&gt;build -->
<g id="edge5" class="edge"><title>proj&#45;&gt;build</title>
<path fill="none" stroke="black" d="M43.861,-323.679C59.0641,-306.119 82.1556,-279.446 99.2062,-259.751"/>
<polygon fill="black" stroke="black" points="101.974,-261.901 105.873,-252.05 96.6818,-257.32 101.974,-261.901"/>
</g>
<!-- temp -->
<g id="node13" class="node"><title>temp</title>
<polygon fill="none" stroke="black" stroke-dasharray="1,5" points="154.5,-180 90.5,-180 90.5,-144 154.5,-144 154.5,-180"/>
<text text-anchor="middle" x="122.5" y="-158.3" font-family="Times,serif" font-size="14.00">template</text>
</g>
<!-- proj&#45;&gt;temp -->
<g id="edge6" class="edge"><title>proj&#45;&gt;temp</title>
<path fill="none" stroke="black" d="M37.4798,-323.75C53.9731,-291.998 88.0287,-226.437 107.335,-189.27"/>
<polygon fill="black" stroke="black" points="110.63,-190.518 112.134,-180.031 104.418,-187.291 110.63,-190.518"/>
</g>
<!-- info -->
<g id="node2" class="node"><title>info</title>
<polygon fill="none" stroke="blue" points="262,-396 203,-396 203,-360 262,-360 262,-396"/>
<text text-anchor="middle" x="232.5" y="-374.3" font-family="Times,serif" font-size="14.00">info.tex</text>
</g>
<!-- secs -->
<g id="node3" class="node"><title>secs</title>
<polygon fill="none" stroke="blue" points="272.5,-324 192.5,-324 192.5,-288 272.5,-288 272.5,-324"/>
<text text-anchor="middle" x="232.5" y="-302.3" font-family="Times,serif" font-size="14.00">sections.tex</text>
</g>
<!-- bst -->
<g id="node6" class="node"><title>bst</title>
<polygon fill="none" stroke="green" points="274,-252 191,-252 191,-216 274,-216 274,-252"/>
<text text-anchor="middle" x="232.5" y="-230.3" font-family="Times,serif" font-size="14.00">template.bst</text>
</g>
<!-- cls -->
<g id="node7" class="node"><title>cls</title>
<polygon fill="none" stroke="green" points="274,-180 191,-180 191,-144 274,-144 274,-180"/>
<text text-anchor="middle" x="232.5" y="-158.3" font-family="Times,serif" font-size="14.00">template.cls</text>
</g>
<!-- sty -->
<g id="node8" class="node"><title>sty</title>
<polygon fill="none" stroke="green" points="274,-108 191,-108 191,-72 274,-72 274,-108"/>
<text text-anchor="middle" x="232.5" y="-86.3" font-family="Times,serif" font-size="14.00">template.sty</text>
</g>
<!-- sec&#45;&gt;info -->
<g id="edge11" class="edge"><title>sec&#45;&gt;info</title>
<path fill="none" stroke="black" d="M149.644,-323.429C163.525,-332.683 180.788,-344.192 195.878,-354.252"/>
<polygon fill="black" stroke="black" points="194.207,-357.345 204.469,-359.979 198.09,-351.52 194.207,-357.345"/>
</g>
<!-- sec&#45;&gt;secs -->
<g id="edge12" class="edge"><title>sec&#45;&gt;secs</title>
<path fill="none" stroke="black" d="M149.644,-306C159.394,-306 170.813,-306 181.975,-306"/>
<polygon fill="black" stroke="black" points="182.099,-309.5 192.099,-306 182.099,-302.5 182.099,-309.5"/>
</g>
<!-- gen -->
<g id="node12" class="node"><title>gen</title>
<polygon fill="none" stroke="blue" points="271,-36 194,-36 194,-0 271,-0 271,-36"/>
<text text-anchor="middle" x="232.5" y="-14.3" font-family="Times,serif" font-size="14.00">compile.sh</text>
</g>
<!-- temp&#45;&gt;bst -->
<g id="edge7" class="edge"><title>temp&#45;&gt;bst</title>
<path fill="none" stroke="black" d="M150.753,-180.169C164.439,-189.293 181.191,-200.461 195.883,-210.255"/>
<polygon fill="black" stroke="black" points="193.994,-213.202 204.256,-215.837 197.877,-207.378 193.994,-213.202"/>
</g>
<!-- temp&#45;&gt;cls -->
<g id="edge8" class="edge"><title>temp&#45;&gt;cls</title>
<path fill="none" stroke="black" d="M154.738,-162C162.798,-162 171.686,-162 180.469,-162"/>
<polygon fill="black" stroke="black" points="180.675,-165.5 190.675,-162 180.675,-158.5 180.675,-165.5"/>
</g>
<!-- temp&#45;&gt;sty -->
<g id="edge9" class="edge"><title>temp&#45;&gt;sty</title>
<path fill="none" stroke="black" d="M150.753,-143.831C164.439,-134.707 181.191,-123.539 195.883,-113.745"/>
<polygon fill="black" stroke="black" points="197.877,-116.622 204.256,-108.163 193.994,-110.798 197.877,-116.622"/>
</g>
<!-- temp&#45;&gt;gen -->
<g id="edge10" class="edge"><title>temp&#45;&gt;gen</title>
<path fill="none" stroke="black" d="M137.178,-143.762C156.086,-118.552 190.317,-72.9103 211.929,-44.0952"/>
<polygon fill="black" stroke="black" points="214.733,-46.1897 217.933,-36.0896 209.133,-41.9896 214.733,-46.1897"/>
</g>
</g>
</svg>
