<?xml version="1.0" encoding="UTF-8" standalone="no"?>
<!DOCTYPE svg PUBLIC "-//W3C//DTD SVG 1.1//EN"
 "http://www.w3.org/Graphics/SVG/1.1/DTD/svg11.dtd">
<!-- Generated by graphviz version 2.38.0 (20140413.2041)
 -->
<!-- Title: %3 Pages: 1 -->
<svg width="282pt" height="621pt"
 viewBox="0.00 0.00 282.00 621.00" xmlns="http://www.w3.org/2000/svg" xmlns:xlink="http://www.w3.org/1999/xlink">
<g id="graph0" class="graph" transform="scale(1 1) rotate(0) translate(4 617)">
<title>%3</title>
<polygon fill="white" stroke="none" points="-4,4 -4,-617 278,-617 278,4 -4,4"/>
<!-- proj -->
<g id="node1" class="node"><title>proj</title>
<polygon fill="none" stroke="green" points="54,-397 51,-401 30,-401 27,-397 0,-397 0,-361 54,-361 54,-397"/>
<text text-anchor="middle" x="27" y="-375.3" font-family="Times,serif" font-size="14.00">project</text>
</g>
<!-- main -->
<g id="node4" class="node"><title>main</title>
<polygon fill="none" stroke="red" points="155,-613 90,-613 90,-577 155,-577 155,-613"/>
<text text-anchor="middle" x="122.5" y="-591.3" font-family="Times,serif" font-size="14.00">main.tex</text>
</g>
<!-- proj&#45;&gt;main -->
<g id="edge1" class="edge"><title>proj&#45;&gt;main</title>
<path fill="none" stroke="black" d="M35.8109,-397.045C52.1734,-434.844 90.1383,-522.549 109.572,-567.444"/>
<polygon fill="black" stroke="black" points="106.461,-569.068 113.646,-576.855 112.885,-566.287 106.461,-569.068"/>
</g>
<!-- bib -->
<g id="node5" class="node"><title>bib</title>
<polygon fill="none" stroke="red" points="151,-541 94,-541 94,-505 151,-505 151,-541"/>
<text text-anchor="middle" x="122.5" y="-519.3" font-family="Times,serif" font-size="14.00">cite.bib</text>
</g>
<!-- proj&#45;&gt;bib -->
<g id="edge2" class="edge"><title>proj&#45;&gt;bib</title>
<path fill="none" stroke="black" d="M39.8418,-397.238C56.0706,-422.232 85.3386,-467.308 104.072,-496.159"/>
<polygon fill="black" stroke="black" points="101.373,-498.429 109.754,-504.91 107.244,-494.617 101.373,-498.429"/>
</g>
<!-- fig -->
<g id="node9" class="node"><title>fig</title>
<polygon fill="none" stroke="red" points="149.5,-469 146.5,-473 125.5,-473 122.5,-469 95.5,-469 95.5,-433 149.5,-433 149.5,-469"/>
<text text-anchor="middle" x="122.5" y="-447.3" font-family="Times,serif" font-size="14.00">figs</text>
</g>
<!-- proj&#45;&gt;fig -->
<g id="edge3" class="edge"><title>proj&#45;&gt;fig</title>
<path fill="none" stroke="black" d="M51.594,-397.169C63.221,-406.122 77.4046,-417.044 89.9496,-426.705"/>
<polygon fill="black" stroke="black" points="87.855,-429.509 97.9136,-432.837 92.1259,-423.963 87.855,-429.509"/>
</g>
<!-- sec -->
<g id="node10" class="node"><title>sec</title>
<polygon fill="none" stroke="red" points="149.5,-397 146.5,-401 125.5,-401 122.5,-397 95.5,-397 95.5,-361 149.5,-361 149.5,-397"/>
<text text-anchor="middle" x="122.5" y="-375.3" font-family="Times,serif" font-size="14.00">secs</text>
</g>
<!-- proj&#45;&gt;sec -->
<g id="edge4" class="edge"><title>proj&#45;&gt;sec</title>
<path fill="none" stroke="black" d="M54.045,-379C63.6902,-379 74.809,-379 85.2015,-379"/>
<polygon fill="black" stroke="black" points="85.2705,-382.5 95.2704,-379 85.2704,-375.5 85.2705,-382.5"/>
</g>
<!-- build -->
<g id="node11" class="node"><title>build</title>
<polygon fill="none" stroke="blue" points="149.5,-325 146.5,-329 125.5,-329 122.5,-325 95.5,-325 95.5,-289 149.5,-289 149.5,-325"/>
<text text-anchor="middle" x="122.5" y="-303.3" font-family="Times,serif" font-size="14.00">build</text>
</g>
<!-- proj&#45;&gt;build -->
<g id="edge5" class="edge"><title>proj&#45;&gt;build</title>
<path fill="none" stroke="black" d="M51.594,-360.831C63.221,-351.878 77.4046,-340.956 89.9496,-331.295"/>
<polygon fill="black" stroke="black" points="92.1259,-334.037 97.9136,-325.163 87.855,-328.491 92.1259,-334.037"/>
</g>
<!-- gen -->
<g id="node12" class="node"><title>gen</title>
<polygon fill="none" stroke="blue" points="271,-252 194,-252 194,-216 271,-216 271,-252"/>
<text text-anchor="middle" x="232.5" y="-230.3" font-family="Times,serif" font-size="14.00">compile.sh</text>
</g>
<!-- proj&#45;&gt;gen -->
<g id="edge6" class="edge"><title>proj&#45;&gt;gen</title>
<path fill="none" stroke="black" d="M52.6112,-360.929C89.4759,-334.917 157.56,-286.878 198.57,-257.941"/>
<polygon fill="black" stroke="black" points="200.737,-260.696 206.89,-252.071 196.701,-254.976 200.737,-260.696"/>
</g>
<!-- temp -->
<g id="node13" class="node"><title>temp</title>
<polygon fill="none" stroke="black" stroke-dasharray="1,5" points="154.5,-179 90.5,-179 90.5,-143 154.5,-143 154.5,-179"/>
<text text-anchor="middle" x="122.5" y="-157.3" font-family="Times,serif" font-size="14.00">template</text>
</g>
<!-- proj&#45;&gt;temp -->
<g id="edge7" class="edge"><title>proj&#45;&gt;temp</title>
<path fill="none" stroke="black" d="M35.8109,-360.788C52.2142,-322.543 90.3278,-233.68 109.717,-188.473"/>
<polygon fill="black" stroke="black" points="113.052,-189.576 113.777,-179.006 106.619,-186.817 113.052,-189.576"/>
</g>
<!-- info -->
<g id="node2" class="node"><title>info</title>
<polygon fill="none" stroke="blue" points="262,-433 203,-433 203,-397 262,-397 262,-433"/>
<text text-anchor="middle" x="232.5" y="-411.3" font-family="Times,serif" font-size="14.00">info.tex</text>
</g>
<!-- secs -->
<g id="node3" class="node"><title>secs</title>
<polygon fill="none" stroke="blue" points="272.5,-361 192.5,-361 192.5,-325 272.5,-325 272.5,-361"/>
<text text-anchor="middle" x="232.5" y="-339.3" font-family="Times,serif" font-size="14.00">sections.tex</text>
</g>
<!-- bst -->
<g id="node6" class="node"><title>bst</title>
<polygon fill="none" stroke="green" points="274,-180 191,-180 191,-144 274,-144 274,-180"/>
<text text-anchor="middle" x="232.5" y="-158.3" font-family="Times,serif" font-size="14.00">template.bst</text>
</g>
<!-- cls -->
<g id="node7" class="node"><title>cls</title>
<polygon fill="none" stroke="green" points="274,-108 191,-108 191,-72 274,-72 274,-108"/>
<text text-anchor="middle" x="232.5" y="-86.3" font-family="Times,serif" font-size="14.00">template.cls</text>
</g>
<!-- sty -->
<g id="node8" class="node"><title>sty</title>
<polygon fill="none" stroke="green" points="274,-36 191,-36 191,-0 274,-0 274,-36"/>
<text text-anchor="middle" x="232.5" y="-14.3" font-family="Times,serif" font-size="14.00">template.sty</text>
</g>
<!-- sec&#45;&gt;info -->
<g id="edge12" class="edge"><title>sec&#45;&gt;info</title>
<path fill="none" stroke="black" d="M149.644,-387.715C162.73,-392.077 178.822,-397.441 193.265,-402.255"/>
<polygon fill="black" stroke="black" points="192.35,-405.639 202.943,-405.481 194.563,-398.998 192.35,-405.639"/>
</g>
<!-- sec&#45;&gt;secs -->
<g id="edge13" class="edge"><title>sec&#45;&gt;secs</title>
<path fill="none" stroke="black" d="M149.644,-370.285C159.494,-367.002 171.046,-363.151 182.317,-359.394"/>
<polygon fill="black" stroke="black" points="183.719,-362.616 192.099,-356.134 181.505,-355.976 183.719,-362.616"/>
</g>
<!-- temp&#45;&gt;bst -->
<g id="edge8" class="edge"><title>temp&#45;&gt;bst</title>
<path fill="none" stroke="black" d="M154.738,-161.289C162.798,-161.364 171.686,-161.446 180.469,-161.527"/>
<polygon fill="black" stroke="black" points="180.643,-165.029 190.675,-161.622 180.708,-158.029 180.643,-165.029"/>
</g>
<!-- temp&#45;&gt;cls -->
<g id="edge9" class="edge"><title>temp&#45;&gt;cls</title>
<path fill="none" stroke="black" d="M151.032,-142.9C164.488,-134.054 180.858,-123.293 195.31,-113.792"/>
<polygon fill="black" stroke="black" points="197.584,-116.485 204.018,-108.067 193.739,-110.636 197.584,-116.485"/>
</g>
<!-- temp&#45;&gt;sty -->
<g id="edge10" class="edge"><title>temp&#45;&gt;sty</title>
<path fill="none" stroke="black" d="M137.178,-142.889C155.902,-118.097 189.652,-73.4093 211.294,-44.7542"/>
<polygon fill="black" stroke="black" points="214.358,-46.5049 217.592,-36.4157 208.772,-42.2862 214.358,-46.5049"/>
</g>
<!-- temp&#45;&gt;gen -->
<g id="edge11" class="edge"><title>temp&#45;&gt;gen</title>
<path fill="none" stroke="black" d="M150.197,-179.045C164.086,-188.433 181.246,-200.032 196.216,-210.151"/>
<polygon fill="black" stroke="black" points="194.491,-213.209 204.736,-215.91 198.411,-207.41 194.491,-213.209"/>
</g>
</g>
</svg>
