<?xml version="1.0" encoding="UTF-8" standalone="no"?>
<!DOCTYPE svg PUBLIC "-//W3C//DTD SVG 1.1//EN"
 "http://www.w3.org/Graphics/SVG/1.1/DTD/svg11.dtd">
<!-- Generated by graphviz version 2.38.0 (20140413.2041)
 -->
<!-- Title: %3 Pages: 1 -->
<svg width="287pt" height="94pt"
 viewBox="0.00 0.00 287.00 94.00" xmlns="http://www.w3.org/2000/svg" xmlns:xlink="http://www.w3.org/1999/xlink">
<g id="graph0" class="graph" transform="scale(1 1) rotate(0) translate(4 90)">
<title>%3</title>
<polygon fill="white" stroke="none" points="-4,4 -4,-90 283,-90 283,4 -4,4"/>
<!-- temp -->
<g id="node1" class="node"><title>temp</title>
<polygon fill="none" stroke="black" points="169.5,-86 85.5,-86 85.5,-50 169.5,-50 169.5,-86"/>
<text text-anchor="middle" x="127.5" y="-64.3" font-family="Times,serif" font-size="14.00">template.tex</text>
</g>
<!-- info -->
<g id="node2" class="node"><title>info</title>
<polygon fill="none" stroke="black" points="59,-36 0,-36 0,-0 59,-0 59,-36"/>
<text text-anchor="middle" x="29.5" y="-14.3" font-family="Times,serif" font-size="14.00">info.tex</text>
</g>
<!-- temp&#45;&gt;info -->
<g id="edge1" class="edge"><title>temp&#45;&gt;info</title>
<path fill="none" stroke="black" d="M92.6729,-49.9418C84.7644,-46.0683 76.317,-41.9308 68.2567,-37.9829"/>
<polygon fill="black" stroke="black" points="69.548,-34.7181 59.0278,-33.4626 66.4689,-41.0046 69.548,-34.7181"/>
</g>
<!-- main -->
<g id="node3" class="node"><title>main</title>
<polygon fill="none" stroke="black" points="160,-36 95,-36 95,-0 160,-0 160,-36"/>
<text text-anchor="middle" x="127.5" y="-14.3" font-family="Times,serif" font-size="14.00">main.tex</text>
</g>
<!-- temp&#45;&gt;main -->
<g id="edge2" class="edge"><title>temp&#45;&gt;main</title>
<path fill="none" stroke="black" d="M127.5,-49.9418C127.5,-48.6686 127.5,-47.3669 127.5,-46.0527"/>
<polygon fill="black" stroke="black" points="131,-46.0032 127.5,-36.0032 124,-46.0033 131,-46.0032"/>
</g>
<!-- bst -->
<g id="node5" class="node"><title>bst</title>
<polygon fill="none" stroke="black" points="279,-36 196,-36 196,-0 279,-0 279,-36"/>
<text text-anchor="middle" x="237.5" y="-14.3" font-family="Times,serif" font-size="14.00">template.bst</text>
</g>
<!-- temp&#45;&gt;bst -->
<g id="edge3" class="edge"><title>temp&#45;&gt;bst</title>
<path fill="none" stroke="black" d="M166.592,-49.9418C173.886,-46.7588 181.589,-43.3975 189.124,-40.1096"/>
<polygon fill="black" stroke="black" points="190.769,-43.2106 198.534,-36.0032 187.969,-36.7948 190.769,-43.2106"/>
</g>
<!-- bib -->
<g id="node4" class="node"><title>bib</title>
<polygon fill="none" stroke="black" points="263,-86 206,-86 206,-50 263,-50 263,-86"/>
<text text-anchor="middle" x="234.5" y="-64.3" font-family="Times,serif" font-size="14.00">cite.bib</text>
</g>
</g>
</svg>
