<?xml version="1.0" encoding="UTF-8" standalone="no"?>
<!DOCTYPE svg PUBLIC "-//W3C//DTD SVG 1.1//EN"
 "http://www.w3.org/Graphics/SVG/1.1/DTD/svg11.dtd">
<!-- Generated by graphviz version 2.38.0 (20140413.2041)
 -->
<!-- Title: %3 Pages: 1 -->
<svg width="302pt" height="620pt"
 viewBox="0.00 0.00 302.00 620.00" xmlns="http://www.w3.org/2000/svg" xmlns:xlink="http://www.w3.org/1999/xlink">
<g id="graph0" class="graph" transform="scale(1 1) rotate(0) translate(4 616)">
<title>%3</title>
<polygon fill="white" stroke="none" points="-4,4 -4,-616 298,-616 298,4 -4,4"/>
<!-- proj -->
<g id="node1" class="node"><title>proj</title>
<polygon fill="none" stroke="green" points="67,-324 64,-328 43,-328 40,-324 13,-324 13,-288 67,-288 67,-324"/>
<text text-anchor="middle" x="40" y="-302.3" font-family="Times,serif" font-size="14.00">project</text>
</g>
<!-- main -->
<g id="node4" class="node"><title>main</title>
<polygon fill="none" stroke="red" points="190,-612 125,-612 125,-576 190,-576 190,-612"/>
<text text-anchor="middle" x="157.5" y="-590.3" font-family="Times,serif" font-size="14.00">main.tex</text>
</g>
<!-- proj&#45;&gt;main -->
<g id="edge1" class="edge"><title>proj&#45;&gt;main</title>
<path fill="none" stroke="black" d="M48.225,-324.016C67.8329,-372.908 122.139,-508.321 145.54,-566.67"/>
<polygon fill="black" stroke="black" points="142.307,-568.012 149.278,-575.991 148.804,-565.407 142.307,-568.012"/>
</g>
<!-- bib -->
<g id="node5" class="node"><title>bib</title>
<polygon fill="none" stroke="red" points="186,-540 129,-540 129,-504 186,-504 186,-540"/>
<text text-anchor="middle" x="157.5" y="-518.3" font-family="Times,serif" font-size="14.00">cite.bib</text>
</g>
<!-- proj&#45;&gt;bib -->
<g id="edge2" class="edge"><title>proj&#45;&gt;bib</title>
<path fill="none" stroke="black" d="M50.6488,-324.045C70.9462,-362.003 118.154,-450.287 142.066,-495.007"/>
<polygon fill="black" stroke="black" points="138.996,-496.687 146.797,-503.855 145.168,-493.386 138.996,-496.687"/>
</g>
<!-- bst -->
<g id="node6" class="node"><title>bst</title>
<polygon fill="none" stroke="green" points="199,-468 116,-468 116,-432 199,-432 199,-468"/>
<text text-anchor="middle" x="157.5" y="-446.3" font-family="Times,serif" font-size="14.00">template.bst</text>
</g>
<!-- proj&#45;&gt;bst -->
<g id="edge3" class="edge"><title>proj&#45;&gt;bst</title>
<path fill="none" stroke="black" d="M55.6282,-324.238C75.849,-349.448 112.457,-395.09 135.57,-423.905"/>
<polygon fill="black" stroke="black" points="133.003,-426.3 141.991,-431.91 138.464,-421.92 133.003,-426.3"/>
</g>
<!-- cls -->
<g id="node7" class="node"><title>cls</title>
<polygon fill="none" stroke="green" points="199,-396 116,-396 116,-360 199,-360 199,-396"/>
<text text-anchor="middle" x="157.5" y="-374.3" font-family="Times,serif" font-size="14.00">template.cls</text>
</g>
<!-- proj&#45;&gt;cls -->
<g id="edge4" class="edge"><title>proj&#45;&gt;cls</title>
<path fill="none" stroke="black" d="M67.2087,-322.338C82.5117,-331.877 102.077,-344.074 118.991,-354.618"/>
<polygon fill="black" stroke="black" points="117.219,-357.638 127.557,-359.958 120.922,-351.697 117.219,-357.638"/>
</g>
<!-- sty -->
<g id="node8" class="node"><title>sty</title>
<polygon fill="none" stroke="green" points="199,-324 116,-324 116,-288 199,-288 199,-324"/>
<text text-anchor="middle" x="157.5" y="-302.3" font-family="Times,serif" font-size="14.00">template.sty</text>
</g>
<!-- proj&#45;&gt;sty -->
<g id="edge5" class="edge"><title>proj&#45;&gt;sty</title>
<path fill="none" stroke="black" d="M67.2087,-306C78.6649,-306 92.5099,-306 105.843,-306"/>
<polygon fill="black" stroke="black" points="105.891,-309.5 115.891,-306 105.891,-302.5 105.891,-309.5"/>
</g>
<!-- fig -->
<g id="node9" class="node"><title>fig</title>
<polygon fill="none" stroke="red" points="184.5,-252 181.5,-256 160.5,-256 157.5,-252 130.5,-252 130.5,-216 184.5,-216 184.5,-252"/>
<text text-anchor="middle" x="157.5" y="-230.3" font-family="Times,serif" font-size="14.00">figs</text>
</g>
<!-- proj&#45;&gt;fig -->
<g id="edge6" class="edge"><title>proj&#45;&gt;fig</title>
<path fill="none" stroke="black" d="M67.2087,-289.662C83.3052,-279.628 104.118,-266.654 121.599,-255.756"/>
<polygon fill="black" stroke="black" points="123.76,-258.534 130.395,-250.273 120.057,-252.593 123.76,-258.534"/>
</g>
<!-- sec -->
<g id="node10" class="node"><title>sec</title>
<polygon fill="none" stroke="red" points="184.5,-180 181.5,-184 160.5,-184 157.5,-180 130.5,-180 130.5,-144 184.5,-144 184.5,-180"/>
<text text-anchor="middle" x="157.5" y="-158.3" font-family="Times,serif" font-size="14.00">secs</text>
</g>
<!-- proj&#45;&gt;sec -->
<g id="edge7" class="edge"><title>proj&#45;&gt;sec</title>
<path fill="none" stroke="black" d="M55.6282,-287.762C75.849,-262.552 112.457,-216.91 135.57,-188.095"/>
<polygon fill="black" stroke="black" points="138.464,-190.08 141.991,-180.09 133.003,-185.7 138.464,-190.08"/>
</g>
<!-- build -->
<g id="node11" class="node"><title>build</title>
<polygon fill="none" stroke="blue" points="184.5,-108 181.5,-112 160.5,-112 157.5,-108 130.5,-108 130.5,-72 184.5,-72 184.5,-108"/>
<text text-anchor="middle" x="157.5" y="-86.3" font-family="Times,serif" font-size="14.00">build</text>
</g>
<!-- proj&#45;&gt;build -->
<g id="edge8" class="edge"><title>proj&#45;&gt;build</title>
<path fill="none" stroke="black" d="M50.6488,-287.955C70.9462,-249.997 118.154,-161.713 142.066,-116.993"/>
<polygon fill="black" stroke="black" points="145.168,-118.614 146.797,-108.145 138.996,-115.313 145.168,-118.614"/>
</g>
<!-- gen -->
<g id="node12" class="node"><title>gen</title>
<polygon fill="none" stroke="blue" points="196,-36 119,-36 119,-0 196,-0 196,-36"/>
<text text-anchor="middle" x="157.5" y="-14.3" font-family="Times,serif" font-size="14.00">compile.sh</text>
</g>
<!-- proj&#45;&gt;gen -->
<g id="edge9" class="edge"><title>proj&#45;&gt;gen</title>
<path fill="none" stroke="black" d="M48.225,-287.984C67.8329,-239.092 122.139,-103.679 145.54,-45.33"/>
<polygon fill="black" stroke="black" points="148.804,-46.5931 149.278,-36.0089 142.307,-43.9875 148.804,-46.5931"/>
</g>
<!-- info -->
<g id="node2" class="node"><title>info</title>
<polygon fill="none" stroke="blue" points="294,-180 235,-180 235,-144 294,-144 294,-180"/>
<text text-anchor="middle" x="264.5" y="-158.3" font-family="Times,serif" font-size="14.00">info.tex</text>
</g>
<!-- secs -->
<g id="node3" class="node"><title>secs</title>
<polygon fill="none" stroke="blue" points="80,-396 0,-396 0,-360 80,-360 80,-396"/>
<text text-anchor="middle" x="40" y="-374.3" font-family="Times,serif" font-size="14.00">sections.tex</text>
</g>
<!-- sec&#45;&gt;info -->
<g id="edge10" class="edge"><title>sec&#45;&gt;info</title>
<path fill="none" stroke="black" d="M184.725,-162C196.708,-162 211.15,-162 224.379,-162"/>
<polygon fill="black" stroke="black" points="224.657,-165.5 234.657,-162 224.657,-158.5 224.657,-165.5"/>
</g>
</g>
</svg>
