<?xml version="1.0" encoding="UTF-8" standalone="no"?>
<!DOCTYPE svg PUBLIC "-//W3C//DTD SVG 1.1//EN"
 "http://www.w3.org/Graphics/SVG/1.1/DTD/svg11.dtd">
<!-- Generated by graphviz version 2.38.0 (20140413.2041)
 -->
<!-- Title: %3 Pages: 1 -->
<svg width="299pt" height="404pt"
 viewBox="0.00 0.00 299.00 404.00" xmlns="http://www.w3.org/2000/svg" xmlns:xlink="http://www.w3.org/1999/xlink">
<g id="graph0" class="graph" transform="scale(1 1) rotate(0) translate(4 400)">
<title>%3</title>
<polygon fill="white" stroke="none" points="-4,4 -4,-400 295,-400 295,4 -4,4"/>
<!-- proj -->
<g id="node1" class="node"><title>proj</title>
<polygon fill="none" stroke="green" points="65.5,-216 62.5,-220 41.5,-220 38.5,-216 11.5,-216 11.5,-180 65.5,-180 65.5,-216"/>
<text text-anchor="middle" x="38.5" y="-194.3" font-family="Times,serif" font-size="14.00">project</text>
</g>
<!-- main -->
<g id="node3" class="node"><title>main</title>
<polygon fill="none" stroke="red" points="187,-396 122,-396 122,-360 187,-360 187,-396"/>
<text text-anchor="middle" x="154.5" y="-374.3" font-family="Times,serif" font-size="14.00">main.tex</text>
</g>
<!-- proj&#45;&gt;main -->
<g id="edge1" class="edge"><title>proj&#45;&gt;main</title>
<path fill="none" stroke="black" d="M51.0583,-216.25C71.2533,-248.137 113.044,-314.122 136.529,-351.203"/>
<polygon fill="black" stroke="black" points="133.773,-353.394 142.081,-359.969 139.687,-349.648 133.773,-353.394"/>
</g>
<!-- bib -->
<g id="node4" class="node"><title>bib</title>
<polygon fill="none" stroke="red" points="183,-324 126,-324 126,-288 183,-288 183,-324"/>
<text text-anchor="middle" x="154.5" y="-302.3" font-family="Times,serif" font-size="14.00">cite.bib</text>
</g>
<!-- proj&#45;&gt;bib -->
<g id="edge2" class="edge"><title>proj&#45;&gt;bib</title>
<path fill="none" stroke="black" d="M58.581,-216.077C77.3231,-233.832 106.075,-261.071 127.025,-280.918"/>
<polygon fill="black" stroke="black" points="124.69,-283.528 134.357,-287.864 129.504,-278.446 124.69,-283.528"/>
</g>
<!-- bst -->
<g id="node5" class="node"><title>bst</title>
<polygon fill="none" stroke="green" points="196,-252 113,-252 113,-216 196,-216 196,-252"/>
<text text-anchor="middle" x="154.5" y="-230.3" font-family="Times,serif" font-size="14.00">template.bst</text>
</g>
<!-- proj&#45;&gt;bst -->
<g id="edge3" class="edge"><title>proj&#45;&gt;bst</title>
<path fill="none" stroke="black" d="M65.6539,-206.259C76.7591,-209.766 90.0998,-213.979 102.992,-218.05"/>
<polygon fill="black" stroke="black" points="102.128,-221.448 112.718,-221.122 104.236,-214.773 102.128,-221.448"/>
</g>
<!-- sty -->
<g id="node6" class="node"><title>sty</title>
<polygon fill="none" stroke="green" points="196,-180 113,-180 113,-144 196,-144 196,-180"/>
<text text-anchor="middle" x="154.5" y="-158.3" font-family="Times,serif" font-size="14.00">template.sty</text>
</g>
<!-- proj&#45;&gt;sty -->
<g id="edge4" class="edge"><title>proj&#45;&gt;sty</title>
<path fill="none" stroke="black" d="M65.6539,-189.741C76.7591,-186.234 90.0998,-182.021 102.992,-177.95"/>
<polygon fill="black" stroke="black" points="104.236,-181.227 112.718,-174.878 102.128,-174.552 104.236,-181.227"/>
</g>
<!-- fig -->
<g id="node7" class="node"><title>fig</title>
<polygon fill="none" stroke="red" points="181.5,-108 178.5,-112 157.5,-112 154.5,-108 127.5,-108 127.5,-72 181.5,-72 181.5,-108"/>
<text text-anchor="middle" x="154.5" y="-86.3" font-family="Times,serif" font-size="14.00">figs</text>
</g>
<!-- proj&#45;&gt;fig -->
<g id="edge5" class="edge"><title>proj&#45;&gt;fig</title>
<path fill="none" stroke="black" d="M58.581,-179.923C77.3231,-162.168 106.075,-134.929 127.025,-115.082"/>
<polygon fill="black" stroke="black" points="129.504,-117.554 134.357,-108.136 124.69,-112.472 129.504,-117.554"/>
</g>
<!-- sec -->
<g id="node8" class="node"><title>sec</title>
<polygon fill="none" stroke="red" points="181.5,-36 178.5,-40 157.5,-40 154.5,-36 127.5,-36 127.5,-0 181.5,-0 181.5,-36"/>
<text text-anchor="middle" x="154.5" y="-14.3" font-family="Times,serif" font-size="14.00">secs</text>
</g>
<!-- proj&#45;&gt;sec -->
<g id="edge6" class="edge"><title>proj&#45;&gt;sec</title>
<path fill="none" stroke="black" d="M51.0583,-179.75C71.2533,-147.863 113.044,-81.8781 136.529,-44.7969"/>
<polygon fill="black" stroke="black" points="139.687,-46.3515 142.081,-36.0306 133.773,-42.6061 139.687,-46.3515"/>
</g>
<!-- info -->
<g id="node2" class="node"><title>info</title>
<polygon fill="none" stroke="gold" points="291,-36 232,-36 232,-0 291,-0 291,-36"/>
<text text-anchor="middle" x="261.5" y="-14.3" font-family="Times,serif" font-size="14.00">info.tex</text>
</g>
<!-- sec&#45;&gt;info -->
<g id="edge7" class="edge"><title>sec&#45;&gt;info</title>
<path fill="none" stroke="black" d="M181.725,-18C193.708,-18 208.15,-18 221.379,-18"/>
<polygon fill="black" stroke="black" points="221.657,-21.5001 231.657,-18 221.657,-14.5001 221.657,-21.5001"/>
</g>
<!-- build -->
<g id="node9" class="node"><title>build</title>
<polygon fill="none" stroke="blue" points="65.5,-288 62.5,-292 41.5,-292 38.5,-288 11.5,-288 11.5,-252 65.5,-252 65.5,-288"/>
<text text-anchor="middle" x="38.5" y="-266.3" font-family="Times,serif" font-size="14.00">build</text>
</g>
<!-- gen -->
<g id="node10" class="node"><title>gen</title>
<polygon fill="none" stroke="blue" points="77,-360 0,-360 0,-324 77,-324 77,-360"/>
<text text-anchor="middle" x="38.5" y="-338.3" font-family="Times,serif" font-size="14.00">compile.sh</text>
</g>
</g>
</svg>
