<?xml version="1.0" encoding="UTF-8" standalone="no"?>
<!DOCTYPE svg PUBLIC "-//W3C//DTD SVG 1.1//EN"
 "http://www.w3.org/Graphics/SVG/1.1/DTD/svg11.dtd">
<!-- Generated by graphviz version 2.38.0 (20140413.2041)
 -->
<!-- Title: %3 Pages: 1 -->
<svg width="297pt" height="620pt"
 viewBox="0.00 0.00 297.00 620.00" xmlns="http://www.w3.org/2000/svg" xmlns:xlink="http://www.w3.org/1999/xlink">
<g id="graph0" class="graph" transform="scale(1 1) rotate(0) translate(4 616)">
<title>%3</title>
<polygon fill="white" stroke="none" points="-4,4 -4,-616 293,-616 293,4 -4,4"/>
<!-- proj -->
<g id="node1" class="node"><title>proj</title>
<polygon fill="none" stroke="green" points="54,-324 51,-328 30,-328 27,-324 0,-324 0,-288 54,-288 54,-324"/>
<text text-anchor="middle" x="27" y="-302.3" font-family="Times,serif" font-size="14.00">project</text>
</g>
<!-- main -->
<g id="node4" class="node"><title>main</title>
<polygon fill="none" stroke="red" points="164,-612 99,-612 99,-576 164,-576 164,-612"/>
<text text-anchor="middle" x="131.5" y="-590.3" font-family="Times,serif" font-size="14.00">main.tex</text>
</g>
<!-- proj&#45;&gt;main -->
<g id="edge1" class="edge"><title>proj&#45;&gt;main</title>
<path fill="none" stroke="black" d="M34.4118,-324.016C51.7768,-372.807 99.8078,-507.762 120.644,-566.307"/>
<polygon fill="black" stroke="black" points="117.44,-567.744 124.091,-575.991 124.035,-565.396 117.44,-567.744"/>
</g>
<!-- bib -->
<g id="node5" class="node"><title>bib</title>
<polygon fill="none" stroke="red" points="160,-540 103,-540 103,-504 160,-504 160,-540"/>
<text text-anchor="middle" x="131.5" y="-518.3" font-family="Times,serif" font-size="14.00">cite.bib</text>
</g>
<!-- proj&#45;&gt;bib -->
<g id="edge2" class="edge"><title>proj&#45;&gt;bib</title>
<path fill="none" stroke="black" d="M36.5628,-324.045C54.5379,-361.924 96.2945,-449.918 117.557,-494.726"/>
<polygon fill="black" stroke="black" points="114.44,-496.321 121.889,-503.855 120.764,-493.32 114.44,-496.321"/>
</g>
<!-- bst -->
<g id="node6" class="node"><title>bst</title>
<polygon fill="none" stroke="green" points="173,-468 90,-468 90,-432 173,-432 173,-468"/>
<text text-anchor="middle" x="131.5" y="-446.3" font-family="Times,serif" font-size="14.00">template.bst</text>
</g>
<!-- proj&#45;&gt;bst -->
<g id="edge3" class="edge"><title>proj&#45;&gt;bst</title>
<path fill="none" stroke="black" d="M40.9817,-324.238C58.8496,-349.34 91.1359,-394.698 111.661,-423.533"/>
<polygon fill="black" stroke="black" points="108.973,-425.793 117.624,-431.91 114.676,-421.734 108.973,-425.793"/>
</g>
<!-- cls -->
<g id="node7" class="node"><title>cls</title>
<polygon fill="none" stroke="green" points="173,-396 90,-396 90,-360 173,-360 173,-396"/>
<text text-anchor="middle" x="131.5" y="-374.3" font-family="Times,serif" font-size="14.00">template.cls</text>
</g>
<!-- proj&#45;&gt;cls -->
<g id="edge4" class="edge"><title>proj&#45;&gt;cls</title>
<path fill="none" stroke="black" d="M53.8651,-324.169C66.7327,-333.207 82.4565,-344.252 96.3051,-353.98"/>
<polygon fill="black" stroke="black" points="94.4484,-356.953 104.643,-359.837 98.4721,-351.225 94.4484,-356.953"/>
</g>
<!-- sty -->
<g id="node8" class="node"><title>sty</title>
<polygon fill="none" stroke="green" points="173,-324 90,-324 90,-288 173,-288 173,-324"/>
<text text-anchor="middle" x="131.5" y="-302.3" font-family="Times,serif" font-size="14.00">template.sty</text>
</g>
<!-- proj&#45;&gt;sty -->
<g id="edge5" class="edge"><title>proj&#45;&gt;sty</title>
<path fill="none" stroke="black" d="M54.1303,-306C61.8892,-306 70.6685,-306 79.4404,-306"/>
<polygon fill="black" stroke="black" points="79.6729,-309.5 89.6729,-306 79.6729,-302.5 79.6729,-309.5"/>
</g>
<!-- fig -->
<g id="node9" class="node"><title>fig</title>
<polygon fill="none" stroke="red" points="158.5,-252 155.5,-256 134.5,-256 131.5,-252 104.5,-252 104.5,-216 158.5,-216 158.5,-252"/>
<text text-anchor="middle" x="131.5" y="-230.3" font-family="Times,serif" font-size="14.00">figs</text>
</g>
<!-- proj&#45;&gt;fig -->
<g id="edge6" class="edge"><title>proj&#45;&gt;fig</title>
<path fill="none" stroke="black" d="M53.8651,-287.831C66.7327,-278.793 82.4565,-267.748 96.3051,-258.02"/>
<polygon fill="black" stroke="black" points="98.4721,-260.775 104.643,-252.163 94.4484,-255.047 98.4721,-260.775"/>
</g>
<!-- sec -->
<g id="node10" class="node"><title>sec</title>
<polygon fill="none" stroke="red" points="158.5,-180 155.5,-184 134.5,-184 131.5,-180 104.5,-180 104.5,-144 158.5,-144 158.5,-180"/>
<text text-anchor="middle" x="131.5" y="-158.3" font-family="Times,serif" font-size="14.00">secs</text>
</g>
<!-- proj&#45;&gt;sec -->
<g id="edge7" class="edge"><title>proj&#45;&gt;sec</title>
<path fill="none" stroke="black" d="M40.9817,-287.762C58.8496,-262.66 91.1359,-217.302 111.661,-188.467"/>
<polygon fill="black" stroke="black" points="114.676,-190.266 117.624,-180.09 108.973,-186.207 114.676,-190.266"/>
</g>
<!-- build -->
<g id="node11" class="node"><title>build</title>
<polygon fill="none" stroke="blue" points="158.5,-108 155.5,-112 134.5,-112 131.5,-108 104.5,-108 104.5,-72 158.5,-72 158.5,-108"/>
<text text-anchor="middle" x="131.5" y="-86.3" font-family="Times,serif" font-size="14.00">build</text>
</g>
<!-- proj&#45;&gt;build -->
<g id="edge8" class="edge"><title>proj&#45;&gt;build</title>
<path fill="none" stroke="black" d="M36.5628,-287.955C54.5379,-250.076 96.2945,-162.082 117.557,-117.274"/>
<polygon fill="black" stroke="black" points="120.764,-118.68 121.889,-108.145 114.44,-115.679 120.764,-118.68"/>
</g>
<!-- gen -->
<g id="node12" class="node"><title>gen</title>
<polygon fill="none" stroke="blue" points="170,-36 93,-36 93,-0 170,-0 170,-36"/>
<text text-anchor="middle" x="131.5" y="-14.3" font-family="Times,serif" font-size="14.00">compile.sh</text>
</g>
<!-- proj&#45;&gt;gen -->
<g id="edge9" class="edge"><title>proj&#45;&gt;gen</title>
<path fill="none" stroke="black" d="M34.4118,-287.984C51.7768,-239.193 99.8078,-104.238 120.644,-45.6927"/>
<polygon fill="black" stroke="black" points="124.035,-46.6036 124.091,-36.0089 117.44,-44.2564 124.035,-46.6036"/>
</g>
<!-- info -->
<g id="node2" class="node"><title>info</title>
<polygon fill="none" stroke="blue" points="278.5,-216 219.5,-216 219.5,-180 278.5,-180 278.5,-216"/>
<text text-anchor="middle" x="249" y="-194.3" font-family="Times,serif" font-size="14.00">info.tex</text>
</g>
<!-- secs -->
<g id="node3" class="node"><title>secs</title>
<polygon fill="none" stroke="blue" points="289,-144 209,-144 209,-108 289,-108 289,-144"/>
<text text-anchor="middle" x="249" y="-122.3" font-family="Times,serif" font-size="14.00">sections.tex</text>
</g>
<!-- sec&#45;&gt;info -->
<g id="edge10" class="edge"><title>sec&#45;&gt;info</title>
<path fill="none" stroke="black" d="M158.709,-170.169C173.701,-174.842 192.784,-180.79 209.456,-185.986"/>
<polygon fill="black" stroke="black" points="208.879,-189.473 219.468,-189.107 210.962,-182.79 208.879,-189.473"/>
</g>
<!-- sec&#45;&gt;secs -->
<g id="edge11" class="edge"><title>sec&#45;&gt;secs</title>
<path fill="none" stroke="black" d="M158.709,-153.831C170.599,-150.125 185.062,-145.617 198.855,-141.318"/>
<polygon fill="black" stroke="black" points="200.228,-144.556 208.733,-138.239 198.145,-137.873 200.228,-144.556"/>
</g>
</g>
</svg>
