<?xml version="1.0" encoding="UTF-8" standalone="no"?>
<!DOCTYPE svg PUBLIC "-//W3C//DTD SVG 1.1//EN"
 "http://www.w3.org/Graphics/SVG/1.1/DTD/svg11.dtd">
<!-- Generated by graphviz version 2.38.0 (20140413.2041)
 -->
<!-- Title: %3 Pages: 1 -->
<svg width="779pt" height="188pt"
 viewBox="0.00 0.00 779.00 188.00" xmlns="http://www.w3.org/2000/svg" xmlns:xlink="http://www.w3.org/1999/xlink">
<g id="graph0" class="graph" transform="scale(1 1) rotate(0) translate(4 184)">
<title>%3</title>
<polygon fill="white" stroke="none" points="-4,4 -4,-184 775,-184 775,4 -4,4"/>
<!-- proj -->
<g id="node1" class="node"><title>proj</title>
<polygon fill="none" stroke="green" points="338.5,-180 335.5,-184 314.5,-184 311.5,-180 284.5,-180 284.5,-144 338.5,-144 338.5,-180"/>
<text text-anchor="middle" x="311.5" y="-158.3" font-family="Times,serif" font-size="14.00">project</text>
</g>
<!-- main -->
<g id="node4" class="node"><title>main</title>
<polygon fill="none" stroke="red" points="65,-108 0,-108 0,-72 65,-72 65,-108"/>
<text text-anchor="middle" x="32.5" y="-86.3" font-family="Times,serif" font-size="14.00">main.tex</text>
</g>
<!-- proj&#45;&gt;main -->
<g id="edge1" class="edge"><title>proj&#45;&gt;main</title>
<path fill="none" stroke="black" d="M284.495,-154.225C235.859,-142.022 133.202,-116.266 75.0403,-101.673"/>
<polygon fill="black" stroke="black" points="75.6175,-98.2096 65.0664,-99.1708 73.914,-104.999 75.6175,-98.2096"/>
</g>
<!-- bib -->
<g id="node5" class="node"><title>bib</title>
<polygon fill="none" stroke="red" points="158,-108 101,-108 101,-72 158,-72 158,-108"/>
<text text-anchor="middle" x="129.5" y="-86.3" font-family="Times,serif" font-size="14.00">cite.bib</text>
</g>
<!-- proj&#45;&gt;bib -->
<g id="edge2" class="edge"><title>proj&#45;&gt;bib</title>
<path fill="none" stroke="black" d="M284.253,-150.52C253.253,-138.597 202.418,-119.045 167.525,-105.625"/>
<polygon fill="black" stroke="black" points="168.726,-102.337 158.136,-102.014 166.213,-108.87 168.726,-102.337"/>
</g>
<!-- fig -->
<g id="node9" class="node"><title>fig</title>
<polygon fill="none" stroke="red" points="248.5,-108 245.5,-112 224.5,-112 221.5,-108 194.5,-108 194.5,-72 248.5,-72 248.5,-108"/>
<text text-anchor="middle" x="221.5" y="-86.3" font-family="Times,serif" font-size="14.00">figs</text>
</g>
<!-- proj&#45;&gt;fig -->
<g id="edge3" class="edge"><title>proj&#45;&gt;fig</title>
<path fill="none" stroke="black" d="M289.253,-143.697C277.918,-134.881 263.97,-124.032 251.681,-114.474"/>
<polygon fill="black" stroke="black" points="253.534,-111.481 243.491,-108.104 249.236,-117.007 253.534,-111.481"/>
</g>
<!-- sec -->
<g id="node10" class="node"><title>sec</title>
<polygon fill="none" stroke="red" points="338.5,-108 335.5,-112 314.5,-112 311.5,-108 284.5,-108 284.5,-72 338.5,-72 338.5,-108"/>
<text text-anchor="middle" x="311.5" y="-86.3" font-family="Times,serif" font-size="14.00">secs</text>
</g>
<!-- proj&#45;&gt;sec -->
<g id="edge4" class="edge"><title>proj&#45;&gt;sec</title>
<path fill="none" stroke="black" d="M311.5,-143.697C311.5,-135.983 311.5,-126.712 311.5,-118.112"/>
<polygon fill="black" stroke="black" points="315,-118.104 311.5,-108.104 308,-118.104 315,-118.104"/>
</g>
<!-- build -->
<g id="node11" class="node"><title>build</title>
<polygon fill="none" stroke="blue" points="428.5,-108 425.5,-112 404.5,-112 401.5,-108 374.5,-108 374.5,-72 428.5,-72 428.5,-108"/>
<text text-anchor="middle" x="401.5" y="-86.3" font-family="Times,serif" font-size="14.00">build</text>
</g>
<!-- proj&#45;&gt;build -->
<g id="edge5" class="edge"><title>proj&#45;&gt;build</title>
<path fill="none" stroke="black" d="M333.747,-143.697C345.082,-134.881 359.03,-124.032 371.319,-114.474"/>
<polygon fill="black" stroke="black" points="373.764,-117.007 379.509,-108.104 369.466,-111.481 373.764,-117.007"/>
</g>
<!-- gen -->
<g id="node12" class="node"><title>gen</title>
<polygon fill="none" stroke="blue" points="542,-108 465,-108 465,-72 542,-72 542,-108"/>
<text text-anchor="middle" x="503.5" y="-86.3" font-family="Times,serif" font-size="14.00">compile.sh</text>
</g>
<!-- proj&#45;&gt;gen -->
<g id="edge6" class="edge"><title>proj&#45;&gt;gen</title>
<path fill="none" stroke="black" d="M338.602,-151.119C368.871,-140.083 418.457,-122.005 455.361,-108.551"/>
<polygon fill="black" stroke="black" points="456.732,-111.776 464.928,-105.063 454.334,-105.2 456.732,-111.776"/>
</g>
<!-- temp -->
<g id="node13" class="node"><title>temp</title>
<polygon fill="none" stroke="black" points="642.5,-108 578.5,-108 578.5,-72 642.5,-72 642.5,-108"/>
<text text-anchor="middle" x="610.5" y="-86.3" font-family="Times,serif" font-size="14.00">template</text>
</g>
<!-- proj&#45;&gt;temp -->
<g id="edge7" class="edge"><title>proj&#45;&gt;temp</title>
<path fill="none" stroke="black" d="M338.562,-154.665C390.852,-142.423 506.101,-115.441 568.457,-100.843"/>
<polygon fill="black" stroke="black" points="569.421,-104.212 578.36,-98.5245 567.825,-97.3962 569.421,-104.212"/>
</g>
<!-- info -->
<g id="node2" class="node"><title>info</title>
<polygon fill="none" stroke="blue" points="266,-36 207,-36 207,-0 266,-0 266,-36"/>
<text text-anchor="middle" x="236.5" y="-14.3" font-family="Times,serif" font-size="14.00">info.tex</text>
</g>
<!-- secs -->
<g id="node3" class="node"><title>secs</title>
<polygon fill="none" stroke="blue" points="382.5,-36 302.5,-36 302.5,-0 382.5,-0 382.5,-36"/>
<text text-anchor="middle" x="342.5" y="-14.3" font-family="Times,serif" font-size="14.00">sections.tex</text>
</g>
<!-- bst -->
<g id="node6" class="node"><title>bst</title>
<polygon fill="none" stroke="green" points="533,-36 450,-36 450,-0 533,-0 533,-36"/>
<text text-anchor="middle" x="491.5" y="-14.3" font-family="Times,serif" font-size="14.00">template.bst</text>
</g>
<!-- cls -->
<g id="node7" class="node"><title>cls</title>
<polygon fill="none" stroke="green" points="652,-36 569,-36 569,-0 652,-0 652,-36"/>
<text text-anchor="middle" x="610.5" y="-14.3" font-family="Times,serif" font-size="14.00">template.cls</text>
</g>
<!-- sty -->
<g id="node8" class="node"><title>sty</title>
<polygon fill="none" stroke="green" points="771,-36 688,-36 688,-0 771,-0 771,-36"/>
<text text-anchor="middle" x="729.5" y="-14.3" font-family="Times,serif" font-size="14.00">template.sty</text>
</g>
<!-- sec&#45;&gt;info -->
<g id="edge11" class="edge"><title>sec&#45;&gt;info</title>
<path fill="none" stroke="black" d="M292.961,-71.6966C283.697,-63.0503 272.338,-52.4486 262.243,-43.027"/>
<polygon fill="black" stroke="black" points="264.525,-40.3688 254.826,-36.1043 259.749,-45.4863 264.525,-40.3688"/>
</g>
<!-- sec&#45;&gt;secs -->
<g id="edge12" class="edge"><title>sec&#45;&gt;secs</title>
<path fill="none" stroke="black" d="M319.163,-71.6966C322.692,-63.7284 326.956,-54.0995 330.869,-45.2641"/>
<polygon fill="black" stroke="black" points="334.076,-46.6651 334.925,-36.1043 327.676,-43.8306 334.076,-46.6651"/>
</g>
<!-- temp&#45;&gt;bst -->
<g id="edge8" class="edge"><title>temp&#45;&gt;bst</title>
<path fill="none" stroke="black" d="M581.389,-71.8761C565.83,-62.7236 546.481,-51.3417 529.724,-41.485"/>
<polygon fill="black" stroke="black" points="531.117,-38.2432 520.723,-36.1898 527.567,-44.2768 531.117,-38.2432"/>
</g>
<!-- temp&#45;&gt;cls -->
<g id="edge9" class="edge"><title>temp&#45;&gt;cls</title>
<path fill="none" stroke="black" d="M610.5,-71.6966C610.5,-63.9827 610.5,-54.7125 610.5,-46.1124"/>
<polygon fill="black" stroke="black" points="614,-46.1043 610.5,-36.1043 607,-46.1044 614,-46.1043"/>
</g>
<!-- temp&#45;&gt;sty -->
<g id="edge10" class="edge"><title>temp&#45;&gt;sty</title>
<path fill="none" stroke="black" d="M639.611,-71.8761C655.17,-62.7236 674.519,-51.3417 691.276,-41.485"/>
<polygon fill="black" stroke="black" points="693.433,-44.2768 700.277,-36.1898 689.883,-38.2432 693.433,-44.2768"/>
</g>
</g>
</svg>
