<?xml version="1.0" encoding="UTF-8" standalone="no"?>
<!DOCTYPE svg PUBLIC "-//W3C//DTD SVG 1.1//EN"
 "http://www.w3.org/Graphics/SVG/1.1/DTD/svg11.dtd">
<!-- Generated by graphviz version 2.38.0 (20140413.2041)
 -->
<!-- Title: %3 Pages: 1 -->
<svg width="239pt" height="404pt"
 viewBox="0.00 0.00 239.00 404.00" xmlns="http://www.w3.org/2000/svg" xmlns:xlink="http://www.w3.org/1999/xlink">
<g id="graph0" class="graph" transform="scale(1 1) rotate(0) translate(4 400)">
<title>%3</title>
<polygon fill="white" stroke="none" points="-4,4 -4,-400 235,-400 235,4 -4,4"/>
<!-- temp -->
<g id="node1" class="node"><title>temp</title>
<polygon fill="none" stroke="green" points="84,-180 7.10543e-15,-180 7.10543e-15,-144 84,-144 84,-180"/>
<text text-anchor="middle" x="42" y="-158.3" font-family="Times,serif" font-size="14.00">template.tex</text>
</g>
<!-- info -->
<g id="node2" class="node"><title>info</title>
<polygon fill="none" stroke="gold" points="219,-324 160,-324 160,-288 219,-288 219,-324"/>
<text text-anchor="middle" x="189.5" y="-302.3" font-family="Times,serif" font-size="14.00">info.tex</text>
</g>
<!-- temp&#45;&gt;info -->
<g id="edge1" class="edge"><title>temp&#45;&gt;info</title>
<path fill="none" stroke="black" d="M61.4277,-180.238C87.1194,-205.665 133.811,-251.875 162.879,-280.643"/>
<polygon fill="black" stroke="black" points="160.652,-283.364 170.222,-287.91 165.576,-278.388 160.652,-283.364"/>
<text text-anchor="middle" x="116" y="-255.8" font-family="Times,serif" font-size="14.00">input</text>
</g>
<!-- main -->
<g id="node3" class="node"><title>main</title>
<polygon fill="none" stroke="red" points="222,-252 157,-252 157,-216 222,-216 222,-252"/>
<text text-anchor="middle" x="189.5" y="-230.3" font-family="Times,serif" font-size="14.00">main.tex</text>
</g>
<!-- temp&#45;&gt;main -->
<g id="edge2" class="edge"><title>temp&#45;&gt;main</title>
<path fill="none" stroke="black" d="M79.7158,-180.169C100.396,-190.402 126.273,-203.207 147.6,-213.761"/>
<polygon fill="black" stroke="black" points="146.223,-216.984 156.738,-218.283 149.328,-210.711 146.223,-216.984"/>
<text text-anchor="middle" x="116" y="-207.8" font-family="Times,serif" font-size="14.00">input</text>
</g>
<!-- bib -->
<g id="node4" class="node"><title>bib</title>
<polygon fill="none" stroke="red" points="218,-180 161,-180 161,-144 218,-144 218,-180"/>
<text text-anchor="middle" x="189.5" y="-158.3" font-family="Times,serif" font-size="14.00">cite.bib</text>
</g>
<!-- temp&#45;&gt;bib -->
<g id="edge3" class="edge"><title>temp&#45;&gt;bib</title>
<path fill="none" stroke="black" d="M84.3053,-162C105.196,-162 130.371,-162 150.742,-162"/>
<polygon fill="black" stroke="black" points="150.908,-165.5 160.908,-162 150.908,-158.5 150.908,-165.5"/>
<text text-anchor="middle" x="116" y="-165.8" font-family="Times,serif" font-size="14.00">input</text>
</g>
<!-- bst -->
<g id="node5" class="node"><title>bst</title>
<polygon fill="none" stroke="green" points="231,-108 148,-108 148,-72 231,-72 231,-108"/>
<text text-anchor="middle" x="189.5" y="-86.3" font-family="Times,serif" font-size="14.00">template.bst</text>
</g>
<!-- temp&#45;&gt;bst -->
<g id="edge4" class="edge"><title>temp&#45;&gt;bst</title>
<path fill="none" stroke="black" d="M79.7158,-143.831C98.9161,-134.33 122.596,-122.612 142.956,-112.537"/>
<polygon fill="black" stroke="black" points="144.638,-115.61 152.048,-108.038 141.533,-109.336 144.638,-115.61"/>
<text text-anchor="middle" x="116" y="-135.8" font-family="Times,serif" font-size="14.00">input</text>
</g>
<!-- sty -->
<g id="node6" class="node"><title>sty</title>
<polygon fill="none" stroke="black" points="231,-36 148,-36 148,-0 231,-0 231,-36"/>
<text text-anchor="middle" x="189.5" y="-14.3" font-family="Times,serif" font-size="14.00">template.sty</text>
</g>
<!-- temp&#45;&gt;sty -->
<g id="edge5" class="edge"><title>temp&#45;&gt;sty</title>
<path fill="none" stroke="black" d="M61.4277,-143.762C87.1194,-118.335 133.811,-72.1253 162.879,-43.3569"/>
<polygon fill="black" stroke="black" points="165.576,-45.6117 170.222,-36.0896 160.652,-40.6363 165.576,-45.6117"/>
<text text-anchor="middle" x="116" y="-98.8" font-family="Times,serif" font-size="14.00">input</text>
</g>
<!-- fig -->
<g id="node7" class="node"><title>fig</title>
<polygon fill="none" stroke="red" points="69,-252 15,-252 15,-216 69,-216 69,-252"/>
<text text-anchor="middle" x="42" y="-230.3" font-family="Times,serif" font-size="14.00">Figs</text>
</g>
<!-- build -->
<g id="node8" class="node"><title>build</title>
<polygon fill="none" stroke="red" points="69,-324 15,-324 15,-288 69,-288 69,-324"/>
<text text-anchor="middle" x="42" y="-302.3" font-family="Times,serif" font-size="14.00">build</text>
</g>
<!-- gen -->
<g id="node9" class="node"><title>gen</title>
<polygon fill="none" stroke="blue" points="80.5,-396 3.5,-396 3.5,-360 80.5,-360 80.5,-396"/>
<text text-anchor="middle" x="42" y="-374.3" font-family="Times,serif" font-size="14.00">compile.sh</text>
</g>
</g>
</svg>
