<?xml version="1.0" encoding="UTF-8" standalone="no"?>
<!DOCTYPE svg PUBLIC "-//W3C//DTD SVG 1.1//EN"
 "http://www.w3.org/Graphics/SVG/1.1/DTD/svg11.dtd">
<!-- Generated by graphviz version 2.38.0 (20140413.2041)
 -->
<!-- Title: %3 Pages: 1 -->
<svg width="305pt" height="548pt"
 viewBox="0.00 0.00 305.00 548.00" xmlns="http://www.w3.org/2000/svg" xmlns:xlink="http://www.w3.org/1999/xlink">
<g id="graph0" class="graph" transform="scale(1 1) rotate(0) translate(4 544)">
<title>%3</title>
<polygon fill="white" stroke="none" points="-4,4 -4,-544 301,-544 301,4 -4,4"/>
<!-- proj -->
<g id="node1" class="node"><title>proj</title>
<polygon fill="none" stroke="green" points="68.5,-288 65.5,-292 44.5,-292 41.5,-288 14.5,-288 14.5,-252 68.5,-252 68.5,-288"/>
<text text-anchor="middle" x="41.5" y="-266.3" font-family="Times,serif" font-size="14.00">project</text>
</g>
<!-- main -->
<g id="node3" class="node"><title>main</title>
<polygon fill="none" stroke="red" points="193,-540 128,-540 128,-504 193,-504 193,-540"/>
<text text-anchor="middle" x="160.5" y="-518.3" font-family="Times,serif" font-size="14.00">main.tex</text>
</g>
<!-- proj&#45;&gt;main -->
<g id="edge1" class="edge"><title>proj&#45;&gt;main</title>
<path fill="none" stroke="black" d="M50.9144,-288.123C71.1455,-331.698 122.617,-442.56 146.704,-494.44"/>
<polygon fill="black" stroke="black" points="143.619,-496.106 151.005,-503.702 149.968,-493.158 143.619,-496.106"/>
</g>
<!-- bib -->
<g id="node4" class="node"><title>bib</title>
<polygon fill="none" stroke="red" points="189,-468 132,-468 132,-432 189,-432 189,-468"/>
<text text-anchor="middle" x="160.5" y="-446.3" font-family="Times,serif" font-size="14.00">cite.bib</text>
</g>
<!-- proj&#45;&gt;bib -->
<g id="edge2" class="edge"><title>proj&#45;&gt;bib</title>
<path fill="none" stroke="black" d="M54.3625,-288.25C75.0889,-320.137 117.979,-386.122 142.082,-423.203"/>
<polygon fill="black" stroke="black" points="139.396,-425.492 147.78,-431.969 145.265,-421.677 139.396,-425.492"/>
</g>
<!-- bst -->
<g id="node5" class="node"><title>bst</title>
<polygon fill="none" stroke="green" points="202,-396 119,-396 119,-360 202,-360 202,-396"/>
<text text-anchor="middle" x="160.5" y="-374.3" font-family="Times,serif" font-size="14.00">template.bst</text>
</g>
<!-- proj&#45;&gt;bst -->
<g id="edge3" class="edge"><title>proj&#45;&gt;bst</title>
<path fill="none" stroke="black" d="M62.0832,-288.077C81.3185,-305.832 110.827,-333.071 132.328,-352.918"/>
<polygon fill="black" stroke="black" points="130.131,-355.653 139.853,-359.864 134.879,-350.51 130.131,-355.653"/>
</g>
<!-- sty -->
<g id="node7" class="node"><title>sty</title>
<polygon fill="none" stroke="green" points="202,-324 119,-324 119,-288 202,-288 202,-324"/>
<text text-anchor="middle" x="160.5" y="-302.3" font-family="Times,serif" font-size="14.00">template.sty</text>
</g>
<!-- proj&#45;&gt;sty -->
<g id="edge4" class="edge"><title>proj&#45;&gt;sty</title>
<path fill="none" stroke="black" d="M68.7571,-278.079C80.576,-281.716 94.9483,-286.138 108.737,-290.381"/>
<polygon fill="black" stroke="black" points="108.042,-293.829 118.629,-293.424 110.101,-287.138 108.042,-293.829"/>
</g>
<!-- fig -->
<g id="node8" class="node"><title>fig</title>
<polygon fill="none" stroke="red" points="187.5,-252 184.5,-256 163.5,-256 160.5,-252 133.5,-252 133.5,-216 187.5,-216 187.5,-252"/>
<text text-anchor="middle" x="160.5" y="-230.3" font-family="Times,serif" font-size="14.00">figs</text>
</g>
<!-- proj&#45;&gt;fig -->
<g id="edge5" class="edge"><title>proj&#45;&gt;fig</title>
<path fill="none" stroke="black" d="M68.7571,-261.921C84.8647,-256.965 105.715,-250.549 123.367,-245.118"/>
<polygon fill="black" stroke="black" points="124.802,-248.338 133.331,-242.052 122.743,-241.648 124.802,-248.338"/>
</g>
<!-- sec -->
<g id="node9" class="node"><title>sec</title>
<polygon fill="none" stroke="red" points="187.5,-180 184.5,-184 163.5,-184 160.5,-180 133.5,-180 133.5,-144 187.5,-144 187.5,-180"/>
<text text-anchor="middle" x="160.5" y="-158.3" font-family="Times,serif" font-size="14.00">secs</text>
</g>
<!-- proj&#45;&gt;sec -->
<g id="edge6" class="edge"><title>proj&#45;&gt;sec</title>
<path fill="none" stroke="black" d="M62.0832,-251.923C81.3185,-234.168 110.827,-206.929 132.328,-187.082"/>
<polygon fill="black" stroke="black" points="134.879,-189.49 139.853,-180.136 130.131,-184.347 134.879,-189.49"/>
</g>
<!-- build -->
<g id="node10" class="node"><title>build</title>
<polygon fill="none" stroke="blue" points="187.5,-108 184.5,-112 163.5,-112 160.5,-108 133.5,-108 133.5,-72 187.5,-72 187.5,-108"/>
<text text-anchor="middle" x="160.5" y="-86.3" font-family="Times,serif" font-size="14.00">build</text>
</g>
<!-- proj&#45;&gt;build -->
<g id="edge7" class="edge"><title>proj&#45;&gt;build</title>
<path fill="none" stroke="black" d="M54.3625,-251.75C75.0889,-219.863 117.979,-153.878 142.082,-116.797"/>
<polygon fill="black" stroke="black" points="145.265,-118.323 147.78,-108.031 139.396,-114.508 145.265,-118.323"/>
</g>
<!-- gen -->
<g id="node11" class="node"><title>gen</title>
<polygon fill="none" stroke="blue" points="199,-36 122,-36 122,-0 199,-0 199,-36"/>
<text text-anchor="middle" x="160.5" y="-14.3" font-family="Times,serif" font-size="14.00">compile.sh</text>
</g>
<!-- proj&#45;&gt;gen -->
<g id="edge8" class="edge"><title>proj&#45;&gt;gen</title>
<path fill="none" stroke="black" d="M50.9144,-251.877C71.1455,-208.302 122.617,-97.4405 146.704,-45.5598"/>
<polygon fill="black" stroke="black" points="149.968,-46.8416 151.005,-36.2976 143.619,-43.8938 149.968,-46.8416"/>
</g>
<!-- info -->
<g id="node2" class="node"><title>info</title>
<polygon fill="none" stroke="gold" points="297,-180 238,-180 238,-144 297,-144 297,-180"/>
<text text-anchor="middle" x="267.5" y="-158.3" font-family="Times,serif" font-size="14.00">info.tex</text>
</g>
<!-- cls -->
<g id="node6" class="node"><title>cls</title>
<polygon fill="none" stroke="green" points="83,-360 0,-360 0,-324 83,-324 83,-360"/>
<text text-anchor="middle" x="41.5" y="-338.3" font-family="Times,serif" font-size="14.00">template.cls</text>
</g>
<!-- sec&#45;&gt;info -->
<g id="edge9" class="edge"><title>sec&#45;&gt;info</title>
<path fill="none" stroke="black" d="M187.725,-162C199.708,-162 214.15,-162 227.379,-162"/>
<polygon fill="black" stroke="black" points="227.657,-165.5 237.657,-162 227.657,-158.5 227.657,-165.5"/>
</g>
</g>
</svg>
