<?xml version="1.0" encoding="UTF-8" standalone="no"?>
<!DOCTYPE svg PUBLIC "-//W3C//DTD SVG 1.1//EN"
 "http://www.w3.org/Graphics/SVG/1.1/DTD/svg11.dtd">
<!-- Generated by graphviz version 2.38.0 (20140413.2041)
 -->
<!-- Title: %3 Pages: 1 -->
<svg width="209pt" height="584pt"
 viewBox="0.00 0.00 209.00 584.00" xmlns="http://www.w3.org/2000/svg" xmlns:xlink="http://www.w3.org/1999/xlink">
<g id="graph0" class="graph" transform="scale(1 1) rotate(0) translate(4 580)">
<title>%3</title>
<polygon fill="white" stroke="none" points="-4,4 -4,-580 205,-580 205,4 -4,4"/>
<!-- proj -->
<g id="node1" class="node"><title>proj</title>
<polygon fill="none" stroke="green" points="68.5,-72 65.5,-76 44.5,-76 41.5,-72 14.5,-72 14.5,-36 68.5,-36 68.5,-72"/>
<text text-anchor="middle" x="41.5" y="-50.3" font-family="Times,serif" font-size="14.00">project</text>
</g>
<!-- fig -->
<g id="node7" class="node"><title>fig</title>
<polygon fill="none" stroke="red" points="201,-108 198,-112 177,-112 174,-108 147,-108 147,-72 201,-72 201,-108"/>
<text text-anchor="middle" x="174" y="-86.3" font-family="Times,serif" font-size="14.00">figs</text>
</g>
<!-- proj&#45;&gt;fig -->
<g id="edge1" class="edge"><title>proj&#45;&gt;fig</title>
<path fill="none" stroke="black" d="M68.595,-61.1986C88.2438,-66.619 115.41,-74.113 137.106,-80.0981"/>
<polygon fill="black" stroke="black" points="136.38,-83.5285 146.95,-82.8139 138.241,-76.7805 136.38,-83.5285"/>
<text text-anchor="middle" x="115" y="-80.8" font-family="Times,serif" font-size="14.00">input</text>
</g>
<!-- sec -->
<g id="node8" class="node"><title>sec</title>
<polygon fill="none" stroke="red" points="201,-36 198,-40 177,-40 174,-36 147,-36 147,-0 201,-0 201,-36"/>
<text text-anchor="middle" x="174" y="-14.3" font-family="Times,serif" font-size="14.00">secs</text>
</g>
<!-- proj&#45;&gt;sec -->
<g id="edge2" class="edge"><title>proj&#45;&gt;sec</title>
<path fill="none" stroke="black" d="M68.595,-46.8014C88.2438,-41.381 115.41,-33.887 137.106,-27.9019"/>
<polygon fill="black" stroke="black" points="138.241,-31.2195 146.95,-25.1861 136.38,-24.4715 138.241,-31.2195"/>
<text text-anchor="middle" x="115" y="-40.8" font-family="Times,serif" font-size="14.00">input</text>
</g>
<!-- info -->
<g id="node2" class="node"><title>info</title>
<polygon fill="none" stroke="gold" points="71,-144 12,-144 12,-108 71,-108 71,-144"/>
<text text-anchor="middle" x="41.5" y="-122.3" font-family="Times,serif" font-size="14.00">info.tex</text>
</g>
<!-- main -->
<g id="node3" class="node"><title>main</title>
<polygon fill="none" stroke="red" points="74,-216 9,-216 9,-180 74,-180 74,-216"/>
<text text-anchor="middle" x="41.5" y="-194.3" font-family="Times,serif" font-size="14.00">main.tex</text>
</g>
<!-- bib -->
<g id="node4" class="node"><title>bib</title>
<polygon fill="none" stroke="red" points="70,-288 13,-288 13,-252 70,-252 70,-288"/>
<text text-anchor="middle" x="41.5" y="-266.3" font-family="Times,serif" font-size="14.00">cite.bib</text>
</g>
<!-- bst -->
<g id="node5" class="node"><title>bst</title>
<polygon fill="none" stroke="green" points="83,-360 0,-360 0,-324 83,-324 83,-360"/>
<text text-anchor="middle" x="41.5" y="-338.3" font-family="Times,serif" font-size="14.00">template.bst</text>
</g>
<!-- sty -->
<g id="node6" class="node"><title>sty</title>
<polygon fill="none" stroke="green" points="83,-432 0,-432 0,-396 83,-396 83,-432"/>
<text text-anchor="middle" x="41.5" y="-410.3" font-family="Times,serif" font-size="14.00">template.sty</text>
</g>
<!-- build -->
<g id="node9" class="node"><title>build</title>
<polygon fill="none" stroke="blue" points="68.5,-504 65.5,-508 44.5,-508 41.5,-504 14.5,-504 14.5,-468 68.5,-468 68.5,-504"/>
<text text-anchor="middle" x="41.5" y="-482.3" font-family="Times,serif" font-size="14.00">build</text>
</g>
<!-- gen -->
<g id="node10" class="node"><title>gen</title>
<polygon fill="none" stroke="blue" points="80,-576 3,-576 3,-540 80,-540 80,-576"/>
<text text-anchor="middle" x="41.5" y="-554.3" font-family="Times,serif" font-size="14.00">compile.sh</text>
</g>
</g>
</svg>
