<?xml version="1.0" encoding="UTF-8" standalone="no"?>
<!DOCTYPE svg PUBLIC "-//W3C//DTD SVG 1.1//EN"
 "http://www.w3.org/Graphics/SVG/1.1/DTD/svg11.dtd">
<!-- Generated by graphviz version 2.38.0 (20140413.2041)
 -->
<!-- Title: %3 Pages: 1 -->
<svg width="276pt" height="548pt"
 viewBox="0.00 0.00 276.00 548.00" xmlns="http://www.w3.org/2000/svg" xmlns:xlink="http://www.w3.org/1999/xlink">
<g id="graph0" class="graph" transform="scale(1 1) rotate(0) translate(4 544)">
<title>%3</title>
<polygon fill="white" stroke="none" points="-4,4 -4,-544 272,-544 272,4 -4,4"/>
<!-- proj -->
<g id="node1" class="node"><title>proj</title>
<polygon fill="none" stroke="green" points="54,-288 51,-292 30,-292 27,-288 0,-288 0,-252 54,-252 54,-288"/>
<text text-anchor="middle" x="27" y="-266.3" font-family="Times,serif" font-size="14.00">project</text>
</g>
<!-- main -->
<g id="node3" class="node"><title>main</title>
<polygon fill="none" stroke="red" points="164,-540 99,-540 99,-504 164,-504 164,-540"/>
<text text-anchor="middle" x="131.5" y="-518.3" font-family="Times,serif" font-size="14.00">main.tex</text>
</g>
<!-- proj&#45;&gt;main -->
<g id="edge1" class="edge"><title>proj&#45;&gt;main</title>
<path fill="none" stroke="black" d="M35.3715,-288.123C53.0585,-331.607 98.0005,-442.099 119.158,-494.116"/>
<polygon fill="black" stroke="black" points="116.048,-495.758 123.058,-503.702 122.532,-493.121 116.048,-495.758"/>
</g>
<!-- bib -->
<g id="node4" class="node"><title>bib</title>
<polygon fill="none" stroke="red" points="160,-468 103,-468 103,-432 160,-432 160,-468"/>
<text text-anchor="middle" x="131.5" y="-446.3" font-family="Times,serif" font-size="14.00">cite.bib</text>
</g>
<!-- proj&#45;&gt;bib -->
<g id="edge2" class="edge"><title>proj&#45;&gt;bib</title>
<path fill="none" stroke="black" d="M38.3923,-288.25C56.5501,-320.137 94.125,-386.122 115.241,-423.203"/>
<polygon fill="black" stroke="black" points="112.243,-425.011 120.233,-431.969 118.326,-421.548 112.243,-425.011"/>
</g>
<!-- bst -->
<g id="node5" class="node"><title>bst</title>
<polygon fill="none" stroke="green" points="173,-396 90,-396 90,-360 173,-360 173,-396"/>
<text text-anchor="middle" x="131.5" y="-374.3" font-family="Times,serif" font-size="14.00">template.bst</text>
</g>
<!-- proj&#45;&gt;bst -->
<g id="edge3" class="edge"><title>proj&#45;&gt;bst</title>
<path fill="none" stroke="black" d="M45.3877,-288.321C62.1282,-305.96 87.5937,-332.791 106.309,-352.511"/>
<polygon fill="black" stroke="black" points="103.946,-355.106 113.369,-359.95 109.024,-350.287 103.946,-355.106"/>
</g>
<!-- sty -->
<g id="node6" class="node"><title>sty</title>
<polygon fill="none" stroke="green" points="173,-324 90,-324 90,-288 173,-288 173,-324"/>
<text text-anchor="middle" x="131.5" y="-302.3" font-family="Times,serif" font-size="14.00">template.sty</text>
</g>
<!-- proj&#45;&gt;sty -->
<g id="edge4" class="edge"><title>proj&#45;&gt;sty</title>
<path fill="none" stroke="black" d="M54.1303,-279.177C62.0578,-281.962 71.0507,-285.12 80.0125,-288.268"/>
<polygon fill="black" stroke="black" points="79.0781,-291.649 89.6729,-291.661 81.3977,-285.045 79.0781,-291.649"/>
</g>
<!-- fig -->
<g id="node7" class="node"><title>fig</title>
<polygon fill="none" stroke="red" points="158.5,-252 155.5,-256 134.5,-256 131.5,-252 104.5,-252 104.5,-216 158.5,-216 158.5,-252"/>
<text text-anchor="middle" x="131.5" y="-230.3" font-family="Times,serif" font-size="14.00">figs</text>
</g>
<!-- proj&#45;&gt;fig -->
<g id="edge5" class="edge"><title>proj&#45;&gt;fig</title>
<path fill="none" stroke="black" d="M54.1303,-260.823C66.4192,-256.506 81.2681,-251.291 94.5927,-246.611"/>
<polygon fill="black" stroke="black" points="96.1423,-249.777 104.417,-243.161 93.8226,-243.172 96.1423,-249.777"/>
</g>
<!-- sec -->
<g id="node8" class="node"><title>sec</title>
<polygon fill="none" stroke="red" points="158.5,-180 155.5,-184 134.5,-184 131.5,-180 104.5,-180 104.5,-144 158.5,-144 158.5,-180"/>
<text text-anchor="middle" x="131.5" y="-158.3" font-family="Times,serif" font-size="14.00">secs</text>
</g>
<!-- proj&#45;&gt;sec -->
<g id="edge6" class="edge"><title>proj&#45;&gt;sec</title>
<path fill="none" stroke="black" d="M45.3877,-251.679C62.1282,-234.04 87.5937,-207.209 106.309,-187.489"/>
<polygon fill="black" stroke="black" points="109.024,-189.713 113.369,-180.05 103.946,-184.894 109.024,-189.713"/>
</g>
<!-- build -->
<g id="node9" class="node"><title>build</title>
<polygon fill="none" stroke="blue" points="158.5,-108 155.5,-112 134.5,-112 131.5,-108 104.5,-108 104.5,-72 158.5,-72 158.5,-108"/>
<text text-anchor="middle" x="131.5" y="-86.3" font-family="Times,serif" font-size="14.00">build</text>
</g>
<!-- proj&#45;&gt;build -->
<g id="edge7" class="edge"><title>proj&#45;&gt;build</title>
<path fill="none" stroke="black" d="M38.3923,-251.75C56.5501,-219.863 94.125,-153.878 115.241,-116.797"/>
<polygon fill="black" stroke="black" points="118.326,-118.452 120.233,-108.031 112.243,-114.989 118.326,-118.452"/>
</g>
<!-- gen -->
<g id="node10" class="node"><title>gen</title>
<polygon fill="none" stroke="blue" points="170,-36 93,-36 93,-0 170,-0 170,-36"/>
<text text-anchor="middle" x="131.5" y="-14.3" font-family="Times,serif" font-size="14.00">compile.sh</text>
</g>
<!-- proj&#45;&gt;gen -->
<g id="edge8" class="edge"><title>proj&#45;&gt;gen</title>
<path fill="none" stroke="black" d="M35.3715,-251.877C53.0585,-208.393 98.0005,-97.9011 119.158,-45.8842"/>
<polygon fill="black" stroke="black" points="122.532,-46.8794 123.058,-36.2976 116.048,-44.242 122.532,-46.8794"/>
</g>
<!-- info -->
<g id="node2" class="node"><title>info</title>
<polygon fill="none" stroke="gold" points="268,-180 209,-180 209,-144 268,-144 268,-180"/>
<text text-anchor="middle" x="238.5" y="-158.3" font-family="Times,serif" font-size="14.00">info.tex</text>
</g>
<!-- sec&#45;&gt;info -->
<g id="edge9" class="edge"><title>sec&#45;&gt;info</title>
<path fill="none" stroke="black" d="M158.725,-162C170.708,-162 185.15,-162 198.379,-162"/>
<polygon fill="black" stroke="black" points="198.657,-165.5 208.657,-162 198.657,-158.5 198.657,-165.5"/>
</g>
</g>
</svg>
