<?xml version="1.0" encoding="UTF-8" standalone="no"?>
<!DOCTYPE svg PUBLIC "-//W3C//DTD SVG 1.1//EN"
 "http://www.w3.org/Graphics/SVG/1.1/DTD/svg11.dtd">
<!-- Generated by graphviz version 2.38.0 (20140413.2041)
 -->
<!-- Title: %3 Pages: 1 -->
<svg width="380pt" height="111pt"
 viewBox="0.00 0.00 380.00 111.00" xmlns="http://www.w3.org/2000/svg" xmlns:xlink="http://www.w3.org/1999/xlink">
<g id="graph0" class="graph" transform="scale(1 1) rotate(0) translate(4 107)">
<title>%3</title>
<polygon fill="white" stroke="none" points="-4,4 -4,-107 376,-107 376,4 -4,4"/>
<!-- temp -->
<g id="node1" class="node"><title>temp</title>
<polygon fill="none" stroke="black" points="217.5,-103 133.5,-103 133.5,-67 217.5,-67 217.5,-103"/>
<text text-anchor="middle" x="175.5" y="-81.3" font-family="Times,serif" font-size="14.00">template.tex</text>
</g>
<!-- info -->
<g id="node2" class="node"><title>info</title>
<polygon fill="none" stroke="green" points="59,-36 0,-36 0,-0 59,-0 59,-36"/>
<text text-anchor="middle" x="29.5" y="-14.3" font-family="Times,serif" font-size="14.00">info.tex</text>
</g>
<!-- temp&#45;&gt;info -->
<g id="edge1" class="edge"><title>temp&#45;&gt;info</title>
<path fill="none" stroke="black" d="M137.14,-66.922C116.04,-57.5279 89.9123,-45.8959 68.6831,-36.4445"/>
<polygon fill="black" stroke="black" points="69.8685,-33.1411 59.3094,-32.2713 67.0214,-39.536 69.8685,-33.1411"/>
<text text-anchor="middle" x="119.5" y="-47.8" font-family="Times,serif" font-size="14.00">input</text>
</g>
<!-- main -->
<g id="node3" class="node"><title>main</title>
<polygon fill="none" stroke="red" points="160,-36 95,-36 95,-0 160,-0 160,-36"/>
<text text-anchor="middle" x="127.5" y="-14.3" font-family="Times,serif" font-size="14.00">main.tex</text>
</g>
<!-- temp&#45;&gt;main -->
<g id="edge2" class="edge"><title>temp&#45;&gt;main</title>
<path fill="none" stroke="black" d="M162.889,-66.922C157.858,-60.1092 151.957,-52.1193 146.433,-44.6378"/>
<polygon fill="black" stroke="black" points="148.95,-42.1548 140.194,-36.1896 143.319,-46.3131 148.95,-42.1548"/>
<text text-anchor="middle" x="165.5" y="-47.8" font-family="Times,serif" font-size="14.00">input</text>
</g>
<!-- bib -->
<g id="node4" class="node"><title>bib</title>
<polygon fill="none" stroke="red" points="253,-36 196,-36 196,-0 253,-0 253,-36"/>
<text text-anchor="middle" x="224.5" y="-14.3" font-family="Times,serif" font-size="14.00">cite.bib</text>
</g>
<!-- temp&#45;&gt;bib -->
<g id="edge3" class="edge"><title>temp&#45;&gt;bib</title>
<path fill="none" stroke="black" d="M188.374,-66.922C193.51,-60.1092 199.533,-52.1193 205.173,-44.6378"/>
<polygon fill="black" stroke="black" points="208.317,-46.2817 211.542,-36.1896 202.727,-42.068 208.317,-46.2817"/>
<text text-anchor="middle" x="217.5" y="-47.8" font-family="Times,serif" font-size="14.00">input</text>
</g>
<!-- bst -->
<g id="node5" class="node"><title>bst</title>
<polygon fill="none" stroke="black" points="372,-36 289,-36 289,-0 372,-0 372,-36"/>
<text text-anchor="middle" x="330.5" y="-14.3" font-family="Times,serif" font-size="14.00">template.bst</text>
</g>
<!-- temp&#45;&gt;bst -->
<g id="edge4" class="edge"><title>temp&#45;&gt;bst</title>
<path fill="none" stroke="black" d="M216.224,-66.922C235.903,-58.6696 259.701,-48.6901 280.473,-39.979"/>
<polygon fill="black" stroke="black" points="281.91,-43.1717 289.779,-36.0767 279.203,-36.7163 281.91,-43.1717"/>
<text text-anchor="middle" x="285.5" y="-47.8" font-family="Times,serif" font-size="14.00">input</text>
</g>
</g>
</svg>
