<?xml version="1.0" encoding="UTF-8" standalone="no"?>
<!DOCTYPE svg PUBLIC "-//W3C//DTD SVG 1.1//EN"
 "http://www.w3.org/Graphics/SVG/1.1/DTD/svg11.dtd">
<!-- Generated by graphviz version 2.38.0 (20140413.2041)
 -->
<!-- Title: %3 Pages: 1 -->
<svg width="287pt" height="476pt"
 viewBox="0.00 0.00 287.00 476.00" xmlns="http://www.w3.org/2000/svg" xmlns:xlink="http://www.w3.org/1999/xlink">
<g id="graph0" class="graph" transform="scale(1 1) rotate(0) translate(4 472)">
<title>%3</title>
<polygon fill="white" stroke="none" points="-4,4 -4,-472 283,-472 283,4 -4,4"/>
<!-- proj -->
<g id="node1" class="node"><title>proj</title>
<polygon fill="none" stroke="green" points="68.5,-108 65.5,-112 44.5,-112 41.5,-108 14.5,-108 14.5,-72 68.5,-72 68.5,-108"/>
<text text-anchor="middle" x="41.5" y="-86.3" font-family="Times,serif" font-size="14.00">project</text>
</g>
<!-- main -->
<g id="node3" class="node"><title>main</title>
<polygon fill="none" stroke="red" points="184,-180 119,-180 119,-144 184,-144 184,-180"/>
<text text-anchor="middle" x="151.5" y="-158.3" font-family="Times,serif" font-size="14.00">main.tex</text>
</g>
<!-- proj&#45;&gt;main -->
<g id="edge1" class="edge"><title>proj&#45;&gt;main</title>
<path fill="none" stroke="black" d="M68.6438,-107.429C82.5251,-116.683 99.7884,-128.192 114.878,-138.252"/>
<polygon fill="black" stroke="black" points="113.207,-141.345 123.469,-143.979 117.09,-135.52 113.207,-141.345"/>
</g>
<!-- fig -->
<g id="node7" class="node"><title>fig</title>
<polygon fill="none" stroke="red" points="178.5,-108 175.5,-112 154.5,-112 151.5,-108 124.5,-108 124.5,-72 178.5,-72 178.5,-108"/>
<text text-anchor="middle" x="151.5" y="-86.3" font-family="Times,serif" font-size="14.00">figs</text>
</g>
<!-- proj&#45;&gt;fig -->
<g id="edge2" class="edge"><title>proj&#45;&gt;fig</title>
<path fill="none" stroke="black" d="M68.6438,-90C82.2071,-90 98.9992,-90 113.838,-90"/>
<polygon fill="black" stroke="black" points="114.223,-93.5001 124.223,-90 114.223,-86.5001 114.223,-93.5001"/>
</g>
<!-- sec -->
<g id="node8" class="node"><title>sec</title>
<polygon fill="none" stroke="red" points="178.5,-36 175.5,-40 154.5,-40 151.5,-36 124.5,-36 124.5,-0 178.5,-0 178.5,-36"/>
<text text-anchor="middle" x="151.5" y="-14.3" font-family="Times,serif" font-size="14.00">secs</text>
</g>
<!-- proj&#45;&gt;sec -->
<g id="edge3" class="edge"><title>proj&#45;&gt;sec</title>
<path fill="none" stroke="black" d="M68.6438,-72.5708C82.7339,-63.1774 100.308,-51.4611 115.557,-41.2953"/>
<polygon fill="black" stroke="black" points="117.844,-43.9775 124.223,-35.5182 113.961,-38.1531 117.844,-43.9775"/>
</g>
<!-- info -->
<g id="node2" class="node"><title>info</title>
<polygon fill="none" stroke="gold" points="279,-36 220,-36 220,-0 279,-0 279,-36"/>
<text text-anchor="middle" x="249.5" y="-14.3" font-family="Times,serif" font-size="14.00">info.tex</text>
</g>
<!-- bib -->
<g id="node4" class="node"><title>bib</title>
<polygon fill="none" stroke="red" points="70,-180 13,-180 13,-144 70,-144 70,-180"/>
<text text-anchor="middle" x="41.5" y="-158.3" font-family="Times,serif" font-size="14.00">cite.bib</text>
</g>
<!-- bst -->
<g id="node5" class="node"><title>bst</title>
<polygon fill="none" stroke="green" points="83,-252 0,-252 0,-216 83,-216 83,-252"/>
<text text-anchor="middle" x="41.5" y="-230.3" font-family="Times,serif" font-size="14.00">template.bst</text>
</g>
<!-- sty -->
<g id="node6" class="node"><title>sty</title>
<polygon fill="none" stroke="green" points="83,-324 0,-324 0,-288 83,-288 83,-324"/>
<text text-anchor="middle" x="41.5" y="-302.3" font-family="Times,serif" font-size="14.00">template.sty</text>
</g>
<!-- sec&#45;&gt;info -->
<g id="edge4" class="edge"><title>sec&#45;&gt;info</title>
<path fill="none" stroke="black" d="M178.732,-18C188.309,-18 199.352,-18 209.786,-18"/>
<polygon fill="black" stroke="black" points="209.941,-21.5001 219.941,-18 209.94,-14.5001 209.941,-21.5001"/>
</g>
<!-- build -->
<g id="node9" class="node"><title>build</title>
<polygon fill="none" stroke="blue" points="68.5,-396 65.5,-400 44.5,-400 41.5,-396 14.5,-396 14.5,-360 68.5,-360 68.5,-396"/>
<text text-anchor="middle" x="41.5" y="-374.3" font-family="Times,serif" font-size="14.00">build</text>
</g>
<!-- gen -->
<g id="node10" class="node"><title>gen</title>
<polygon fill="none" stroke="blue" points="80,-468 3,-468 3,-432 80,-432 80,-468"/>
<text text-anchor="middle" x="41.5" y="-446.3" font-family="Times,serif" font-size="14.00">compile.sh</text>
</g>
</g>
</svg>
