<?xml version="1.0" encoding="UTF-8" standalone="no"?>
<!DOCTYPE svg PUBLIC "-//W3C//DTD SVG 1.1//EN"
 "http://www.w3.org/Graphics/SVG/1.1/DTD/svg11.dtd">
<!-- Generated by graphviz version 2.38.0 (20140413.2041)
 -->
<!-- Title: %3 Pages: 1 -->
<svg width="316pt" height="552pt"
 viewBox="0.00 0.00 316.00 552.00" xmlns="http://www.w3.org/2000/svg" xmlns:xlink="http://www.w3.org/1999/xlink">
<g id="graph0" class="graph" transform="scale(1 1) rotate(0) translate(4 548)">
<title>%3</title>
<polygon fill="white" stroke="none" points="-4,4 -4,-548 312,-548 312,4 -4,4"/>
<!-- proj -->
<g id="node1" class="node"><title>proj</title>
<polygon fill="none" stroke="green" points="63,-360 60,-364 39,-364 36,-360 9,-360 9,-324 63,-324 63,-360"/>
<text text-anchor="middle" x="36" y="-338.3" font-family="Times,serif" font-size="14.00">project</text>
</g>
<!-- main -->
<g id="node4" class="node"><title>main</title>
<polygon fill="none" stroke="red" points="189,-544 108,-544 108,-506 189,-506 189,-544"/>
<text text-anchor="middle" x="148.5" y="-528.8" font-family="Times,serif" font-size="14.00">main.tex </text>
<text text-anchor="middle" x="148.5" y="-513.8" font-family="Times,serif" font-size="14.00"> (Template)</text>
</g>
<!-- proj&#45;&gt;main -->
<g id="edge1" class="edge"><title>proj&#45;&gt;main</title>
<path fill="none" stroke="black" d="M47.9991,-360.216C67.3237,-392.219 107.492,-458.742 130.443,-496.751"/>
<polygon fill="black" stroke="black" points="127.718,-499.01 135.883,-505.762 133.711,-495.392 127.718,-499.01"/>
</g>
<!-- bib -->
<g id="node5" class="node"><title>bib</title>
<polygon fill="none" stroke="red" points="187.5,-470 109.5,-470 109.5,-432 187.5,-432 187.5,-470"/>
<text text-anchor="middle" x="148.5" y="-454.8" font-family="Times,serif" font-size="14.00">cite.bib </text>
<text text-anchor="middle" x="148.5" y="-439.8" font-family="Times,serif" font-size="14.00"> (Mendely)</text>
</g>
<!-- proj&#45;&gt;bib -->
<g id="edge2" class="edge"><title>proj&#45;&gt;bib</title>
<path fill="none" stroke="black" d="M55.7448,-360.49C73.5442,-378.048 100.493,-404.631 120.586,-424.451"/>
<polygon fill="black" stroke="black" points="118.341,-427.153 127.918,-431.684 123.256,-422.169 118.341,-427.153"/>
</g>
<!-- fig -->
<g id="node9" class="node"><title>fig</title>
<polygon fill="none" stroke="red" points="175.5,-396 172.5,-400 151.5,-400 148.5,-396 121.5,-396 121.5,-360 175.5,-360 175.5,-396"/>
<text text-anchor="middle" x="148.5" y="-374.3" font-family="Times,serif" font-size="14.00">figs</text>
</g>
<!-- proj&#45;&gt;fig -->
<g id="edge3" class="edge"><title>proj&#45;&gt;fig</title>
<path fill="none" stroke="black" d="M63.187,-350.531C77.5317,-355.205 95.5305,-361.069 111.211,-366.177"/>
<polygon fill="black" stroke="black" points="110.526,-369.635 121.118,-369.405 112.694,-362.979 110.526,-369.635"/>
</g>
<!-- sec -->
<g id="node10" class="node"><title>sec</title>
<polygon fill="none" stroke="red" points="175.5,-324 172.5,-328 151.5,-328 148.5,-324 121.5,-324 121.5,-288 175.5,-288 175.5,-324"/>
<text text-anchor="middle" x="148.5" y="-302.3" font-family="Times,serif" font-size="14.00">secs</text>
</g>
<!-- proj&#45;&gt;sec -->
<g id="edge4" class="edge"><title>proj&#45;&gt;sec</title>
<path fill="none" stroke="black" d="M63.187,-333.469C77.5317,-328.795 95.5305,-322.931 111.211,-317.823"/>
<polygon fill="black" stroke="black" points="112.694,-321.021 121.118,-314.595 110.526,-314.365 112.694,-321.021"/>
</g>
<!-- build -->
<g id="node11" class="node"><title>build</title>
<polygon fill="none" stroke="blue" points="175.5,-252 172.5,-256 151.5,-256 148.5,-252 121.5,-252 121.5,-216 175.5,-216 175.5,-252"/>
<text text-anchor="middle" x="148.5" y="-230.3" font-family="Times,serif" font-size="14.00">build</text>
</g>
<!-- proj&#45;&gt;build -->
<g id="edge5" class="edge"><title>proj&#45;&gt;build</title>
<path fill="none" stroke="black" d="M55.7448,-323.679C73.8718,-305.962 101.488,-278.971 121.688,-259.228"/>
<polygon fill="black" stroke="black" points="124.327,-261.543 129.032,-252.05 119.434,-256.537 124.327,-261.543"/>
</g>
<!-- temp -->
<g id="node13" class="node"><title>temp</title>
<polygon fill="none" stroke="black" stroke-dasharray="1,5" points="180.5,-180 116.5,-180 116.5,-144 180.5,-144 180.5,-180"/>
<text text-anchor="middle" x="148.5" y="-158.3" font-family="Times,serif" font-size="14.00">template</text>
</g>
<!-- proj&#45;&gt;temp -->
<g id="edge6" class="edge"><title>proj&#45;&gt;temp</title>
<path fill="none" stroke="black" d="M48.2034,-323.75C67.7784,-291.863 108.286,-225.878 131.05,-188.797"/>
<polygon fill="black" stroke="black" points="134.182,-190.384 136.431,-180.031 128.217,-186.722 134.182,-190.384"/>
</g>
<!-- head -->
<g id="node2" class="node"><title>head</title>
<polygon fill="none" stroke="blue" points="72,-432 0,-432 0,-396 72,-396 72,-432"/>
<text text-anchor="middle" x="36" y="-410.3" font-family="Times,serif" font-size="14.00">xHead.tex</text>
</g>
<!-- secs -->
<g id="node3" class="node"><title>secs</title>
<polygon fill="none" stroke="blue" points="298.5,-396 234.5,-396 234.5,-360 298.5,-360 298.5,-396"/>
<text text-anchor="middle" x="266.5" y="-374.3" font-family="Times,serif" font-size="14.00">secX.tex</text>
</g>
<!-- bst -->
<g id="node6" class="node"><title>bst</title>
<polygon fill="none" stroke="green" points="308,-252 225,-252 225,-216 308,-216 308,-252"/>
<text text-anchor="middle" x="266.5" y="-230.3" font-family="Times,serif" font-size="14.00">template.bst</text>
</g>
<!-- cls -->
<g id="node7" class="node"><title>cls</title>
<polygon fill="none" stroke="green" points="308,-180 225,-180 225,-144 308,-144 308,-180"/>
<text text-anchor="middle" x="266.5" y="-158.3" font-family="Times,serif" font-size="14.00">template.cls</text>
</g>
<!-- sty -->
<g id="node8" class="node"><title>sty</title>
<polygon fill="none" stroke="green" points="308,-108 225,-108 225,-72 308,-72 308,-108"/>
<text text-anchor="middle" x="266.5" y="-86.3" font-family="Times,serif" font-size="14.00">template.sty</text>
</g>
<!-- sec&#45;&gt;secs -->
<g id="edge11" class="edge"><title>sec&#45;&gt;secs</title>
<path fill="none" stroke="black" d="M175.533,-322.158C190.891,-331.691 210.598,-343.923 227.652,-354.508"/>
<polygon fill="black" stroke="black" points="225.948,-357.57 236.29,-359.87 229.64,-351.622 225.948,-357.57"/>
</g>
<!-- front -->
<g id="node14" class="node"><title>front</title>
<polygon fill="none" stroke="black" points="293.5,-324 239.5,-324 239.5,-288 293.5,-288 293.5,-324"/>
<text text-anchor="middle" x="266.5" y="-302.3" font-family="Times,serif" font-size="14.00">front</text>
</g>
<!-- sec&#45;&gt;front -->
<g id="edge12" class="edge"><title>sec&#45;&gt;front</title>
<path fill="none" stroke="black" d="M175.533,-306C191.243,-306 211.503,-306 228.819,-306"/>
<polygon fill="black" stroke="black" points="229.153,-309.5 239.153,-306 229.153,-302.5 229.153,-309.5"/>
</g>
<!-- gen -->
<g id="node12" class="node"><title>gen</title>
<polygon fill="none" stroke="green" points="305,-36 228,-36 228,-0 305,-0 305,-36"/>
<text text-anchor="middle" x="266.5" y="-14.3" font-family="Times,serif" font-size="14.00">compile.sh</text>
</g>
<!-- temp&#45;&gt;bst -->
<g id="edge7" class="edge"><title>temp&#45;&gt;bst</title>
<path fill="none" stroke="black" d="M178.772,-180.169C193.609,-189.378 211.802,-200.67 227.686,-210.529"/>
<polygon fill="black" stroke="black" points="225.895,-213.537 236.238,-215.837 229.587,-207.59 225.895,-213.537"/>
</g>
<!-- temp&#45;&gt;cls -->
<g id="edge8" class="edge"><title>temp&#45;&gt;cls</title>
<path fill="none" stroke="black" d="M180.586,-162C191.071,-162 203.064,-162 214.668,-162"/>
<polygon fill="black" stroke="black" points="214.717,-165.5 224.717,-162 214.717,-158.5 214.717,-165.5"/>
</g>
<!-- temp&#45;&gt;sty -->
<g id="edge9" class="edge"><title>temp&#45;&gt;sty</title>
<path fill="none" stroke="black" d="M178.772,-143.831C193.609,-134.622 211.802,-123.33 227.686,-113.471"/>
<polygon fill="black" stroke="black" points="229.587,-116.41 236.238,-108.163 225.895,-110.463 229.587,-116.41"/>
</g>
<!-- temp&#45;&gt;gen -->
<g id="edge10" class="edge"><title>temp&#45;&gt;gen</title>
<path fill="none" stroke="black" d="M164.191,-143.762C184.5,-118.552 221.267,-72.9103 244.479,-44.0952"/>
<polygon fill="black" stroke="black" points="247.38,-46.0728 250.928,-36.0896 241.929,-41.6815 247.38,-46.0728"/>
</g>
</g>
</svg>
