<?xml version="1.0" encoding="UTF-8" standalone="no"?>
<!DOCTYPE svg PUBLIC "-//W3C//DTD SVG 1.1//EN"
 "http://www.w3.org/Graphics/SVG/1.1/DTD/svg11.dtd">
<!-- Generated by graphviz version 2.38.0 (20140413.2041)
 -->
<!-- Title: %3 Pages: 1 -->
<svg width="294pt" height="548pt"
 viewBox="0.00 0.00 294.00 548.00" xmlns="http://www.w3.org/2000/svg" xmlns:xlink="http://www.w3.org/1999/xlink">
<g id="graph0" class="graph" transform="scale(1 1) rotate(0) translate(4 544)">
<title>%3</title>
<polygon fill="white" stroke="none" points="-4,4 -4,-544 290,-544 290,4 -4,4"/>
<!-- proj -->
<g id="node1" class="node"><title>proj</title>
<polygon fill="none" stroke="green" points="54,-324 51,-328 30,-328 27,-324 0,-324 0,-288 54,-288 54,-324"/>
<text text-anchor="middle" x="27" y="-302.3" font-family="Times,serif" font-size="14.00">project</text>
</g>
<!-- main -->
<g id="node4" class="node"><title>main</title>
<polygon fill="none" stroke="red" points="161,-540 96,-540 96,-504 161,-504 161,-540"/>
<text text-anchor="middle" x="128.5" y="-518.3" font-family="Times,serif" font-size="14.00">main.tex</text>
</g>
<!-- proj&#45;&gt;main -->
<g id="edge1" class="edge"><title>proj&#45;&gt;main</title>
<path fill="none" stroke="black" d="M36.3122,-324.045C53.7612,-361.924 94.2956,-449.918 114.936,-494.726"/>
<polygon fill="black" stroke="black" points="111.779,-496.237 119.142,-503.855 118.136,-493.308 111.779,-496.237"/>
</g>
<!-- bib -->
<g id="node5" class="node"><title>bib</title>
<polygon fill="none" stroke="red" points="157,-468 100,-468 100,-432 157,-432 157,-468"/>
<text text-anchor="middle" x="128.5" y="-446.3" font-family="Times,serif" font-size="14.00">cite.bib</text>
</g>
<!-- proj&#45;&gt;bib -->
<g id="edge2" class="edge"><title>proj&#45;&gt;bib</title>
<path fill="none" stroke="black" d="M40.6017,-324.238C57.9467,-349.34 89.2881,-394.698 109.212,-423.533"/>
<polygon fill="black" stroke="black" points="106.436,-425.673 115.001,-431.91 112.195,-421.694 106.436,-425.673"/>
</g>
<!-- fig -->
<g id="node9" class="node"><title>fig</title>
<polygon fill="none" stroke="red" points="155.5,-396 152.5,-400 131.5,-400 128.5,-396 101.5,-396 101.5,-360 155.5,-360 155.5,-396"/>
<text text-anchor="middle" x="128.5" y="-374.3" font-family="Times,serif" font-size="14.00">figs</text>
</g>
<!-- proj&#45;&gt;fig -->
<g id="edge3" class="edge"><title>proj&#45;&gt;fig</title>
<path fill="none" stroke="black" d="M53.1081,-324.169C65.4812,-333.122 80.5749,-344.044 93.925,-353.705"/>
<polygon fill="black" stroke="black" points="92.2467,-356.81 102.4,-359.837 96.3504,-351.139 92.2467,-356.81"/>
</g>
<!-- sec -->
<g id="node10" class="node"><title>sec</title>
<polygon fill="none" stroke="red" points="155.5,-324 152.5,-328 131.5,-328 128.5,-324 101.5,-324 101.5,-288 155.5,-288 155.5,-324"/>
<text text-anchor="middle" x="128.5" y="-302.3" font-family="Times,serif" font-size="14.00">secs</text>
</g>
<!-- proj&#45;&gt;sec -->
<g id="edge4" class="edge"><title>proj&#45;&gt;sec</title>
<path fill="none" stroke="black" d="M54.1425,-306C65.3648,-306 78.6736,-306 90.854,-306"/>
<polygon fill="black" stroke="black" points="91.1867,-309.5 101.187,-306 91.1866,-302.5 91.1867,-309.5"/>
</g>
<!-- build -->
<g id="node11" class="node"><title>build</title>
<polygon fill="none" stroke="blue" points="155.5,-252 152.5,-256 131.5,-256 128.5,-252 101.5,-252 101.5,-216 155.5,-216 155.5,-252"/>
<text text-anchor="middle" x="128.5" y="-230.3" font-family="Times,serif" font-size="14.00">build</text>
</g>
<!-- proj&#45;&gt;build -->
<g id="edge5" class="edge"><title>proj&#45;&gt;build</title>
<path fill="none" stroke="black" d="M53.1081,-287.831C65.4812,-278.878 80.5749,-267.956 93.925,-258.295"/>
<polygon fill="black" stroke="black" points="96.3504,-260.861 102.4,-252.163 92.2467,-255.19 96.3504,-260.861"/>
</g>
<!-- gen -->
<g id="node12" class="node"><title>gen</title>
<polygon fill="none" stroke="blue" points="167,-180 90,-180 90,-144 167,-144 167,-180"/>
<text text-anchor="middle" x="128.5" y="-158.3" font-family="Times,serif" font-size="14.00">compile.sh</text>
</g>
<!-- proj&#45;&gt;gen -->
<g id="edge6" class="edge"><title>proj&#45;&gt;gen</title>
<path fill="none" stroke="black" d="M40.6017,-287.762C57.9467,-262.66 89.2881,-217.302 109.212,-188.467"/>
<polygon fill="black" stroke="black" points="112.195,-190.306 115.001,-180.09 106.436,-186.327 112.195,-190.306"/>
</g>
<!-- temp -->
<g id="node13" class="node"><title>temp</title>
<polygon fill="none" stroke="black" stroke-dasharray="1,5" points="160.5,-108 96.5,-108 96.5,-72 160.5,-72 160.5,-108"/>
<text text-anchor="middle" x="128.5" y="-86.3" font-family="Times,serif" font-size="14.00">template</text>
</g>
<!-- proj&#45;&gt;temp -->
<g id="edge7" class="edge"><title>proj&#45;&gt;temp</title>
<path fill="none" stroke="black" d="M36.3122,-287.955C53.7612,-250.076 94.2956,-162.082 114.936,-117.274"/>
<polygon fill="black" stroke="black" points="118.136,-118.692 119.142,-108.145 111.779,-115.763 118.136,-118.692"/>
</g>
<!-- info -->
<g id="node2" class="node"><title>info</title>
<polygon fill="none" stroke="blue" points="274,-360 215,-360 215,-324 274,-324 274,-360"/>
<text text-anchor="middle" x="244.5" y="-338.3" font-family="Times,serif" font-size="14.00">info.tex</text>
</g>
<!-- secs -->
<g id="node3" class="node"><title>secs</title>
<polygon fill="none" stroke="blue" points="284.5,-288 204.5,-288 204.5,-252 284.5,-252 284.5,-288"/>
<text text-anchor="middle" x="244.5" y="-266.3" font-family="Times,serif" font-size="14.00">sections.tex</text>
</g>
<!-- bst -->
<g id="node6" class="node"><title>bst</title>
<polygon fill="none" stroke="green" points="286,-180 203,-180 203,-144 286,-144 286,-180"/>
<text text-anchor="middle" x="244.5" y="-158.3" font-family="Times,serif" font-size="14.00">template.bst</text>
</g>
<!-- cls -->
<g id="node7" class="node"><title>cls</title>
<polygon fill="none" stroke="green" points="286,-108 203,-108 203,-72 286,-72 286,-108"/>
<text text-anchor="middle" x="244.5" y="-86.3" font-family="Times,serif" font-size="14.00">template.cls</text>
</g>
<!-- sty -->
<g id="node8" class="node"><title>sty</title>
<polygon fill="none" stroke="green" points="286,-36 203,-36 203,-0 286,-0 286,-36"/>
<text text-anchor="middle" x="244.5" y="-14.3" font-family="Times,serif" font-size="14.00">template.sty</text>
</g>
<!-- sec&#45;&gt;info -->
<g id="edge11" class="edge"><title>sec&#45;&gt;info</title>
<path fill="none" stroke="black" d="M155.654,-314.259C170.243,-318.866 188.69,-324.692 204.91,-329.814"/>
<polygon fill="black" stroke="black" points="204.076,-333.221 214.666,-332.895 206.184,-326.546 204.076,-333.221"/>
</g>
<!-- sec&#45;&gt;secs -->
<g id="edge12" class="edge"><title>sec&#45;&gt;secs</title>
<path fill="none" stroke="black" d="M155.654,-297.741C167.291,-294.066 181.383,-289.616 194.841,-285.366"/>
<polygon fill="black" stroke="black" points="196.003,-288.67 204.484,-282.321 193.895,-281.995 196.003,-288.67"/>
</g>
<!-- temp&#45;&gt;bst -->
<g id="edge8" class="edge"><title>temp&#45;&gt;bst</title>
<path fill="none" stroke="black" d="M158.267,-108.169C172.713,-117.293 190.397,-128.461 205.904,-138.255"/>
<polygon fill="black" stroke="black" points="204.418,-141.456 214.742,-143.837 208.156,-135.538 204.418,-141.456"/>
</g>
<!-- temp&#45;&gt;cls -->
<g id="edge9" class="edge"><title>temp&#45;&gt;cls</title>
<path fill="none" stroke="black" d="M160.651,-90C170.543,-90 181.752,-90 192.657,-90"/>
<polygon fill="black" stroke="black" points="192.967,-93.5001 202.967,-90 192.967,-86.5001 192.967,-93.5001"/>
</g>
<!-- temp&#45;&gt;sty -->
<g id="edge10" class="edge"><title>temp&#45;&gt;sty</title>
<path fill="none" stroke="black" d="M158.267,-71.8314C172.713,-62.7074 190.397,-51.539 205.904,-41.7449"/>
<polygon fill="black" stroke="black" points="208.156,-44.462 214.742,-36.1628 204.418,-38.5436 208.156,-44.462"/>
</g>
</g>
</svg>
