<?xml version="1.0" encoding="UTF-8" standalone="no"?>
<!DOCTYPE svg PUBLIC "-//W3C//DTD SVG 1.1//EN"
 "http://www.w3.org/Graphics/SVG/1.1/DTD/svg11.dtd">
<!-- Generated by graphviz version 2.38.0 (20140413.2041)
 -->
<!-- Title: %3 Pages: 1 -->
<svg width="232pt" height="476pt"
 viewBox="0.00 0.00 232.00 476.00" xmlns="http://www.w3.org/2000/svg" xmlns:xlink="http://www.w3.org/1999/xlink">
<g id="graph0" class="graph" transform="scale(1 1) rotate(0) translate(4 472)">
<title>%3</title>
<polygon fill="white" stroke="none" points="-4,4 -4,-472 228,-472 228,4 -4,4"/>
<!-- temp -->
<g id="node1" class="node"><title>temp</title>
<polygon fill="none" stroke="green" points="65.5,-180 11.5,-180 11.5,-144 65.5,-144 65.5,-180"/>
<text text-anchor="middle" x="38.5" y="-158.3" font-family="Times,serif" font-size="14.00">project</text>
</g>
<!-- info -->
<g id="node2" class="node"><title>info</title>
<polygon fill="none" stroke="gold" points="212,-324 153,-324 153,-288 212,-288 212,-324"/>
<text text-anchor="middle" x="182.5" y="-302.3" font-family="Times,serif" font-size="14.00">info.tex</text>
</g>
<!-- temp&#45;&gt;info -->
<g id="edge1" class="edge"><title>temp&#45;&gt;info</title>
<path fill="none" stroke="black" d="M57.4844,-180.238C82.5581,-205.665 128.126,-251.875 156.495,-280.643"/>
<polygon fill="black" stroke="black" points="154.148,-283.248 163.662,-287.91 159.132,-278.332 154.148,-283.248"/>
<text text-anchor="middle" x="109" y="-254.8" font-family="Times,serif" font-size="14.00">input</text>
</g>
<!-- main -->
<g id="node3" class="node"><title>main</title>
<polygon fill="none" stroke="red" points="215,-252 150,-252 150,-216 215,-216 215,-252"/>
<text text-anchor="middle" x="182.5" y="-230.3" font-family="Times,serif" font-size="14.00">main.tex</text>
</g>
<!-- temp&#45;&gt;main -->
<g id="edge2" class="edge"><title>temp&#45;&gt;main</title>
<path fill="none" stroke="black" d="M65.545,-175.206C86.631,-185.897 116.704,-201.146 140.939,-213.434"/>
<polygon fill="black" stroke="black" points="139.409,-216.582 149.911,-217.983 142.575,-210.339 139.409,-216.582"/>
<text text-anchor="middle" x="109" y="-205.8" font-family="Times,serif" font-size="14.00">input</text>
</g>
<!-- bib -->
<g id="node4" class="node"><title>bib</title>
<polygon fill="none" stroke="red" points="211,-180 154,-180 154,-144 211,-144 211,-180"/>
<text text-anchor="middle" x="182.5" y="-158.3" font-family="Times,serif" font-size="14.00">cite.bib</text>
</g>
<!-- temp&#45;&gt;bib -->
<g id="edge3" class="edge"><title>temp&#45;&gt;bib</title>
<path fill="none" stroke="black" d="M65.545,-162C87.4032,-162 118.918,-162 143.578,-162"/>
<polygon fill="black" stroke="black" points="143.678,-165.5 153.678,-162 143.678,-158.5 143.678,-165.5"/>
<text text-anchor="middle" x="109" y="-165.8" font-family="Times,serif" font-size="14.00">input</text>
</g>
<!-- bst -->
<g id="node5" class="node"><title>bst</title>
<polygon fill="none" stroke="green" points="224,-108 141,-108 141,-72 224,-72 224,-108"/>
<text text-anchor="middle" x="182.5" y="-86.3" font-family="Times,serif" font-size="14.00">template.bst</text>
</g>
<!-- temp&#45;&gt;bst -->
<g id="edge4" class="edge"><title>temp&#45;&gt;bst</title>
<path fill="none" stroke="black" d="M65.545,-148.794C85.4779,-138.687 113.441,-124.509 136.913,-112.607"/>
<polygon fill="black" stroke="black" points="138.658,-115.647 145.994,-108.003 135.492,-109.404 138.658,-115.647"/>
<text text-anchor="middle" x="109" y="-135.8" font-family="Times,serif" font-size="14.00">input</text>
</g>
<!-- sty -->
<g id="node6" class="node"><title>sty</title>
<polygon fill="none" stroke="green" points="224,-36 141,-36 141,-0 224,-0 224,-36"/>
<text text-anchor="middle" x="182.5" y="-14.3" font-family="Times,serif" font-size="14.00">template.sty</text>
</g>
<!-- temp&#45;&gt;sty -->
<g id="edge5" class="edge"><title>temp&#45;&gt;sty</title>
<path fill="none" stroke="black" d="M57.4844,-143.762C82.5581,-118.335 128.126,-72.1253 156.495,-43.3569"/>
<polygon fill="black" stroke="black" points="159.132,-45.6675 163.662,-36.0896 154.148,-40.7525 159.132,-45.6675"/>
<text text-anchor="middle" x="109" y="-100.8" font-family="Times,serif" font-size="14.00">input</text>
</g>
<!-- fig -->
<g id="node7" class="node"><title>fig</title>
<polygon fill="none" stroke="red" points="65.5,-252 62.5,-256 41.5,-256 38.5,-252 11.5,-252 11.5,-216 65.5,-216 65.5,-252"/>
<text text-anchor="middle" x="38.5" y="-230.3" font-family="Times,serif" font-size="14.00">figs</text>
</g>
<!-- sec -->
<g id="node8" class="node"><title>sec</title>
<polygon fill="none" stroke="red" points="65.5,-324 62.5,-328 41.5,-328 38.5,-324 11.5,-324 11.5,-288 65.5,-288 65.5,-324"/>
<text text-anchor="middle" x="38.5" y="-302.3" font-family="Times,serif" font-size="14.00">secs</text>
</g>
<!-- build -->
<g id="node9" class="node"><title>build</title>
<polygon fill="none" stroke="blue" points="65.5,-396 62.5,-400 41.5,-400 38.5,-396 11.5,-396 11.5,-360 65.5,-360 65.5,-396"/>
<text text-anchor="middle" x="38.5" y="-374.3" font-family="Times,serif" font-size="14.00">build</text>
</g>
<!-- gen -->
<g id="node10" class="node"><title>gen</title>
<polygon fill="none" stroke="blue" points="77,-468 0,-468 0,-432 77,-432 77,-468"/>
<text text-anchor="middle" x="38.5" y="-446.3" font-family="Times,serif" font-size="14.00">compile.sh</text>
</g>
</g>
</svg>
