<?xml version="1.0" encoding="UTF-8" standalone="no"?>
<!DOCTYPE svg PUBLIC "-//W3C//DTD SVG 1.1//EN"
 "http://www.w3.org/Graphics/SVG/1.1/DTD/svg11.dtd">
<!-- Generated by graphviz version 2.38.0 (20140413.2041)
 -->
<!-- Title: %3 Pages: 1 -->
<svg width="326pt" height="476pt"
 viewBox="0.00 0.00 326.00 476.00" xmlns="http://www.w3.org/2000/svg" xmlns:xlink="http://www.w3.org/1999/xlink">
<g id="graph0" class="graph" transform="scale(1 1) rotate(0) translate(4 472)">
<title>%3</title>
<polygon fill="white" stroke="none" points="-4,4 -4,-472 322,-472 322,4 -4,4"/>
<!-- proj -->
<g id="node1" class="node"><title>proj</title>
<polygon fill="none" stroke="green" points="68.5,-252 65.5,-256 44.5,-256 41.5,-252 14.5,-252 14.5,-216 68.5,-216 68.5,-252"/>
<text text-anchor="middle" x="41.5" y="-230.3" font-family="Times,serif" font-size="14.00">project</text>
</g>
<!-- main -->
<g id="node4" class="node"><title>main</title>
<polygon fill="none" stroke="red" points="193,-468 128,-468 128,-432 193,-432 193,-468"/>
<text text-anchor="middle" x="160.5" y="-446.3" font-family="Times,serif" font-size="14.00">main.tex</text>
</g>
<!-- proj&#45;&gt;main -->
<g id="edge1" class="edge"><title>proj&#45;&gt;main</title>
<path fill="none" stroke="black" d="M52.2741,-252.045C72.8351,-290.003 120.656,-378.287 144.879,-423.007"/>
<polygon fill="black" stroke="black" points="141.831,-424.729 149.671,-431.855 147.986,-421.395 141.831,-424.729"/>
</g>
<!-- cls -->
<g id="node7" class="node"><title>cls</title>
<polygon fill="none" stroke="green" points="202,-396 119,-396 119,-360 202,-360 202,-396"/>
<text text-anchor="middle" x="160.5" y="-374.3" font-family="Times,serif" font-size="14.00">template.cls</text>
</g>
<!-- proj&#45;&gt;cls -->
<g id="edge2" class="edge"><title>proj&#45;&gt;cls</title>
<path fill="none" stroke="black" d="M57.3181,-252.238C77.8016,-277.448 114.885,-323.09 138.298,-351.905"/>
<polygon fill="black" stroke="black" points="135.78,-354.356 144.802,-359.91 141.213,-349.942 135.78,-354.356"/>
</g>
<!-- fig -->
<g id="node9" class="node"><title>fig</title>
<polygon fill="none" stroke="red" points="187.5,-324 184.5,-328 163.5,-328 160.5,-324 133.5,-324 133.5,-288 187.5,-288 187.5,-324"/>
<text text-anchor="middle" x="160.5" y="-302.3" font-family="Times,serif" font-size="14.00">figs</text>
</g>
<!-- proj&#45;&gt;fig -->
<g id="edge3" class="edge"><title>proj&#45;&gt;fig</title>
<path fill="none" stroke="black" d="M68.7571,-250.158C85.1658,-260.256 106.496,-273.382 124.353,-284.371"/>
<polygon fill="black" stroke="black" points="122.98,-287.636 133.331,-289.896 126.648,-281.674 122.98,-287.636"/>
</g>
<!-- sec -->
<g id="node10" class="node"><title>sec</title>
<polygon fill="none" stroke="red" points="187.5,-252 184.5,-256 163.5,-256 160.5,-252 133.5,-252 133.5,-216 187.5,-216 187.5,-252"/>
<text text-anchor="middle" x="160.5" y="-230.3" font-family="Times,serif" font-size="14.00">secs</text>
</g>
<!-- proj&#45;&gt;sec -->
<g id="edge4" class="edge"><title>proj&#45;&gt;sec</title>
<path fill="none" stroke="black" d="M68.7571,-234C84.7142,-234 105.326,-234 122.871,-234"/>
<polygon fill="black" stroke="black" points="123.331,-237.5 133.331,-234 123.331,-230.5 123.331,-237.5"/>
</g>
<!-- build -->
<g id="node11" class="node"><title>build</title>
<polygon fill="none" stroke="blue" points="187.5,-180 184.5,-184 163.5,-184 160.5,-180 133.5,-180 133.5,-144 187.5,-144 187.5,-180"/>
<text text-anchor="middle" x="160.5" y="-158.3" font-family="Times,serif" font-size="14.00">build</text>
</g>
<!-- proj&#45;&gt;build -->
<g id="edge5" class="edge"><title>proj&#45;&gt;build</title>
<path fill="none" stroke="black" d="M68.7571,-217.842C85.1658,-207.744 106.496,-194.618 124.353,-183.629"/>
<polygon fill="black" stroke="black" points="126.648,-186.326 133.331,-178.104 122.98,-180.364 126.648,-186.326"/>
</g>
<!-- gen -->
<g id="node12" class="node"><title>gen</title>
<polygon fill="none" stroke="blue" points="199,-108 122,-108 122,-72 199,-72 199,-108"/>
<text text-anchor="middle" x="160.5" y="-86.3" font-family="Times,serif" font-size="14.00">compile.sh</text>
</g>
<!-- proj&#45;&gt;gen -->
<g id="edge6" class="edge"><title>proj&#45;&gt;gen</title>
<path fill="none" stroke="black" d="M57.3181,-215.762C77.8016,-190.552 114.885,-144.91 138.298,-116.095"/>
<polygon fill="black" stroke="black" points="141.213,-118.058 144.802,-108.09 135.78,-113.644 141.213,-118.058"/>
</g>
<!-- temp -->
<g id="node13" class="node"><title>temp</title>
<polygon fill="none" stroke="black" points="192.5,-36 128.5,-36 128.5,-0 192.5,-0 192.5,-36"/>
<text text-anchor="middle" x="160.5" y="-14.3" font-family="Times,serif" font-size="14.00">template</text>
</g>
<!-- proj&#45;&gt;temp -->
<g id="edge7" class="edge"><title>proj&#45;&gt;temp</title>
<path fill="none" stroke="black" d="M52.2741,-215.955C72.8351,-177.997 120.656,-89.7127 144.879,-44.9928"/>
<polygon fill="black" stroke="black" points="147.986,-46.605 149.671,-36.1451 141.831,-43.271 147.986,-46.605"/>
</g>
<!-- info -->
<g id="node2" class="node"><title>info</title>
<polygon fill="none" stroke="blue" points="307.5,-288 248.5,-288 248.5,-252 307.5,-252 307.5,-288"/>
<text text-anchor="middle" x="278" y="-266.3" font-family="Times,serif" font-size="14.00">info.tex</text>
</g>
<!-- secs -->
<g id="node3" class="node"><title>secs</title>
<polygon fill="none" stroke="blue" points="318,-216 238,-216 238,-180 318,-180 318,-216"/>
<text text-anchor="middle" x="278" y="-194.3" font-family="Times,serif" font-size="14.00">sections.tex</text>
</g>
<!-- bib -->
<g id="node5" class="node"><title>bib</title>
<polygon fill="none" stroke="red" points="70,-324 13,-324 13,-288 70,-288 70,-324"/>
<text text-anchor="middle" x="41.5" y="-302.3" font-family="Times,serif" font-size="14.00">cite.bib</text>
</g>
<!-- bst -->
<g id="node6" class="node"><title>bst</title>
<polygon fill="none" stroke="green" points="83,-396 0,-396 0,-360 83,-360 83,-396"/>
<text text-anchor="middle" x="41.5" y="-374.3" font-family="Times,serif" font-size="14.00">template.bst</text>
</g>
<!-- sty -->
<g id="node8" class="node"><title>sty</title>
<polygon fill="none" stroke="green" points="83,-468 0,-468 0,-432 83,-432 83,-468"/>
<text text-anchor="middle" x="41.5" y="-446.3" font-family="Times,serif" font-size="14.00">template.sty</text>
</g>
<!-- sec&#45;&gt;info -->
<g id="edge8" class="edge"><title>sec&#45;&gt;info</title>
<path fill="none" stroke="black" d="M187.709,-242.169C202.701,-246.842 221.784,-252.79 238.456,-257.986"/>
<polygon fill="black" stroke="black" points="237.879,-261.473 248.468,-261.107 239.962,-254.79 237.879,-261.473"/>
</g>
<!-- sec&#45;&gt;secs -->
<g id="edge9" class="edge"><title>sec&#45;&gt;secs</title>
<path fill="none" stroke="black" d="M187.709,-225.831C199.599,-222.125 214.062,-217.617 227.855,-213.318"/>
<polygon fill="black" stroke="black" points="229.228,-216.556 237.733,-210.239 227.145,-209.873 229.228,-216.556"/>
</g>
</g>
</svg>
