<?xml version="1.0" encoding="UTF-8" standalone="no"?>
<!DOCTYPE svg PUBLIC "-//W3C//DTD SVG 1.1//EN"
 "http://www.w3.org/Graphics/SVG/1.1/DTD/svg11.dtd">
<!-- Generated by graphviz version 2.38.0 (20140413.2041)
 -->
<!-- Title: %3 Pages: 1 -->
<svg width="287pt" height="440pt"
 viewBox="0.00 0.00 287.00 440.00" xmlns="http://www.w3.org/2000/svg" xmlns:xlink="http://www.w3.org/1999/xlink">
<g id="graph0" class="graph" transform="scale(1 1) rotate(0) translate(4 436)">
<title>%3</title>
<polygon fill="white" stroke="none" points="-4,4 -4,-436 283,-436 283,4 -4,4"/>
<!-- proj -->
<g id="node1" class="node"><title>proj</title>
<polygon fill="none" stroke="green" points="68.5,-144 65.5,-148 44.5,-148 41.5,-144 14.5,-144 14.5,-108 68.5,-108 68.5,-144"/>
<text text-anchor="middle" x="41.5" y="-122.3" font-family="Times,serif" font-size="14.00">project</text>
</g>
<!-- main -->
<g id="node3" class="node"><title>main</title>
<polygon fill="none" stroke="red" points="184,-252 119,-252 119,-216 184,-216 184,-252"/>
<text text-anchor="middle" x="151.5" y="-230.3" font-family="Times,serif" font-size="14.00">main.tex</text>
</g>
<!-- proj&#45;&gt;main -->
<g id="edge1" class="edge"><title>proj&#45;&gt;main</title>
<path fill="none" stroke="black" d="M60.8207,-144.321C78.5376,-162.038 105.529,-189.029 125.272,-208.772"/>
<polygon fill="black" stroke="black" points="122.904,-211.354 132.45,-215.95 127.854,-206.404 122.904,-211.354"/>
</g>
<!-- bib -->
<g id="node4" class="node"><title>bib</title>
<polygon fill="none" stroke="red" points="180,-180 123,-180 123,-144 180,-144 180,-180"/>
<text text-anchor="middle" x="151.5" y="-158.3" font-family="Times,serif" font-size="14.00">cite.bib</text>
</g>
<!-- proj&#45;&gt;bib -->
<g id="edge2" class="edge"><title>proj&#45;&gt;bib</title>
<path fill="none" stroke="black" d="M68.6438,-134.715C81.9331,-139.144 98.3219,-144.607 112.936,-149.479"/>
<polygon fill="black" stroke="black" points="112.116,-152.894 122.709,-152.736 114.329,-146.254 112.116,-152.894"/>
</g>
<!-- fig -->
<g id="node7" class="node"><title>fig</title>
<polygon fill="none" stroke="red" points="178.5,-108 175.5,-112 154.5,-112 151.5,-108 124.5,-108 124.5,-72 178.5,-72 178.5,-108"/>
<text text-anchor="middle" x="151.5" y="-86.3" font-family="Times,serif" font-size="14.00">figs</text>
</g>
<!-- proj&#45;&gt;fig -->
<g id="edge3" class="edge"><title>proj&#45;&gt;fig</title>
<path fill="none" stroke="black" d="M68.6438,-117.285C82.4705,-112.676 99.6526,-106.949 114.7,-101.933"/>
<polygon fill="black" stroke="black" points="115.843,-105.242 124.223,-98.7591 113.629,-98.6011 115.843,-105.242"/>
</g>
<!-- sec -->
<g id="node8" class="node"><title>sec</title>
<polygon fill="none" stroke="red" points="178.5,-36 175.5,-40 154.5,-40 151.5,-36 124.5,-36 124.5,-0 178.5,-0 178.5,-36"/>
<text text-anchor="middle" x="151.5" y="-14.3" font-family="Times,serif" font-size="14.00">secs</text>
</g>
<!-- proj&#45;&gt;sec -->
<g id="edge4" class="edge"><title>proj&#45;&gt;sec</title>
<path fill="none" stroke="black" d="M60.8207,-107.679C78.5376,-89.9624 105.529,-62.971 125.272,-43.2277"/>
<polygon fill="black" stroke="black" points="127.854,-45.5961 132.45,-36.0502 122.904,-40.6464 127.854,-45.5961"/>
</g>
<!-- info -->
<g id="node2" class="node"><title>info</title>
<polygon fill="none" stroke="gold" points="279,-36 220,-36 220,-0 279,-0 279,-36"/>
<text text-anchor="middle" x="249.5" y="-14.3" font-family="Times,serif" font-size="14.00">info.tex</text>
</g>
<!-- bst -->
<g id="node5" class="node"><title>bst</title>
<polygon fill="none" stroke="green" points="83,-216 0,-216 0,-180 83,-180 83,-216"/>
<text text-anchor="middle" x="41.5" y="-194.3" font-family="Times,serif" font-size="14.00">template.bst</text>
</g>
<!-- sty -->
<g id="node6" class="node"><title>sty</title>
<polygon fill="none" stroke="green" points="83,-288 0,-288 0,-252 83,-252 83,-288"/>
<text text-anchor="middle" x="41.5" y="-266.3" font-family="Times,serif" font-size="14.00">template.sty</text>
</g>
<!-- sec&#45;&gt;info -->
<g id="edge5" class="edge"><title>sec&#45;&gt;info</title>
<path fill="none" stroke="black" d="M178.732,-18C188.309,-18 199.352,-18 209.786,-18"/>
<polygon fill="black" stroke="black" points="209.941,-21.5001 219.941,-18 209.94,-14.5001 209.941,-21.5001"/>
</g>
<!-- build -->
<g id="node9" class="node"><title>build</title>
<polygon fill="none" stroke="blue" points="68.5,-360 65.5,-364 44.5,-364 41.5,-360 14.5,-360 14.5,-324 68.5,-324 68.5,-360"/>
<text text-anchor="middle" x="41.5" y="-338.3" font-family="Times,serif" font-size="14.00">build</text>
</g>
<!-- gen -->
<g id="node10" class="node"><title>gen</title>
<polygon fill="none" stroke="blue" points="80,-432 3,-432 3,-396 80,-396 80,-432"/>
<text text-anchor="middle" x="41.5" y="-410.3" font-family="Times,serif" font-size="14.00">compile.sh</text>
</g>
</g>
</svg>
