<?xml version="1.0" encoding="UTF-8" standalone="no"?>
<!DOCTYPE svg PUBLIC "-//W3C//DTD SVG 1.1//EN"
 "http://www.w3.org/Graphics/SVG/1.1/DTD/svg11.dtd">
<!-- Generated by graphviz version 2.38.0 (20140413.2041)
 -->
<!-- Title: %3 Pages: 1 -->
<svg width="568pt" height="131pt"
 viewBox="0.00 0.00 568.00 131.00" xmlns="http://www.w3.org/2000/svg" xmlns:xlink="http://www.w3.org/1999/xlink">
<g id="graph0" class="graph" transform="scale(1 1) rotate(0) translate(4 127)">
<title>%3</title>
<polygon fill="white" stroke="none" points="-4,4 -4,-127 564,-127 564,4 -4,4"/>
<!-- temp -->
<g id="node1" class="node"><title>temp</title>
<polygon fill="none" stroke="green" points="266.5,-123 182.5,-123 182.5,-87 266.5,-87 266.5,-123"/>
<text text-anchor="middle" x="224.5" y="-101.3" font-family="Times,serif" font-size="14.00">template.tex</text>
</g>
<!-- info -->
<g id="node2" class="node"><title>info</title>
<polygon fill="none" stroke="gold" points="59,-36 0,-36 0,-0 59,-0 59,-36"/>
<text text-anchor="middle" x="29.5" y="-14.3" font-family="Times,serif" font-size="14.00">info.tex</text>
</g>
<!-- temp&#45;&gt;info -->
<g id="edge1" class="edge"><title>temp&#45;&gt;info</title>
<path fill="none" stroke="black" d="M185.039,-86.799C151.107,-72.0081 102.429,-50.7896 68.6018,-36.0444"/>
<polygon fill="black" stroke="black" points="69.6123,-32.6668 59.0468,-31.8794 66.8152,-39.0837 69.6123,-32.6668"/>
<text text-anchor="middle" x="147.5" y="-57.8" font-family="Times,serif" font-size="14.00">input</text>
</g>
<!-- main -->
<g id="node3" class="node"><title>main</title>
<polygon fill="none" stroke="red" points="160,-36 95,-36 95,-0 160,-0 160,-36"/>
<text text-anchor="middle" x="127.5" y="-14.3" font-family="Times,serif" font-size="14.00">main.tex</text>
</g>
<!-- temp&#45;&gt;main -->
<g id="edge2" class="edge"><title>temp&#45;&gt;main</title>
<path fill="none" stroke="black" d="M204.871,-86.799C190.54,-74.2409 170.921,-57.0493 155.025,-43.1202"/>
<polygon fill="black" stroke="black" points="156.928,-40.1337 147.1,-36.1754 152.314,-45.3983 156.928,-40.1337"/>
<text text-anchor="middle" x="196.5" y="-57.8" font-family="Times,serif" font-size="14.00">input</text>
</g>
<!-- bib -->
<g id="node4" class="node"><title>bib</title>
<polygon fill="none" stroke="red" points="253,-36 196,-36 196,-0 253,-0 253,-36"/>
<text text-anchor="middle" x="224.5" y="-14.3" font-family="Times,serif" font-size="14.00">cite.bib</text>
</g>
<!-- temp&#45;&gt;bib -->
<g id="edge3" class="edge"><title>temp&#45;&gt;bib</title>
<path fill="none" stroke="black" d="M224.5,-86.799C224.5,-75.1626 224.5,-59.5479 224.5,-46.2368"/>
<polygon fill="black" stroke="black" points="228,-46.1754 224.5,-36.1754 221,-46.1755 228,-46.1754"/>
<text text-anchor="middle" x="238.5" y="-57.8" font-family="Times,serif" font-size="14.00">input</text>
</g>
<!-- bst -->
<g id="node5" class="node"><title>bst</title>
<polygon fill="none" stroke="green" points="372,-36 289,-36 289,-0 372,-0 372,-36"/>
<text text-anchor="middle" x="330.5" y="-14.3" font-family="Times,serif" font-size="14.00">template.bst</text>
</g>
<!-- temp&#45;&gt;bst -->
<g id="edge4" class="edge"><title>temp&#45;&gt;bst</title>
<path fill="none" stroke="black" d="M245.951,-86.799C261.755,-74.1257 283.444,-56.7335 300.898,-42.7377"/>
<polygon fill="black" stroke="black" points="303.469,-45.1619 309.081,-36.1754 299.09,-39.7009 303.469,-45.1619"/>
<text text-anchor="middle" x="298.5" y="-57.8" font-family="Times,serif" font-size="14.00">input</text>
</g>
<!-- sty -->
<g id="node6" class="node"><title>sty</title>
<polygon fill="none" stroke="black" points="491,-36 408,-36 408,-0 491,-0 491,-36"/>
<text text-anchor="middle" x="449.5" y="-14.3" font-family="Times,serif" font-size="14.00">template.sty</text>
</g>
<!-- temp&#45;&gt;sty -->
<g id="edge5" class="edge"><title>temp&#45;&gt;sty</title>
<path fill="none" stroke="black" d="M266.557,-88.1119C303.806,-74.04 358.295,-53.4551 398.116,-38.4115"/>
<polygon fill="black" stroke="black" points="399.532,-41.6184 407.649,-34.8102 397.058,-35.0701 399.532,-41.6184"/>
<text text-anchor="middle" x="373.5" y="-57.8" font-family="Times,serif" font-size="14.00">input</text>
</g>
<!-- fig -->
<g id="node7" class="node"><title>fig</title>
<polygon fill="none" stroke="red" points="356.5,-123 302.5,-123 302.5,-87 356.5,-87 356.5,-123"/>
<text text-anchor="middle" x="329.5" y="-101.3" font-family="Times,serif" font-size="14.00">Figs</text>
</g>
<!-- build -->
<g id="node8" class="node"><title>build</title>
<polygon fill="none" stroke="red" points="446.5,-123 392.5,-123 392.5,-87 446.5,-87 446.5,-123"/>
<text text-anchor="middle" x="419.5" y="-101.3" font-family="Times,serif" font-size="14.00">build</text>
</g>
<!-- gen -->
<g id="node9" class="node"><title>gen</title>
<polygon fill="none" stroke="blue" points="560,-123 483,-123 483,-87 560,-87 560,-123"/>
<text text-anchor="middle" x="521.5" y="-101.3" font-family="Times,serif" font-size="14.00">compile.sh</text>
</g>
</g>
</svg>
