<?xml version="1.0" encoding="UTF-8" standalone="no"?>
<!DOCTYPE svg PUBLIC "-//W3C//DTD SVG 1.1//EN"
 "http://www.w3.org/Graphics/SVG/1.1/DTD/svg11.dtd">
<!-- Generated by graphviz version 2.38.0 (20140413.2041)
 -->
<!-- Title: %3 Pages: 1 -->
<svg width="181pt" height="584pt"
 viewBox="0.00 0.00 181.00 584.00" xmlns="http://www.w3.org/2000/svg" xmlns:xlink="http://www.w3.org/1999/xlink">
<g id="graph0" class="graph" transform="scale(1 1) rotate(0) translate(4 580)">
<title>%3</title>
<polygon fill="white" stroke="none" points="-4,4 -4,-580 177,-580 177,4 -4,4"/>
<!-- proj -->
<g id="node1" class="node"><title>proj</title>
<polygon fill="none" stroke="green" points="68.5,-72 65.5,-76 44.5,-76 41.5,-72 14.5,-72 14.5,-36 68.5,-36 68.5,-72"/>
<text text-anchor="middle" x="41.5" y="-50.3" font-family="Times,serif" font-size="14.00">project</text>
</g>
<!-- fig -->
<g id="node7" class="node"><title>fig</title>
<polygon fill="none" stroke="red" points="173,-108 170,-112 149,-112 146,-108 119,-108 119,-72 173,-72 173,-108"/>
<text text-anchor="middle" x="146" y="-86.3" font-family="Times,serif" font-size="14.00">figs</text>
</g>
<!-- proj&#45;&gt;fig -->
<g id="edge1" class="edge"><title>proj&#45;&gt;fig</title>
<path fill="none" stroke="black" d="M68.6303,-63.1775C80.9192,-67.4936 95.7681,-72.7088 109.093,-77.3887"/>
<polygon fill="black" stroke="black" points="108.323,-80.8277 118.917,-80.8393 110.642,-74.2232 108.323,-80.8277"/>
</g>
<!-- sec -->
<g id="node8" class="node"><title>sec</title>
<polygon fill="none" stroke="red" points="173,-36 170,-40 149,-40 146,-36 119,-36 119,-0 173,-0 173,-36"/>
<text text-anchor="middle" x="146" y="-14.3" font-family="Times,serif" font-size="14.00">secs</text>
</g>
<!-- proj&#45;&gt;sec -->
<g id="edge2" class="edge"><title>proj&#45;&gt;sec</title>
<path fill="none" stroke="black" d="M68.6303,-44.8225C80.9192,-40.5064 95.7681,-35.2912 109.093,-30.6113"/>
<polygon fill="black" stroke="black" points="110.642,-33.7768 118.917,-27.1607 108.323,-27.1723 110.642,-33.7768"/>
</g>
<!-- info -->
<g id="node2" class="node"><title>info</title>
<polygon fill="none" stroke="gold" points="71,-144 12,-144 12,-108 71,-108 71,-144"/>
<text text-anchor="middle" x="41.5" y="-122.3" font-family="Times,serif" font-size="14.00">info.tex</text>
</g>
<!-- main -->
<g id="node3" class="node"><title>main</title>
<polygon fill="none" stroke="red" points="74,-216 9,-216 9,-180 74,-180 74,-216"/>
<text text-anchor="middle" x="41.5" y="-194.3" font-family="Times,serif" font-size="14.00">main.tex</text>
</g>
<!-- bib -->
<g id="node4" class="node"><title>bib</title>
<polygon fill="none" stroke="red" points="70,-288 13,-288 13,-252 70,-252 70,-288"/>
<text text-anchor="middle" x="41.5" y="-266.3" font-family="Times,serif" font-size="14.00">cite.bib</text>
</g>
<!-- bst -->
<g id="node5" class="node"><title>bst</title>
<polygon fill="none" stroke="green" points="83,-360 0,-360 0,-324 83,-324 83,-360"/>
<text text-anchor="middle" x="41.5" y="-338.3" font-family="Times,serif" font-size="14.00">template.bst</text>
</g>
<!-- sty -->
<g id="node6" class="node"><title>sty</title>
<polygon fill="none" stroke="green" points="83,-432 0,-432 0,-396 83,-396 83,-432"/>
<text text-anchor="middle" x="41.5" y="-410.3" font-family="Times,serif" font-size="14.00">template.sty</text>
</g>
<!-- build -->
<g id="node9" class="node"><title>build</title>
<polygon fill="none" stroke="blue" points="68.5,-504 65.5,-508 44.5,-508 41.5,-504 14.5,-504 14.5,-468 68.5,-468 68.5,-504"/>
<text text-anchor="middle" x="41.5" y="-482.3" font-family="Times,serif" font-size="14.00">build</text>
</g>
<!-- gen -->
<g id="node10" class="node"><title>gen</title>
<polygon fill="none" stroke="blue" points="80,-576 3,-576 3,-540 80,-540 80,-576"/>
<text text-anchor="middle" x="41.5" y="-554.3" font-family="Times,serif" font-size="14.00">compile.sh</text>
</g>
</g>
</svg>
