<?xml version="1.0" encoding="UTF-8" standalone="no"?>
<!DOCTYPE svg PUBLIC "-//W3C//DTD SVG 1.1//EN"
 "http://www.w3.org/Graphics/SVG/1.1/DTD/svg11.dtd">
<!-- Generated by graphviz version 2.38.0 (20140413.2041)
 -->
<!-- Title: %3 Pages: 1 -->
<svg width="499pt" height="111pt"
 viewBox="0.00 0.00 499.00 111.00" xmlns="http://www.w3.org/2000/svg" xmlns:xlink="http://www.w3.org/1999/xlink">
<g id="graph0" class="graph" transform="scale(1 1) rotate(0) translate(4 107)">
<title>%3</title>
<polygon fill="white" stroke="none" points="-4,4 -4,-107 495,-107 495,4 -4,4"/>
<!-- temp -->
<g id="node1" class="node"><title>temp</title>
<polygon fill="none" stroke="green" points="266.5,-103 182.5,-103 182.5,-67 266.5,-67 266.5,-103"/>
<text text-anchor="middle" x="224.5" y="-81.3" font-family="Times,serif" font-size="14.00">template.tex</text>
</g>
<!-- info -->
<g id="node2" class="node"><title>info</title>
<polygon fill="none" stroke="gold" points="59,-36 0,-36 0,-0 59,-0 59,-36"/>
<text text-anchor="middle" x="29.5" y="-14.3" font-family="Times,serif" font-size="14.00">info.tex</text>
</g>
<!-- temp&#45;&gt;info -->
<g id="edge1" class="edge"><title>temp&#45;&gt;info</title>
<path fill="none" stroke="black" d="M182.188,-69.896C148.486,-58.6619 101.666,-43.0553 68.784,-32.0947"/>
<polygon fill="black" stroke="black" points="69.6504,-28.6942 59.0567,-28.8522 67.4367,-35.335 69.6504,-28.6942"/>
<text text-anchor="middle" x="144.5" y="-47.8" font-family="Times,serif" font-size="14.00">input</text>
</g>
<!-- main -->
<g id="node3" class="node"><title>main</title>
<polygon fill="none" stroke="red" points="160,-36 95,-36 95,-0 160,-0 160,-36"/>
<text text-anchor="middle" x="127.5" y="-14.3" font-family="Times,serif" font-size="14.00">main.tex</text>
</g>
<!-- temp&#45;&gt;main -->
<g id="edge2" class="edge"><title>temp&#45;&gt;main</title>
<path fill="none" stroke="black" d="M199.014,-66.922C187.632,-59.2946 174.048,-50.1919 161.792,-41.9789"/>
<polygon fill="black" stroke="black" points="163.408,-38.8488 153.152,-36.1896 159.511,-44.664 163.408,-38.8488"/>
<text text-anchor="middle" x="198.5" y="-47.8" font-family="Times,serif" font-size="14.00">input</text>
</g>
<!-- bib -->
<g id="node4" class="node"><title>bib</title>
<polygon fill="none" stroke="red" points="253,-36 196,-36 196,-0 253,-0 253,-36"/>
<text text-anchor="middle" x="224.5" y="-14.3" font-family="Times,serif" font-size="14.00">cite.bib</text>
</g>
<!-- temp&#45;&gt;bib -->
<g id="edge3" class="edge"><title>temp&#45;&gt;bib</title>
<path fill="none" stroke="black" d="M224.5,-66.922C224.5,-60.7016 224.5,-53.4999 224.5,-46.5999"/>
<polygon fill="black" stroke="black" points="228,-46.1896 224.5,-36.1896 221,-46.1896 228,-46.1896"/>
<text text-anchor="middle" x="238.5" y="-47.8" font-family="Times,serif" font-size="14.00">input</text>
</g>
<!-- bst -->
<g id="node5" class="node"><title>bst</title>
<polygon fill="none" stroke="green" points="372,-36 289,-36 289,-0 372,-0 372,-36"/>
<text text-anchor="middle" x="330.5" y="-14.3" font-family="Times,serif" font-size="14.00">template.bst</text>
</g>
<!-- temp&#45;&gt;bst -->
<g id="edge4" class="edge"><title>temp&#45;&gt;bst</title>
<path fill="none" stroke="black" d="M252.35,-66.922C265.03,-59.1465 280.211,-49.8378 293.805,-41.5015"/>
<polygon fill="black" stroke="black" points="295.772,-44.4009 302.468,-36.1896 292.113,-38.4335 295.772,-44.4009"/>
<text text-anchor="middle" x="300.5" y="-47.8" font-family="Times,serif" font-size="14.00">input</text>
</g>
<!-- sty -->
<g id="node6" class="node"><title>sty</title>
<polygon fill="none" stroke="black" points="491,-36 408,-36 408,-0 491,-0 491,-36"/>
<text text-anchor="middle" x="449.5" y="-14.3" font-family="Times,serif" font-size="14.00">template.sty</text>
</g>
<!-- temp&#45;&gt;sty -->
<g id="edge5" class="edge"><title>temp&#45;&gt;sty</title>
<path fill="none" stroke="black" d="M266.557,-71.8502C303.727,-61.1121 358.065,-45.4145 397.864,-33.9171"/>
<polygon fill="black" stroke="black" points="399.014,-37.2281 407.649,-31.0901 397.071,-30.5031 399.014,-37.2281"/>
<text text-anchor="middle" x="381.5" y="-47.8" font-family="Times,serif" font-size="14.00">input</text>
</g>
</g>
</svg>
