<?xml version="1.0" encoding="UTF-8" standalone="no"?>
<!DOCTYPE svg PUBLIC "-//W3C//DTD SVG 1.1//EN"
 "http://www.w3.org/Graphics/SVG/1.1/DTD/svg11.dtd">
<!-- Generated by graphviz version 2.38.0 (20140413.2041)
 -->
<!-- Title: %3 Pages: 1 -->
<svg width="588pt" height="44pt"
 viewBox="0.00 0.00 588.00 44.00" xmlns="http://www.w3.org/2000/svg" xmlns:xlink="http://www.w3.org/1999/xlink">
<g id="graph0" class="graph" transform="scale(1 1) rotate(0) translate(4 40)">
<title>%3</title>
<polygon fill="white" stroke="none" points="-4,4 -4,-40 584,-40 584,4 -4,4"/>
<!-- j -->
<g id="node1" class="node"><title>j</title>
<polygon fill="none" stroke="black" points="84,-36 0,-36 0,-0 84,-0 84,-36"/>
<text text-anchor="middle" x="42" y="-14.3" font-family="Times,serif" font-size="14.00">template.tex</text>
</g>
<!-- info -->
<g id="node2" class="node"><title>info</title>
<polygon fill="none" stroke="black" points="179.5,-36 120.5,-36 120.5,-0 179.5,-0 179.5,-36"/>
<text text-anchor="middle" x="150" y="-14.3" font-family="Times,serif" font-size="14.00">info.tex</text>
</g>
<!-- main -->
<g id="node3" class="node"><title>main</title>
<polygon fill="none" stroke="black" points="280.5,-36 215.5,-36 215.5,-0 280.5,-0 280.5,-36"/>
<text text-anchor="middle" x="248" y="-14.3" font-family="Times,serif" font-size="14.00">main.tex</text>
</g>
<!-- bst -->
<g id="node4" class="node"><title>bst</title>
<polygon fill="none" stroke="black" points="399.5,-36 316.5,-36 316.5,-0 399.5,-0 399.5,-36"/>
<text text-anchor="middle" x="358" y="-14.3" font-family="Times,serif" font-size="14.00">template.bst</text>
</g>
<!-- A -->
<g id="node5" class="node"><title>A</title>
<polygon fill="none" stroke="black" points="490,-36 436,-36 436,-0 490,-0 490,-36"/>
<text text-anchor="middle" x="463" y="-14.3" font-family="Times,serif" font-size="14.00">A</text>
</g>
<!-- B -->
<g id="node6" class="node"><title>B</title>
<polygon fill="none" stroke="black" points="580,-36 526,-36 526,-0 580,-0 580,-36"/>
<text text-anchor="middle" x="553" y="-14.3" font-family="Times,serif" font-size="14.00">B</text>
</g>
<!-- A&#45;&gt;B -->
<g id="edge1" class="edge"><title>A&#45;&gt;B</title>
<path fill="none" stroke="black" d="M490.07,-18C498.669,-18 507.267,-18 515.866,-18"/>
<polygon fill="black" stroke="black" points="515.96,-21.5001 525.96,-18 515.96,-14.5001 515.96,-21.5001"/>
</g>
</g>
</svg>
