<?xml version="1.0" encoding="UTF-8" standalone="no"?>
<!DOCTYPE svg PUBLIC "-//W3C//DTD SVG 1.1//EN"
 "http://www.w3.org/Graphics/SVG/1.1/DTD/svg11.dtd">
<!-- Generated by graphviz version 2.38.0 (20140413.2041)
 -->
<!-- Title: %3 Pages: 1 -->
<svg width="287pt" height="111pt"
 viewBox="0.00 0.00 287.00 111.00" xmlns="http://www.w3.org/2000/svg" xmlns:xlink="http://www.w3.org/1999/xlink">
<g id="graph0" class="graph" transform="scale(1 1) rotate(0) translate(4 107)">
<title>%3</title>
<polygon fill="white" stroke="none" points="-4,4 -4,-107 283,-107 283,4 -4,4"/>
<!-- temp -->
<g id="node1" class="node"><title>temp</title>
<polygon fill="none" stroke="black" points="169.5,-103 85.5,-103 85.5,-67 169.5,-67 169.5,-103"/>
<text text-anchor="middle" x="127.5" y="-81.3" font-family="Times,serif" font-size="14.00">template.tex</text>
</g>
<!-- info -->
<g id="node2" class="node"><title>info</title>
<polygon fill="none" stroke="red" points="59,-36 0,-36 0,-0 59,-0 59,-36"/>
<text text-anchor="middle" x="29.5" y="-14.3" font-family="Times,serif" font-size="14.00">info.tex</text>
</g>
<!-- temp&#45;&gt;info -->
<g id="edge1" class="edge"><title>temp&#45;&gt;info</title>
<path fill="none" stroke="black" d="M101.752,-66.922C90.1402,-59.2205 76.261,-50.015 63.7848,-41.7399"/>
<polygon fill="black" stroke="black" points="65.6848,-38.8003 55.4166,-36.1896 61.8156,-44.6338 65.6848,-38.8003"/>
<text text-anchor="middle" x="101.5" y="-47.8" font-family="Times,serif" font-size="14.00">input</text>
</g>
<!-- main -->
<g id="node3" class="node"><title>main</title>
<polygon fill="none" stroke="red" points="160,-36 95,-36 95,-0 160,-0 160,-36"/>
<text text-anchor="middle" x="127.5" y="-14.3" font-family="Times,serif" font-size="14.00">main.tex</text>
</g>
<!-- temp&#45;&gt;main -->
<g id="edge2" class="edge"><title>temp&#45;&gt;main</title>
<path fill="none" stroke="black" d="M127.5,-66.922C127.5,-60.7016 127.5,-53.4999 127.5,-46.5999"/>
<polygon fill="black" stroke="black" points="131,-46.1896 127.5,-36.1896 124,-46.1896 131,-46.1896"/>
<text text-anchor="middle" x="141.5" y="-47.8" font-family="Times,serif" font-size="14.00">input</text>
</g>
<!-- bst -->
<g id="node5" class="node"><title>bst</title>
<polygon fill="none" stroke="black" points="279,-36 196,-36 196,-0 279,-0 279,-36"/>
<text text-anchor="middle" x="237.5" y="-14.3" font-family="Times,serif" font-size="14.00">template.bst</text>
</g>
<!-- temp&#45;&gt;bst -->
<g id="edge3" class="edge"><title>temp&#45;&gt;bst</title>
<path fill="none" stroke="black" d="M156.401,-66.922C169.56,-59.1465 185.313,-49.8378 199.421,-41.5015"/>
<polygon fill="black" stroke="black" points="201.581,-44.2902 208.41,-36.1896 198.02,-38.2637 201.581,-44.2902"/>
<text text-anchor="middle" x="206.5" y="-47.8" font-family="Times,serif" font-size="14.00">input</text>
</g>
<!-- bib -->
<g id="node4" class="node"><title>bib</title>
<polygon fill="none" stroke="black" points="263,-103 206,-103 206,-67 263,-67 263,-103"/>
<text text-anchor="middle" x="234.5" y="-81.3" font-family="Times,serif" font-size="14.00">cite.bib</text>
</g>
</g>
</svg>
