<?xml version="1.0" encoding="UTF-8" standalone="no"?>
<!DOCTYPE svg PUBLIC "-//W3C//DTD SVG 1.1//EN"
 "http://www.w3.org/Graphics/SVG/1.1/DTD/svg11.dtd">
<!-- Generated by graphviz version 2.38.0 (20140413.2041)
 -->
<!-- Title: %3 Pages: 1 -->
<svg width="474pt" height="44pt"
 viewBox="0.00 0.00 473.50 44.00" xmlns="http://www.w3.org/2000/svg" xmlns:xlink="http://www.w3.org/1999/xlink">
<g id="graph0" class="graph" transform="scale(1 1) rotate(0) translate(4 40)">
<title>%3</title>
<polygon fill="white" stroke="none" points="-4,4 -4,-40 469.5,-40 469.5,4 -4,4"/>
<!-- j -->
<g id="node1" class="node"><title>j</title>
<polygon fill="none" stroke="black" points="89,-36 0,-36 0,-0 89,-0 89,-36"/>
<text text-anchor="middle" x="44.5" y="-14.3" font-family="Times,serif" font-size="14.00">Template.tex</text>
</g>
<!-- info -->
<g id="node2" class="node"><title>info</title>
<polygon fill="none" stroke="black" points="184,-36 125,-36 125,-0 184,-0 184,-36"/>
<text text-anchor="middle" x="154.5" y="-14.3" font-family="Times,serif" font-size="14.00">info.tex</text>
</g>
<!-- main -->
<g id="node3" class="node"><title>main</title>
<polygon fill="none" stroke="black" points="285,-36 220,-36 220,-0 285,-0 285,-36"/>
<text text-anchor="middle" x="252.5" y="-14.3" font-family="Times,serif" font-size="14.00">main.tex</text>
</g>
<!-- A -->
<g id="node4" class="node"><title>A</title>
<polygon fill="none" stroke="black" points="375.5,-36 321.5,-36 321.5,-0 375.5,-0 375.5,-36"/>
<text text-anchor="middle" x="348.5" y="-14.3" font-family="Times,serif" font-size="14.00">A</text>
</g>
<!-- B -->
<g id="node5" class="node"><title>B</title>
<polygon fill="none" stroke="black" points="465.5,-36 411.5,-36 411.5,-0 465.5,-0 465.5,-36"/>
<text text-anchor="middle" x="438.5" y="-14.3" font-family="Times,serif" font-size="14.00">B</text>
</g>
<!-- A&#45;&gt;B -->
<g id="edge1" class="edge"><title>A&#45;&gt;B</title>
<path fill="none" stroke="black" d="M375.57,-18C384.169,-18 392.767,-18 401.366,-18"/>
<polygon fill="black" stroke="black" points="401.46,-21.5001 411.46,-18 401.46,-14.5001 401.46,-21.5001"/>
</g>
</g>
</svg>
