<?xml version="1.0" encoding="UTF-8" standalone="no"?>
<!DOCTYPE svg PUBLIC "-//W3C//DTD SVG 1.1//EN"
 "http://www.w3.org/Graphics/SVG/1.1/DTD/svg11.dtd">
<!-- Generated by graphviz version 2.38.0 (20140413.2041)
 -->
<!-- Title: %3 Pages: 1 -->
<svg width="298pt" height="552pt"
 viewBox="0.00 0.00 298.00 552.00" xmlns="http://www.w3.org/2000/svg" xmlns:xlink="http://www.w3.org/1999/xlink">
<g id="graph0" class="graph" transform="scale(1 1) rotate(0) translate(4 548)">
<title>%3</title>
<polygon fill="white" stroke="none" points="-4,4 -4,-548 294,-548 294,4 -4,4"/>
<!-- proj -->
<g id="node1" class="node"><title>proj</title>
<polygon fill="none" stroke="green" points="54,-360 51,-364 30,-364 27,-360 0,-360 0,-324 54,-324 54,-360"/>
<text text-anchor="middle" x="27" y="-338.3" font-family="Times,serif" font-size="14.00">project</text>
</g>
<!-- main -->
<g id="node4" class="node"><title>main</title>
<polygon fill="none" stroke="red" points="171,-544 90,-544 90,-506 171,-506 171,-544"/>
<text text-anchor="middle" x="130.5" y="-528.8" font-family="Times,serif" font-size="14.00">main.tex </text>
<text text-anchor="middle" x="130.5" y="-513.8" font-family="Times,serif" font-size="14.00"> (Template)</text>
</g>
<!-- proj&#45;&gt;main -->
<g id="edge1" class="edge"><title>proj&#45;&gt;main</title>
<path fill="none" stroke="black" d="M38.1033,-360.216C55.8539,-392.219 92.7503,-458.742 113.832,-496.751"/>
<polygon fill="black" stroke="black" points="110.918,-498.714 118.83,-505.762 117.04,-495.319 110.918,-498.714"/>
</g>
<!-- bib -->
<g id="node5" class="node"><title>bib</title>
<polygon fill="none" stroke="red" points="169.5,-470 91.5,-470 91.5,-432 169.5,-432 169.5,-470"/>
<text text-anchor="middle" x="130.5" y="-454.8" font-family="Times,serif" font-size="14.00">cite.bib </text>
<text text-anchor="middle" x="130.5" y="-439.8" font-family="Times,serif" font-size="14.00"> (Mendely)</text>
</g>
<!-- proj&#45;&gt;bib -->
<g id="edge2" class="edge"><title>proj&#45;&gt;bib</title>
<path fill="none" stroke="black" d="M45.2181,-360.49C61.4957,-377.971 86.1036,-404.397 104.534,-424.189"/>
<polygon fill="black" stroke="black" points="102.136,-426.75 111.513,-431.684 107.259,-421.98 102.136,-426.75"/>
</g>
<!-- fig -->
<g id="node9" class="node"><title>fig</title>
<polygon fill="none" stroke="red" points="157.5,-396 154.5,-400 133.5,-400 130.5,-396 103.5,-396 103.5,-360 157.5,-360 157.5,-396"/>
<text text-anchor="middle" x="130.5" y="-374.3" font-family="Times,serif" font-size="14.00">figs</text>
</g>
<!-- proj&#45;&gt;fig -->
<g id="edge3" class="edge"><title>proj&#45;&gt;fig</title>
<path fill="none" stroke="black" d="M54.1388,-351.271C66.2149,-355.554 80.7441,-360.707 93.8092,-365.341"/>
<polygon fill="black" stroke="black" points="92.8551,-368.716 103.45,-368.761 95.195,-362.119 92.8551,-368.716"/>
</g>
<!-- sec -->
<g id="node10" class="node"><title>sec</title>
<polygon fill="none" stroke="red" points="157.5,-324 154.5,-328 133.5,-328 130.5,-324 103.5,-324 103.5,-288 157.5,-288 157.5,-324"/>
<text text-anchor="middle" x="130.5" y="-302.3" font-family="Times,serif" font-size="14.00">secs</text>
</g>
<!-- proj&#45;&gt;sec -->
<g id="edge4" class="edge"><title>proj&#45;&gt;sec</title>
<path fill="none" stroke="black" d="M54.1388,-332.729C66.2149,-328.446 80.7441,-323.293 93.8092,-318.659"/>
<polygon fill="black" stroke="black" points="95.195,-321.881 103.45,-315.239 92.8551,-315.284 95.195,-321.881"/>
</g>
<!-- build -->
<g id="node11" class="node"><title>build</title>
<polygon fill="none" stroke="blue" points="157.5,-252 154.5,-256 133.5,-256 130.5,-252 103.5,-252 103.5,-216 157.5,-216 157.5,-252"/>
<text text-anchor="middle" x="130.5" y="-230.3" font-family="Times,serif" font-size="14.00">build</text>
</g>
<!-- proj&#45;&gt;build -->
<g id="edge5" class="edge"><title>proj&#45;&gt;build</title>
<path fill="none" stroke="black" d="M45.2181,-323.679C61.7953,-306.04 87.0123,-279.209 105.545,-259.489"/>
<polygon fill="black" stroke="black" points="108.238,-261.734 112.536,-252.05 103.137,-256.94 108.238,-261.734"/>
</g>
<!-- temp -->
<g id="node13" class="node"><title>temp</title>
<polygon fill="none" stroke="black" stroke-dasharray="1,5" points="162.5,-180 98.5,-180 98.5,-144 162.5,-144 162.5,-180"/>
<text text-anchor="middle" x="130.5" y="-158.3" font-family="Times,serif" font-size="14.00">template</text>
</g>
<!-- proj&#45;&gt;temp -->
<g id="edge6" class="edge"><title>proj&#45;&gt;temp</title>
<path fill="none" stroke="black" d="M38.2909,-323.75C56.2715,-291.863 93.4798,-225.878 114.39,-188.797"/>
<polygon fill="black" stroke="black" points="117.47,-190.46 119.333,-180.031 111.372,-187.022 117.47,-190.46"/>
</g>
<!-- front -->
<g id="node2" class="node"><title>front</title>
<polygon fill="none" stroke="blue" points="285,-396 212,-396 212,-360 285,-360 285,-396"/>
<text text-anchor="middle" x="248.5" y="-374.3" font-family="Times,serif" font-size="14.00">xFront.tex</text>
</g>
<!-- secs -->
<g id="node3" class="node"><title>secs</title>
<polygon fill="none" stroke="blue" points="280.5,-324 216.5,-324 216.5,-288 280.5,-288 280.5,-324"/>
<text text-anchor="middle" x="248.5" y="-302.3" font-family="Times,serif" font-size="14.00">secX.tex</text>
</g>
<!-- bst -->
<g id="node6" class="node"><title>bst</title>
<polygon fill="none" stroke="green" points="290,-252 207,-252 207,-216 290,-216 290,-252"/>
<text text-anchor="middle" x="248.5" y="-230.3" font-family="Times,serif" font-size="14.00">template.bst</text>
</g>
<!-- cls -->
<g id="node7" class="node"><title>cls</title>
<polygon fill="none" stroke="green" points="290,-180 207,-180 207,-144 290,-144 290,-180"/>
<text text-anchor="middle" x="248.5" y="-158.3" font-family="Times,serif" font-size="14.00">template.cls</text>
</g>
<!-- sty -->
<g id="node8" class="node"><title>sty</title>
<polygon fill="none" stroke="green" points="290,-108 207,-108 207,-72 290,-72 290,-108"/>
<text text-anchor="middle" x="248.5" y="-86.3" font-family="Times,serif" font-size="14.00">template.sty</text>
</g>
<!-- sec&#45;&gt;front -->
<g id="edge11" class="edge"><title>sec&#45;&gt;front</title>
<path fill="none" stroke="black" d="M157.533,-322.158C172.891,-331.691 192.598,-343.923 209.652,-354.508"/>
<polygon fill="black" stroke="black" points="207.948,-357.57 218.29,-359.87 211.64,-351.622 207.948,-357.57"/>
</g>
<!-- sec&#45;&gt;secs -->
<g id="edge12" class="edge"><title>sec&#45;&gt;secs</title>
<path fill="none" stroke="black" d="M157.533,-306C171.779,-306 189.769,-306 205.91,-306"/>
<polygon fill="black" stroke="black" points="206.192,-309.5 216.192,-306 206.192,-302.5 206.192,-309.5"/>
</g>
<!-- gen -->
<g id="node12" class="node"><title>gen</title>
<polygon fill="none" stroke="green" points="287,-36 210,-36 210,-0 287,-0 287,-36"/>
<text text-anchor="middle" x="248.5" y="-14.3" font-family="Times,serif" font-size="14.00">compile.sh</text>
</g>
<!-- temp&#45;&gt;bst -->
<g id="edge7" class="edge"><title>temp&#45;&gt;bst</title>
<path fill="none" stroke="black" d="M160.772,-180.169C175.609,-189.378 193.802,-200.67 209.686,-210.529"/>
<polygon fill="black" stroke="black" points="207.895,-213.537 218.238,-215.837 211.587,-207.59 207.895,-213.537"/>
</g>
<!-- temp&#45;&gt;cls -->
<g id="edge8" class="edge"><title>temp&#45;&gt;cls</title>
<path fill="none" stroke="black" d="M162.586,-162C173.071,-162 185.064,-162 196.668,-162"/>
<polygon fill="black" stroke="black" points="196.717,-165.5 206.717,-162 196.717,-158.5 196.717,-165.5"/>
</g>
<!-- temp&#45;&gt;sty -->
<g id="edge9" class="edge"><title>temp&#45;&gt;sty</title>
<path fill="none" stroke="black" d="M160.772,-143.831C175.609,-134.622 193.802,-123.33 209.686,-113.471"/>
<polygon fill="black" stroke="black" points="211.587,-116.41 218.238,-108.163 207.895,-110.463 211.587,-116.41"/>
</g>
<!-- temp&#45;&gt;gen -->
<g id="edge10" class="edge"><title>temp&#45;&gt;gen</title>
<path fill="none" stroke="black" d="M146.191,-143.762C166.5,-118.552 203.267,-72.9103 226.479,-44.0952"/>
<polygon fill="black" stroke="black" points="229.38,-46.0728 232.928,-36.0896 223.929,-41.6815 229.38,-46.0728"/>
</g>
</g>
</svg>
