<?xml version="1.0" encoding="UTF-8" standalone="no"?>
<!DOCTYPE svg PUBLIC "-//W3C//DTD SVG 1.1//EN"
 "http://www.w3.org/Graphics/SVG/1.1/DTD/svg11.dtd">
<!-- Generated by graphviz version 2.38.0 (20140413.2041)
 -->
<!-- Title: %3 Pages: 1 -->
<svg width="320pt" height="476pt"
 viewBox="0.00 0.00 320.00 476.00" xmlns="http://www.w3.org/2000/svg" xmlns:xlink="http://www.w3.org/1999/xlink">
<g id="graph0" class="graph" transform="scale(1 1) rotate(0) translate(4 472)">
<title>%3</title>
<polygon fill="white" stroke="none" points="-4,4 -4,-472 316,-472 316,4 -4,4"/>
<!-- proj -->
<g id="node1" class="node"><title>proj</title>
<polygon fill="none" stroke="green" points="68.5,-252 65.5,-256 44.5,-256 41.5,-252 14.5,-252 14.5,-216 68.5,-216 68.5,-252"/>
<text text-anchor="middle" x="41.5" y="-230.3" font-family="Times,serif" font-size="14.00">project</text>
</g>
<!-- main -->
<g id="node4" class="node"><title>main</title>
<polygon fill="none" stroke="red" points="190,-468 125,-468 125,-432 190,-432 190,-468"/>
<text text-anchor="middle" x="157.5" y="-446.3" font-family="Times,serif" font-size="14.00">main.tex</text>
</g>
<!-- proj&#45;&gt;main -->
<g id="edge1" class="edge"><title>proj&#45;&gt;main</title>
<path fill="none" stroke="black" d="M52.0235,-252.045C72.0573,-290.003 118.652,-378.287 142.254,-423.007"/>
<polygon fill="black" stroke="black" points="139.16,-424.645 146.923,-431.855 145.351,-421.377 139.16,-424.645"/>
</g>
<!-- bib -->
<g id="node5" class="node"><title>bib</title>
<polygon fill="none" stroke="red" points="186,-396 129,-396 129,-360 186,-360 186,-396"/>
<text text-anchor="middle" x="157.5" y="-374.3" font-family="Times,serif" font-size="14.00">cite.bib</text>
</g>
<!-- proj&#45;&gt;bib -->
<g id="edge2" class="edge"><title>proj&#45;&gt;bib</title>
<path fill="none" stroke="black" d="M56.9382,-252.238C76.8965,-277.448 113.029,-323.09 135.841,-351.905"/>
<polygon fill="black" stroke="black" points="133.228,-354.242 142.179,-359.91 138.716,-349.897 133.228,-354.242"/>
</g>
<!-- fig -->
<g id="node9" class="node"><title>fig</title>
<polygon fill="none" stroke="red" points="184.5,-324 181.5,-328 160.5,-328 157.5,-324 130.5,-324 130.5,-288 184.5,-288 184.5,-324"/>
<text text-anchor="middle" x="157.5" y="-302.3" font-family="Times,serif" font-size="14.00">figs</text>
</g>
<!-- proj&#45;&gt;fig -->
<g id="edge3" class="edge"><title>proj&#45;&gt;fig</title>
<path fill="none" stroke="black" d="M68.6539,-250.518C84.4397,-260.488 104.742,-273.311 121.852,-284.117"/>
<polygon fill="black" stroke="black" points="120.144,-287.178 130.468,-289.559 123.882,-281.259 120.144,-287.178"/>
</g>
<!-- sec -->
<g id="node10" class="node"><title>sec</title>
<polygon fill="none" stroke="red" points="184.5,-252 181.5,-256 160.5,-256 157.5,-252 130.5,-252 130.5,-216 184.5,-216 184.5,-252"/>
<text text-anchor="middle" x="157.5" y="-230.3" font-family="Times,serif" font-size="14.00">secs</text>
</g>
<!-- proj&#45;&gt;sec -->
<g id="edge4" class="edge"><title>proj&#45;&gt;sec</title>
<path fill="none" stroke="black" d="M68.6539,-234C84.0053,-234 103.628,-234 120.432,-234"/>
<polygon fill="black" stroke="black" points="120.468,-237.5 130.468,-234 120.468,-230.5 120.468,-237.5"/>
</g>
<!-- build -->
<g id="node11" class="node"><title>build</title>
<polygon fill="none" stroke="blue" points="184.5,-180 181.5,-184 160.5,-184 157.5,-180 130.5,-180 130.5,-144 184.5,-144 184.5,-180"/>
<text text-anchor="middle" x="157.5" y="-158.3" font-family="Times,serif" font-size="14.00">build</text>
</g>
<!-- proj&#45;&gt;build -->
<g id="edge5" class="edge"><title>proj&#45;&gt;build</title>
<path fill="none" stroke="black" d="M68.6539,-217.482C84.4397,-207.512 104.742,-194.689 121.852,-183.883"/>
<polygon fill="black" stroke="black" points="123.882,-186.741 130.468,-178.441 120.144,-180.822 123.882,-186.741"/>
</g>
<!-- gen -->
<g id="node12" class="node"><title>gen</title>
<polygon fill="none" stroke="blue" points="196,-108 119,-108 119,-72 196,-72 196,-108"/>
<text text-anchor="middle" x="157.5" y="-86.3" font-family="Times,serif" font-size="14.00">compile.sh</text>
</g>
<!-- proj&#45;&gt;gen -->
<g id="edge6" class="edge"><title>proj&#45;&gt;gen</title>
<path fill="none" stroke="black" d="M56.9382,-215.762C76.8965,-190.552 113.029,-144.91 135.841,-116.095"/>
<polygon fill="black" stroke="black" points="138.716,-118.103 142.179,-108.09 133.228,-113.758 138.716,-118.103"/>
</g>
<!-- temp -->
<g id="node13" class="node"><title>temp</title>
<polygon fill="none" stroke="black" points="189.5,-36 125.5,-36 125.5,-0 189.5,-0 189.5,-36"/>
<text text-anchor="middle" x="157.5" y="-14.3" font-family="Times,serif" font-size="14.00">template</text>
</g>
<!-- proj&#45;&gt;temp -->
<g id="edge7" class="edge"><title>proj&#45;&gt;temp</title>
<path fill="none" stroke="black" d="M52.0235,-215.955C72.0573,-177.997 118.652,-89.7127 142.254,-44.9928"/>
<polygon fill="black" stroke="black" points="145.351,-46.6226 146.923,-36.1451 139.16,-43.3553 145.351,-46.6226"/>
</g>
<!-- info -->
<g id="node2" class="node"><title>info</title>
<polygon fill="none" stroke="blue" points="301.5,-288 242.5,-288 242.5,-252 301.5,-252 301.5,-288"/>
<text text-anchor="middle" x="272" y="-266.3" font-family="Times,serif" font-size="14.00">info.tex</text>
</g>
<!-- secs -->
<g id="node3" class="node"><title>secs</title>
<polygon fill="none" stroke="blue" points="312,-216 232,-216 232,-180 312,-180 312,-216"/>
<text text-anchor="middle" x="272" y="-194.3" font-family="Times,serif" font-size="14.00">sections.tex</text>
</g>
<!-- bst -->
<g id="node6" class="node"><title>bst</title>
<polygon fill="none" stroke="green" points="83,-324 0,-324 0,-288 83,-288 83,-324"/>
<text text-anchor="middle" x="41.5" y="-302.3" font-family="Times,serif" font-size="14.00">template.bst</text>
</g>
<!-- cls -->
<g id="node7" class="node"><title>cls</title>
<polygon fill="none" stroke="green" points="83,-396 0,-396 0,-360 83,-360 83,-396"/>
<text text-anchor="middle" x="41.5" y="-374.3" font-family="Times,serif" font-size="14.00">template.cls</text>
</g>
<!-- sty -->
<g id="node8" class="node"><title>sty</title>
<polygon fill="none" stroke="green" points="83,-468 0,-468 0,-432 83,-432 83,-468"/>
<text text-anchor="middle" x="41.5" y="-446.3" font-family="Times,serif" font-size="14.00">template.sty</text>
</g>
<!-- sec&#45;&gt;info -->
<g id="edge8" class="edge"><title>sec&#45;&gt;info</title>
<path fill="none" stroke="black" d="M184.593,-242.35C198.891,-246.925 216.88,-252.682 232.738,-257.756"/>
<polygon fill="black" stroke="black" points="231.693,-261.097 242.284,-260.811 233.826,-254.43 231.693,-261.097"/>
</g>
<!-- sec&#45;&gt;secs -->
<g id="edge9" class="edge"><title>sec&#45;&gt;secs</title>
<path fill="none" stroke="black" d="M184.593,-225.65C195.765,-222.075 209.191,-217.779 222.093,-213.65"/>
<polygon fill="black" stroke="black" points="223.353,-216.922 231.811,-210.541 221.22,-210.255 223.353,-216.922"/>
</g>
</g>
</svg>
