<?xml version="1.0" encoding="UTF-8" standalone="no"?>
<!DOCTYPE svg PUBLIC "-//W3C//DTD SVG 1.1//EN"
 "http://www.w3.org/Graphics/SVG/1.1/DTD/svg11.dtd">
<!-- Generated by graphviz version 2.38.0 (20140413.2041)
 -->
<!-- Title: %3 Pages: 1 -->
<svg width="305pt" height="404pt"
 viewBox="0.00 0.00 305.00 404.00" xmlns="http://www.w3.org/2000/svg" xmlns:xlink="http://www.w3.org/1999/xlink">
<g id="graph0" class="graph" transform="scale(1 1) rotate(0) translate(4 400)">
<title>%3</title>
<polygon fill="white" stroke="none" points="-4,4 -4,-400 301,-400 301,4 -4,4"/>
<!-- proj -->
<g id="node1" class="node"><title>proj</title>
<polygon fill="none" stroke="green" points="68.5,-180 65.5,-184 44.5,-184 41.5,-180 14.5,-180 14.5,-144 68.5,-144 68.5,-180"/>
<text text-anchor="middle" x="41.5" y="-158.3" font-family="Times,serif" font-size="14.00">project</text>
</g>
<!-- main -->
<g id="node3" class="node"><title>main</title>
<polygon fill="none" stroke="red" points="193,-324 128,-324 128,-288 193,-288 193,-324"/>
<text text-anchor="middle" x="160.5" y="-302.3" font-family="Times,serif" font-size="14.00">main.tex</text>
</g>
<!-- proj&#45;&gt;main -->
<g id="edge1" class="edge"><title>proj&#45;&gt;main</title>
<path fill="none" stroke="black" d="M57.3181,-180.238C77.8016,-205.448 114.885,-251.09 138.298,-279.905"/>
<polygon fill="black" stroke="black" points="135.78,-282.356 144.802,-287.91 141.213,-277.942 135.78,-282.356"/>
</g>
<!-- bib -->
<g id="node4" class="node"><title>bib</title>
<polygon fill="none" stroke="red" points="189,-252 132,-252 132,-216 189,-216 189,-252"/>
<text text-anchor="middle" x="160.5" y="-230.3" font-family="Times,serif" font-size="14.00">cite.bib</text>
</g>
<!-- proj&#45;&gt;bib -->
<g id="edge2" class="edge"><title>proj&#45;&gt;bib</title>
<path fill="none" stroke="black" d="M68.7571,-178.158C84.7068,-187.973 105.307,-200.65 122.847,-211.444"/>
<polygon fill="black" stroke="black" points="121.349,-214.632 131.7,-216.892 125.017,-208.67 121.349,-214.632"/>
</g>
<!-- sty -->
<g id="node6" class="node"><title>sty</title>
<polygon fill="none" stroke="green" points="202,-180 119,-180 119,-144 202,-144 202,-180"/>
<text text-anchor="middle" x="160.5" y="-158.3" font-family="Times,serif" font-size="14.00">template.sty</text>
</g>
<!-- proj&#45;&gt;sty -->
<g id="edge3" class="edge"><title>proj&#45;&gt;sty</title>
<path fill="none" stroke="black" d="M68.7571,-162C80.4612,-162 94.6694,-162 108.335,-162"/>
<polygon fill="black" stroke="black" points="108.629,-165.5 118.629,-162 108.629,-158.5 108.629,-165.5"/>
</g>
<!-- fig -->
<g id="node7" class="node"><title>fig</title>
<polygon fill="none" stroke="red" points="187.5,-108 184.5,-112 163.5,-112 160.5,-108 133.5,-108 133.5,-72 187.5,-72 187.5,-108"/>
<text text-anchor="middle" x="160.5" y="-86.3" font-family="Times,serif" font-size="14.00">figs</text>
</g>
<!-- proj&#45;&gt;fig -->
<g id="edge4" class="edge"><title>proj&#45;&gt;fig</title>
<path fill="none" stroke="black" d="M68.7571,-145.842C85.1658,-135.744 106.496,-122.618 124.353,-111.629"/>
<polygon fill="black" stroke="black" points="126.648,-114.326 133.331,-106.104 122.98,-108.364 126.648,-114.326"/>
</g>
<!-- sec -->
<g id="node8" class="node"><title>sec</title>
<polygon fill="none" stroke="red" points="187.5,-36 184.5,-40 163.5,-40 160.5,-36 133.5,-36 133.5,-0 187.5,-0 187.5,-36"/>
<text text-anchor="middle" x="160.5" y="-14.3" font-family="Times,serif" font-size="14.00">secs</text>
</g>
<!-- proj&#45;&gt;sec -->
<g id="edge5" class="edge"><title>proj&#45;&gt;sec</title>
<path fill="none" stroke="black" d="M57.3181,-143.762C77.8016,-118.552 114.885,-72.9103 138.298,-44.0952"/>
<polygon fill="black" stroke="black" points="141.213,-46.0579 144.802,-36.0896 135.78,-41.6437 141.213,-46.0579"/>
</g>
<!-- info -->
<g id="node2" class="node"><title>info</title>
<polygon fill="none" stroke="gold" points="297,-36 238,-36 238,-0 297,-0 297,-36"/>
<text text-anchor="middle" x="267.5" y="-14.3" font-family="Times,serif" font-size="14.00">info.tex</text>
</g>
<!-- bst -->
<g id="node5" class="node"><title>bst</title>
<polygon fill="none" stroke="green" points="83,-252 0,-252 0,-216 83,-216 83,-252"/>
<text text-anchor="middle" x="41.5" y="-230.3" font-family="Times,serif" font-size="14.00">template.bst</text>
</g>
<!-- sec&#45;&gt;info -->
<g id="edge6" class="edge"><title>sec&#45;&gt;info</title>
<path fill="none" stroke="black" d="M187.725,-18C199.708,-18 214.15,-18 227.379,-18"/>
<polygon fill="black" stroke="black" points="227.657,-21.5001 237.657,-18 227.657,-14.5001 227.657,-21.5001"/>
</g>
<!-- build -->
<g id="node9" class="node"><title>build</title>
<polygon fill="none" stroke="blue" points="68.5,-324 65.5,-328 44.5,-328 41.5,-324 14.5,-324 14.5,-288 68.5,-288 68.5,-324"/>
<text text-anchor="middle" x="41.5" y="-302.3" font-family="Times,serif" font-size="14.00">build</text>
</g>
<!-- gen -->
<g id="node10" class="node"><title>gen</title>
<polygon fill="none" stroke="blue" points="80,-396 3,-396 3,-360 80,-360 80,-396"/>
<text text-anchor="middle" x="41.5" y="-374.3" font-family="Times,serif" font-size="14.00">compile.sh</text>
</g>
</g>
</svg>
